<?xml version="1.0" encoding="utf-8"?>
<!-- Generator: Adobe Illustrator 18.0.0, SVG Export Plug-In . SVG Version: 6.00 Build 0)  -->
<!DOCTYPE svg PUBLIC "-//W3C//DTD SVG 1.1//EN" "http://www.w3.org/Graphics/SVG/1.1/DTD/svg11.dtd">
<svg version="1.1" id="Warstwa_1" xmlns="http://www.w3.org/2000/svg" xmlns:xlink="http://www.w3.org/1999/xlink" x="0px" y="0px"
	 viewBox="0 0 490 362" enable-background="new 0 0 490 362" xml:space="preserve">
<g>
	<path d="M261.5,70.9c-11.4-16.2-26.4-29.4-45.1-39.6C197.7,21.1,174.4,16,146.3,16c-26.1,0-48.3,4.8-66.9,14.3
		c-18.5,9.5-33.7,22.3-45.6,38.4c-11.9,16-20.5,34.4-26.1,55.2c-5.5,20.7-8.3,42.3-8.3,64.7c0,21.4,2,42.5,6,63.2
		c4,20.7,11.4,39.2,22.3,55.4c10.9,16.2,25.7,29.3,44.6,39.4c18.9,10,43.2,15,72.9,15c28.1,0,51.5-4.6,70.4-13.8
		c18.9-9.2,34-21.6,45.3-37.4c11.4-15.7,19.5-34,24.3-54.9c4.8-20.9,7.3-43.2,7.3-66.9c0-21.1-2.3-41.9-7-62.4
		C280.9,105.5,272.9,87.2,261.5,70.9z M187.1,260.2c-0.5,20.1-2.2,36.7-5,49.9c-2.8,13.2-7.1,23-12.8,29.3c-5.7,6.4-13.7,9.5-24,9.5
		c-10.4,0-18.3-3.2-23.8-9.5c-5.5-6.3-9.6-16-12.3-29.1c-2.7-13-4.3-29.7-4.8-49.9c-0.5-20.2-0.8-44.2-0.8-71.9
		c0-19.4,0.3-38.6,0.8-57.7c0.5-19.1,2.2-36.2,5-51.4c2.8-15.2,7.1-27.5,12.8-36.9c5.7-9.4,13.5-14,23.5-14c10.3,0,18.4,4.7,24,14
		c5.7,9.4,9.8,21.6,12.5,36.6c2.7,15,4.3,32.2,4.8,51.4c0.5,19.2,0.8,38.5,0.8,57.9C187.9,216.3,187.6,240.2,187.1,260.2z
		 M458.9,342.9V-0.5h-13c-6,9.4-14,18.8-24,28.3c-10,9.5-20.6,18.3-31.8,26.3c-11.2,8-22.5,14.8-33.8,20.3
		c-11.4,5.5-21.4,8.8-30.1,9.8v10.5l35.6,1v247.2h-30.6v12.5h158.3v-12.5H458.9z"/>
</g>
</svg>
