<?xml version="1.0" encoding="utf-8"?>
<!-- Generator: Adobe Illustrator 18.0.0, SVG Export Plug-In . SVG Version: 6.00 Build 0)  -->
<!DOCTYPE svg PUBLIC "-//W3C//DTD SVG 1.1//EN" "http://www.w3.org/Graphics/SVG/1.1/DTD/svg11.dtd">
<svg version="1.1" id="Warstwa_1" xmlns="http://www.w3.org/2000/svg" xmlns:xlink="http://www.w3.org/1999/xlink" x="0px" y="0px"
	 viewBox="0 0 565 349" enable-background="new 0 0 565 349" xml:space="preserve">
<g>
	<path d="M262.3,54.9c-11.4-16.2-26.4-29.4-45.1-39.6C198.5,5.1,175.1,0,147,0C121,0,98.7,4.8,80.1,14.3
		c-18.5,9.5-33.7,22.3-45.6,38.4C22.7,68.7,14,87.1,8.5,107.8c-5.5,20.7-8.3,42.3-8.3,64.7c0,21.4,2,42.5,6,63.2
		c4,20.7,11.4,39.2,22.3,55.4c10.9,16.2,25.7,29.3,44.6,39.4c18.9,10,43.2,15,72.9,15c28.1,0,51.5-4.6,70.4-13.8
		c18.9-9.2,34-21.6,45.4-37.4c11.4-15.7,19.5-34,24.3-54.9c4.8-20.9,7.3-43.2,7.3-66.9c0-21.1-2.3-41.9-7-62.4
		C281.7,89.5,273.7,71.1,262.3,54.9z M187.9,244.2c-0.5,20.1-2.2,36.7-5,49.9c-2.8,13.2-7.1,23-12.8,29.3
		c-5.7,6.4-13.7,9.5-24.1,9.5c-10.4,0-18.3-3.2-23.8-9.5c-5.5-6.3-9.6-16-12.3-29.1c-2.7-13-4.3-29.7-4.8-49.9
		c-0.5-20.2-0.8-44.2-0.8-72c0-19.4,0.3-38.6,0.8-57.7c0.5-19.1,2.2-36.2,5-51.4c2.8-15.2,7.1-27.5,12.8-36.9
		c5.7-9.4,13.5-14,23.6-14c10.4,0,18.4,4.7,24.1,14c5.7,9.4,9.9,21.6,12.5,36.6c2.7,15,4.3,32.2,4.8,51.4
		c0.5,19.2,0.8,38.5,0.8,57.9C188.6,200.2,188.4,224.1,187.9,244.2z M544.7,238.2l-9.5,4c0.3,1.7,0.2,3.9-0.5,6.8
		c-0.7,2.8-2,5.6-4,8.3c-2,2.7-4.8,4.9-8.5,6.8c-3.7,1.8-8.5,2.8-14.5,2.8c-6.7,0-14.2-1.1-22.6-3.3c-8.4-2.2-17.1-4.5-26.3-7
		c-9.2-2.5-18.5-4.8-27.8-7c-9.4-2.2-18.5-3.3-27.6-3.3c-14,0-24.7,1.2-32.1,3.5c-7.4,2.3-13,6.4-17,12c7-13.7,17.2-25.1,30.6-34.1
		c13.4-9,27.8-17,43.4-24.1c15.5-7,31.4-13.7,47.6-20.1c16.2-6.3,31-13.5,44.4-21.6c13.4-8,24.2-17.7,32.6-29.1
		c8.3-11.4,12.5-25.7,12.5-43.1c0-17.4-3.6-31.8-10.8-43.1c-7.2-11.4-16.5-20.4-28.1-27.1c-11.5-6.7-24.6-11.4-39.1-14
		c-14.5-2.7-29-4-43.3-4c-31.4,0-56.6,6.5-75.4,19.6c-18.9,13-28.3,31.1-28.3,54.2c0,6,1.1,11.8,3.3,17.3c2.2,5.5,5.3,10.3,9.3,14.3
		c4,4,8.7,7.3,14,9.8c5.3,2.5,11,3.8,17,3.8c13,0,24.1-4.1,33.1-12.3c9-8.2,13.5-18.1,13.5-29.8c0-6.3-1.2-12.4-3.5-18.1
		c-2.3-5.7-5.7-10.6-10-14.8c-4.3-4.2-9.4-7.5-15-10c-5.7-2.5-11.9-3.8-18.5-3.8c-1.7,0-3.3,0.1-4.8,0.3c-1.5,0.2-3.1,0.4-4.8,0.8
		c4.3-3,9.2-5.6,14.5-7.8c5.3-2.2,11.7-3.3,19-3.3c15,0,27.5,5,37.3,15c9.9,10,14.8,26.2,14.8,48.6c0,14.4-3.2,27.3-9.5,38.9
		c-6.4,11.5-14.4,22.6-24.1,33.1c-9.7,10.5-20,21-31.1,31.3c-11,10.4-21.4,21.6-31.1,33.6c-9.7,12-17.7,25.2-24.1,39.6
		c-6.4,14.4-9.5,30.9-9.5,49.6c0,4.7,0.2,9.3,0.5,13.8c0.3,4.5,1,9.3,2,14.3h12c2-3.7,5.8-6.8,11.5-9.5c5.7-2.7,13.7-4,24.1-4
		c12,0,22.7,1.2,32.1,3.5c9.3,2.3,18.4,5,27.1,8c8.7,3,17.4,5.7,26.1,8c8.7,2.3,18.2,3.5,28.6,3.5c25.4,0,43.2-5.8,53.4-17.3
		c10.2-11.5,15.3-27.8,15.3-48.9c0-9.7-1.8-18.6-5.5-26.8C553.5,247.8,549.3,241.9,544.7,238.2z"/>
</g>
</svg>
