<?xml version="1.0" encoding="utf-8"?>
<!-- Generator: Adobe Illustrator 18.0.0, SVG Export Plug-In . SVG Version: 6.00 Build 0)  -->
<!DOCTYPE svg PUBLIC "-//W3C//DTD SVG 1.1//EN" "http://www.w3.org/Graphics/SVG/1.1/DTD/svg11.dtd">
<svg version="1.1" id="Warstwa_1" xmlns="http://www.w3.org/2000/svg" xmlns:xlink="http://www.w3.org/1999/xlink" x="0px" y="0px"
	 viewBox="0 0 553 346" enable-background="new 0 0 553 346" xml:space="preserve">
<g>
	<path d="M261.7,55c-11.3-16.2-26.4-29.5-45-39.7C198,5.1,174.7,0,146.6,0c-26,0-48.3,4.8-66.8,14.3c-18.5,9.5-33.7,22.3-45.5,38.4
		C22.4,68.8,13.8,87.2,8.3,108C2.8,128.7,0,150.3,0,172.7c0,21.4,2,42.5,6,63.3c4,20.8,11.4,39.3,22.3,55.5
		c10.8,16.2,25.7,29.4,44.5,39.4c18.8,10,43.1,15.1,72.8,15.1c28,0,51.5-4.6,70.3-13.8c18.8-9.2,33.9-21.7,45.3-37.4
		c11.3-15.7,19.4-34.1,24.3-55c4.8-20.9,7.3-43.3,7.3-67c0-21.1-2.3-41.9-7-62.5C281.1,89.6,273.1,71.2,261.7,55z M187.4,244.6
		c-0.5,20.1-2.2,36.7-5,50c-2.8,13.2-7.1,23-12.8,29.4c-5.7,6.4-13.7,9.5-24,9.5c-10.3,0-18.3-3.2-23.8-9.5
		c-5.5-6.4-9.6-16.1-12.3-29.1c-2.7-13.1-4.3-29.7-4.8-50c-0.5-20.3-0.8-44.3-0.8-72.1c0-19.4,0.3-38.7,0.8-57.8
		c0.5-19.1,2.2-36.2,5-51.5c2.8-15.2,7.1-27.5,12.8-36.9c5.7-9.4,13.5-14.1,23.5-14.1c10.3,0,18.3,4.7,24,14.1
		c5.7,9.4,9.8,21.6,12.5,36.7c2.7,15.1,4.3,32.2,4.8,51.5c0.5,19.3,0.8,38.6,0.8,58C188.2,200.5,187.9,224.5,187.4,244.6z
		 M542.7,197.6c-6.8-11.9-15.7-21.3-26.5-28.4c-10.8-7-23.1-12.1-36.8-15.3c-13.7-3.2-27.4-5.4-41-6.8v-2.5c16.3-1.7,30.4-5,42.3-10
		c11.8-5,21.7-11,29.5-17.8c7.8-6.9,13.6-14.3,17.3-22.3c3.7-8,5.5-16.1,5.5-24.1c0-10-2.4-19.3-7.3-27.9
		c-4.8-8.5-11.5-15.9-20-22.1c-8.5-6.2-18.5-11-30-14.6s-23.9-5.3-37.3-5.3c-15,0-28.4,1.8-40,5.5c-11.7,3.7-21.9,8.5-30.5,14.3
		c-8.7,5.9-15.9,12.4-21.8,19.6c-5.8,7.2-10.3,14.3-13.3,21.3l10.5,4c6-10,13.2-18.2,21.5-24.6c8.3-6.4,17.7-9.5,28-9.5
		c13.3,0,23.3,4.5,30,13.5c6.7,9,10,21.6,10,37.6c0,10.7-1.8,19.7-5.5,27.1c-3.7,7.4-8.1,13.4-13.3,18c-5.2,4.7-10.8,8.3-16.8,10.8
		c-6,2.5-11.3,4.4-16,5.8v13c12-0.7,22.3,1,30.8,5c8.5,4,15.4,9.8,20.8,17.3c5.3,7.5,9.3,16.5,11.8,27.1c2.5,10.5,3.8,22,3.8,34.3
		c0,12-1,23.5-3,34.3c-2,10.9-5.2,20.3-9.5,28.3c-4.3,8-10.2,14.4-17.5,19.1c-7.3,4.7-16.2,7-26.5,7c-11.3,0-20.7-2.3-28-7h3.5
		c6.3,0,12.3-1.2,18-3.5c5.7-2.3,10.6-5.5,14.8-9.5c4.2-4,7.5-8.7,10-14.1c2.5-5.4,3.8-11,3.8-17.1c0-6.4-1.2-12.4-3.5-18.1
		c-2.3-5.7-5.7-10.6-10-14.8c-4.3-4.2-9.3-7.5-15-10c-5.7-2.5-11.8-3.8-18.5-3.8c-12,0-22.4,4.4-31.3,13.3
		c-8.8,8.9-13.3,19.8-13.3,32.9c0,11.7,2.7,21.8,8,30.4c5.3,8.5,12.5,15.6,21.5,21.1s19.3,9.7,30.8,12.6c11.5,2.8,23.6,4.3,36.3,4.3
		c17,0,33.6-1.6,49.8-4.8c16.2-3.2,30.5-8.7,43-16.6c12.5-7.9,22.5-18.4,30-31.6c7.5-13.2,11.3-29.9,11.3-50
		C553,224.6,549.6,209.5,542.7,197.6z"/>
</g>
</svg>
