<?xml version="1.0" encoding="utf-8"?>
<!-- Generator: Adobe Illustrator 18.0.0, SVG Export Plug-In . SVG Version: 6.00 Build 0)  -->
<!DOCTYPE svg PUBLIC "-//W3C//DTD SVG 1.1//EN" "http://www.w3.org/Graphics/SVG/1.1/DTD/svg11.dtd">
<svg version="1.1" id="Warstwa_1" xmlns="http://www.w3.org/2000/svg" xmlns:xlink="http://www.w3.org/1999/xlink" x="0px" y="0px"
	 viewBox="0 0 565 346" enable-background="new 0 0 565 346" xml:space="preserve">
<g>
	<path d="M262.1,54.3c-11.4-16.2-26.4-29.5-45.1-39.7C198.3,4.4,174.9-0.7,146.9-0.7c-26.1,0-48.3,4.8-66.9,14.3
		C61.5,23.2,46.3,36,34.4,52C22.6,68.1,13.9,86.5,8.4,107.3c-5.5,20.8-8.3,42.4-8.3,64.8c0,21.4,2,42.5,6,63.3
		c4,20.8,11.4,39.3,22.3,55.5c10.8,16.2,25.7,29.4,44.6,39.4c18.9,10,43.2,15.1,72.9,15.1c28.1,0,51.5-4.6,70.4-13.8
		c18.9-9.2,34-21.7,45.3-37.4c11.4-15.7,19.5-34.1,24.3-55c4.8-20.9,7.3-43.3,7.3-67c0-21.1-2.3-41.9-7-62.5
		C281.5,88.9,273.5,70.5,262.1,54.3z M187.7,243.9c-0.5,20.1-2.2,36.7-5,50c-2.8,13.2-7.1,23-12.8,29.4c-5.7,6.4-13.7,9.5-24,9.5
		c-10.4,0-18.3-3.2-23.8-9.5c-5.5-6.4-9.6-16.1-12.3-29.1c-2.7-13.1-4.3-29.7-4.8-50c-0.5-20.3-0.8-44.3-0.8-72.1
		c0-19.4,0.3-38.7,0.8-57.8c0.5-19.1,2.2-36.2,5-51.5c2.8-15.2,7.1-27.5,12.8-36.9c5.7-9.4,13.5-14.1,23.5-14.1
		c10.3,0,18.4,4.7,24,14.1c5.7,9.4,9.8,21.6,12.5,36.7c2.7,15.1,4.3,32.2,4.8,51.5c0.5,19.3,0.8,38.6,0.8,58
		C188.5,199.8,188.2,223.8,187.7,243.9z M565.1,233.8v-12.6H515V5.3h-46.8l-147,217.9v10.5h95.7v92.4h-35.1v13.1h163.3v-12.6H515
		v-92.9H565.1z M416.8,221.3h-79.2l79.2-117V221.3z"/>
</g>
</svg>
