<?xml version="1.0" encoding="utf-8"?>
<!-- Generator: Adobe Illustrator 18.0.0, SVG Export Plug-In . SVG Version: 6.00 Build 0)  -->
<!DOCTYPE svg PUBLIC "-//W3C//DTD SVG 1.1//EN" "http://www.w3.org/Graphics/SVG/1.1/DTD/svg11.dtd">
<svg version="1.1" id="Warstwa_1" xmlns="http://www.w3.org/2000/svg" xmlns:xlink="http://www.w3.org/1999/xlink" x="0px" y="0px"
	 viewBox="0 0 557 347" enable-background="new 0 0 557 347" xml:space="preserve">
<g>
	<path d="M262,55.3c-11.4-16.2-26.4-29.5-45.1-39.7C198.2,5.4,174.9,0.3,146.8,0.3c-26,0-48.3,4.8-66.9,14.3
		C61.4,24.2,46.2,37,34.4,53c-11.9,16.1-20.5,34.5-26,55.2C2.8,129,0.1,150.6,0.1,173c0,21.4,2,42.5,6,63.3
		c4,20.8,11.4,39.3,22.3,55.5c10.8,16.2,25.7,29.4,44.6,39.4c18.9,10,43.2,15.1,72.9,15.1c28.1,0,51.5-4.6,70.4-13.8
		c18.9-9.2,34-21.7,45.3-37.4c11.3-15.7,19.4-34.1,24.3-55c4.8-20.9,7.3-43.3,7.3-67c0-21.1-2.3-41.9-7-62.5
		C281.4,89.9,273.4,71.5,262,55.3z M187.6,244.9c-0.5,20.1-2.2,36.7-5,50c-2.8,13.2-7.1,23-12.8,29.4c-5.7,6.4-13.7,9.5-24,9.5
		c-10.4,0-18.3-3.2-23.8-9.5c-5.5-6.4-9.6-16.1-12.3-29.1c-2.7-13.1-4.3-29.7-4.8-50c-0.5-20.3-0.8-44.3-0.8-72.1
		c0-19.4,0.3-38.7,0.8-57.7c0.5-19.1,2.2-36.2,5-51.5c2.8-15.2,7.1-27.5,12.8-36.9c5.7-9.4,13.5-14.1,23.5-14.1
		c10.3,0,18.4,4.7,24,14.1c5.7,9.4,9.8,21.6,12.5,36.7c2.7,15.1,4.3,32.2,4.8,51.5c0.5,19.3,0.8,38.6,0.8,58
		C188.4,200.8,188.1,224.8,187.6,244.9z M547.5,173.3c-6.3-14.9-15-27.1-26-36.7c-11-9.5-24.1-16.5-39.3-20.8
		c-15.2-4.3-31.8-6.5-49.8-6.5c-8.7,0-16.8,0.8-24.3,2.5c-7.5,1.7-14.3,3.8-20.3,6.3c-6,2.5-11.2,5.2-15.5,8
		c-4.3,2.8-7.9,5.4-10.5,7.8l2-28.6c0.7-7.4,1.2-14.1,1.5-20.1c0.3-6,0.5-9.2,0.5-9.5c11.7,1.7,23,3.1,34.1,4.3
		c11,1.2,21.2,1.8,30.6,1.8c37.4,0,64.4-6.4,80.9-19.1C527.7,49.9,536,29.3,536,0.8h-10.5c-2.7,4.7-10,7.7-22,9
		c-12,1.3-27.7,2-47.1,2c-8,0-16.8-0.1-26.3-0.3c-9.5-0.2-18.9-0.5-28.1-1c-9.2-0.5-17.8-1.1-25.8-1.8c-8-0.7-14.5-1.5-19.5-2.5
		l-8.5,139.1l11,4.5c0.3-0.3,1.8-1.7,4.5-4c2.7-2.3,6.1-4.8,10.3-7.3c4.2-2.5,8.9-4.8,14.3-6.8c5.3-2,10.8-3,16.5-3
		c17,0,29.4,7.8,37.1,23.4c7.7,15.6,11.5,42.1,11.5,79.6c0,20.4-1.5,37-4.5,49.7c-3,12.7-7,22.7-12,29.9c-5,7.2-10.9,12.1-17.8,14.6
		c-6.8,2.5-14.3,3.8-22.3,3.8c-9.4,0-18.2-2.2-26.5-6.5h2.5c6.3,0,12.4-1.2,18-3.5c5.7-2.3,10.7-5.5,15-9.5c4.3-4,7.8-8.8,10.3-14.3
		c2.5-5.5,3.8-11.3,3.8-17.3c0-6.4-1.3-12.3-3.8-17.8c-2.5-5.5-5.9-10.4-10.3-14.6c-4.3-4.2-9.4-7.5-15-10c-5.7-2.5-11.7-3.8-18-3.8
		c-13,0-23.7,4.5-32.1,13.6c-8.4,9-12.5,19.9-12.5,32.6c0,11.7,2.7,21.8,8,30.4c5.3,8.5,12.5,15.7,21.5,21.3
		c9,5.7,19.4,10,31.1,12.8c11.7,2.8,23.9,4.3,36.6,4.3c12.4,0,26.1-1.3,41.3-3.8c15.2-2.5,29.5-7.9,42.8-16.3
		c13.4-8.4,24.6-20.5,33.8-36.4c9.2-15.9,13.8-37.2,13.8-64C557.1,206,553.9,188.2,547.5,173.3z"/>
</g>
</svg>
