<?xml version="1.0" encoding="UTF-8" standalone="no"?>
<!-- Generator: Adobe Illustrator 18.0.0, SVG Export Plug-In . SVG Version: 6.00 Build 0)  -->
<!DOCTYPE svg  PUBLIC '-//W3C//DTD SVG 1.1//EN'  'http://www.w3.org/Graphics/SVG/1.1/DTD/svg11.dtd'>
<svg id="Warstwa_1" xmlns="http://www.w3.org/2000/svg" xml:space="preserve" viewBox="0 0 39 49" version="1.1" y="0px" x="0px" xmlns:xlink="http://www.w3.org/1999/xlink" enable-background="new 0 0 39 49">
<path clip-rule="evenodd" d="m21.6 12.3c0.1 0-0.1 0.1 0 0.1v-0.1c0.1 0.1 0.6 0.4 0.8 0.2 0 0 0 0.1 0.1 0.1s-0.1 0-0.1-0.1h-0.1c-0.1-0.1-0.5 0-0.7-0.2 0 0-0.1-0.1-0.2 0 0.1 0.1 0.2 0.1 0.2 0zm0.6 0.3s-0.1 0 0 0zm-0.1-0.1c0.1 0.1-0.1 0.1 0 0zm-0.2 0c-0.1 0 0.1 0 0 0zm-0.2-0.1c0.1 0.1-0.1 0 0 0zc-0.1 0.1 0-0.1 0 0zm-9.2-6.2s-0.1 0 0 0h0.3c0-0.3-0.2-0.2-0.1-0.4-0.2 0.1-0.2-0.1-0.4 0 0.1 0.2 0 0.3 0.2 0.4zm9.6 34c0.1-0.2 0-0.5-0.1-0.7-0.1 0.3 0.1 0.4 0.1 0.7zm-1.8-26.5s-0.1 0 0 0v0.1c0.2 0 0.2 0 0.3-0.1h0.1c0 0.1 0.1 0.1 0.1 0.2 0.3 0 0.6 0.3 0.8 0.2-0.1 0-0.1-0.1-0.1-0.2 0-0.3-0.4-0.1-0.5-0.3 0 0.1 0 0-0.1 0h-0.1c0-0.1-0.1-0.1-0.2-0.1h-0.2c-0.1 0.1-0.1 0.1-0.1 0.2 0-0.1-0.1-0.1-0.1-0.1h-0.1c-0.1 0 0.1 0.1 0.2 0.1zm1.1 0.3zm-0.8-0.4zm1.6 26.3c0 0.1-0.1 0.3 0.1 0.4 0.1-0.2 0-0.3-0.1-0.4zm-0.8-20.4zm-7.1-17.6s-0.1 0 0 0 0.1-0.2 0.3-0.1c0-0.2-0.3-0.2-0.4-0.3 0 0.1 0 0.2 0.1 0.4v0zm7 22.7c-0.1 0 0 0.1 0 0zm-5.2 14.1c-0.2 0.1-0.2 0.4-0.4 0.5 0 0.9-0.1 2-0.4 2.9-0.2 0.5-0.1 1.3-0.3 1.4-0.1 0.3-0.4 0.7-0.1 1 0.3 0 0.2-0.1 0.4-0.4 0-0.2-0.1-0.4-0.2-0.6 0.3-0.9 0.3-2.3 0.8-3.3-0.1-0.2 0-0.6 0.1-0.7 0-0.2 0.2-0.5 0.1-0.8zm5.2-26.5c-0.1 0.1 0 0.1 0 0v0zm-9.9-10.4c0.1-0.1 0.2-0.1 0.4-0.2 0.2-0.7-0.7-0.6-0.7-0.4-0.1 0.1 0 0.5 0.3 0.6zm10.8 10.7c0 0.1 0.1 0 0 0 0.1 0 0.1 0 0 0zm0.1-0.2s0.1 0 0 0c-0.1 0.1 0.1 0.2 0.2 0.1 0-0.1-0.1-0.1-0.2-0.1v0 0c-0.1 0 0 0 0 0zm0.1 0.1c-0.1-0.1 0-0.1 0 0 0.1 0 0 0 0 0zm-0.1 0.3c0.2 0 0.1-0.1 0 0zm-12.2-4.9c0-0.2-0.5-0.2-0.5 0 0.1 0.1 0.2 0 0.5 0zm11.8 16.5c-0.1-0.1-0.1 0-0.1 0.1-0.1 0-0.2 0.2 0 0.2 0-0.1 0.1-0.2 0.1-0.3-0.1 0-0.1 0 0 0-0.1 0-0.1 0.1 0 0-0.1 0-0.1 0 0 0zm-0.1 0zm0 0.2c0-0.1-0.1 0 0 0zm1.3 23.4c-0.1 0.1 0 0.2 0.1 0.2 0 0 0-0.2-0.1-0.2zm-9.8-4.7c-0.1 0.1-0.2 0.4-0.1 0.5 0.1-0.1 0.2-0.4 0.1-0.5zm-3.1-42.8c0.1 0.2 0.3 0 0.4 0.2 0-0.1 0.2 0 0.2-0.1 0-0.5-0.3-0.6-0.6-0.4 0 0.2 0.1 0.2 0 0.3zm12.3 46.6c-0.1 0.7 0.1 1.4 0.4 2 0-0.1 0.1 0 0.1-0.1-0.3-0.6 0.2-1.4-0.5-1.9zm-8.8-6.3c0.1-0.1 0.2-0.2 0.1-0.3-0.1 0-0.2 0.1-0.1 0.3zm11.5 5c0.1 0.2 0 0.5 0.2 0.7 0.1-0.1-0.1-0.6-0.2-0.7zm-15-36.8v-0.2h-0.2c0.1 0.2 0.1 0.3 0.2 0.2zm12 3.4c0-0.1-0.2-0.1-0.1-0.2-0.1 0.1-0.2 0.1-0.2 0-0.1 0 0 0.1-0.1 0.1v-0.1s0.1 0 0.1-0.1c-0.1 0-0.1-0.1-0.2 0 0.1 0.3 0.3 0.3 0.5 0.3zm-6.3 31.2s0.1 0 0 0c0.2 0 0.1-0.1 0.2-0.2-0.2-0.1-0.2 0.1-0.2 0.2zm19.1-27.4c0-0.3 0-0.4-0.1-0.6 0 0.1-0.2-0.3-0.2-0.1 0 0.1-0.2 0.1-0.3 0.1-0.4 0.4 0.1 0.9 0.6 0.6zm-0.6 0.2c0-0.2-0.1-0.2-0.2-0.3-0.1 0-0.2 0.2-0.3 0.1-0.2 0.4 0.4 0.7 0.5 0.2zm-15.5 27.1c-0.1 0.3-0.2 0.7-0.1 1 0.2-0.3 0-0.7 0.1-1zm15.3-28.5c-0.1-0.1-0.1-0.2-0.2-0.2-0.1 0.1-0.1 0.2 0 0.3 0.2 0.1 0.1-0.1 0.2-0.1zm-13.3 7.3v0zm0.1-2.9v0zm-0.2 6.2zm1.2 0c0.1 0 0.1 0 0.2-0.1-0.1 0.1-0.2 0.1-0.2 0.1zm10.9-10.2c0 0.2 0.2 0.3 0.3 0.2 0-0.2-0.2-0.2-0.2-0.3-0.1 0-0.1 0-0.1 0.1zm-12 3.7c-0.1 0-0.1 0 0 0 0 0.1 0 0.1 0.1 0.1 0 0-0.1 0 0-0.1-0.1 0.1-0.1 0.1-0.1 0v0c-0.1 0.1-0.1 0 0 0-0.1 0 0 0 0 0zm-4 21.7c0.1 0.1 0 0.2 0.1 0.3 0.2-0.6 0.5-0.9 0.5-1.5-0.3 0.3-0.3 0.8-0.6 1.2zm4.2-21.5c-0.1 0-0.1 0 0 0-0.1 0 0 0 0 0zm-0.1 0c0.1 0 0 0 0 0s0.1 0 0 0zm14.2-0.1c0.2-0.1 0.1-0.3 0.1-0.4-0.2 0-0.3 0.1-0.3 0.2 0.1 0 0.1 0.2 0.2 0.2zm-14.2 0.2v0zm0-0.2v0zm-2.4-12.7c0.1 0 0.1-0.1 0-0.3-0.1 0-0.1 0.1-0.1 0.1 0 0.1 0.1 0.1 0.1 0.2zm1.6 40.3c0 0.1-0.1 0.1 0 0.1 0 0 0.1-0.1 0-0.1zm-0.8-40.3c-0.1 0-0.2 0.1-0.1 0.2 0 0 0.1-0.1 0.1-0.2zm0.4-1c0.1 0 0.1-0.1 0.1 0v-0.1s-0.1 0-0.1 0.1v0.1h0.1s-0.1 0-0.1-0.1zm1.4 19.5c-0.1 0-0.1 0 0 0-0.1 0-0.1 0-0.1 0.1l0.1-0.1v0zm-0.1 0v0 0zm0 22.3c0 0.3 0 0.6 0.2 0.8 0.2-0.4 0-0.8-0.2-0.8zm-6.4-41.5c0.1 0 0.2-0.1 0.2-0.2-0.1-0.2-0.3-0.2-0.3 0 0 0 0 0.2 0.1 0.2zm0.2-1.5c0-0.2-0.1-0.2-0.2-0.1 0 0.1 0.1 0.1 0.2 0.1zm6.3-1.9c0-0.2-0.3-0.1-0.4 0 0.2 0 0.3 0.1 0.4 0zm-0.1 22.7c0.1 0.1 0 0 0 0zm5-17.8c0 0.1-0.1 0.1 0 0v0zm-5.1 12.1c-0.1-0.1-0.2-0.1-0.2-0.2h-0.1s0 0.1 0.1 0c-0.1 0.1 0.1 0.2 0.2 0.2s0 0 0 0zm-0.2-0.2c-0.1 0.1 0 0 0 0zc0 0.1-0.1 0 0 0zm0.1 0.1c-0.1 0 0 0 0 0zv0zm0 0.1v0zm5.2-12v0zm-6.1 11.5c0.1 0.1 0.3 0.1 0.4 0.2s0.2 0.1 0.2 0c-0.2-0.1-0.5-0.3-0.7-0.3 0.1-0.1 0.1 0 0.1 0.1l-0.1-0.1 0.1 0.1zm0-0.1zc-0.1 0-0.1 0.1 0 0zm12.9-7.9v-0.2h-0.2c0 0.2 0.1 0.2 0.2 0.2zm-12.6-4.5c-0.1-0.1-0.2 0.1-0.3 0.2 0.1 0.1 0.3 0 0.3-0.2zm-10-3.8c0.1 0.2 0.3 0.5 0.6 0.4 0-0.3-0.4-0.4-0.6-0.4zm-0.7 6.8c0 0.1 0.1 0.1 0.2 0.1-0.1-0.1-0.1-0.1-0.2-0.1zm-6.9 16.2c0 0.1-0.1 0-0.2 0.1v0.4c0.3 0.3 0.6-0.3 0.2-0.5zm21.2 1.7c0.1 0 0.1 0.1 0.3 0.1 0-0.1 0.1-0.1 0-0.2h-0.1c0.1 0 0 0.1 0 0.1 0-0.1-0.1 0 0-0.1-0.1 0-0.1 0-0.2 0.1zm0.1 0c0-0.1 0.1-0.1 0 0v0zm-21.8 6.7c0.1 0.1 0.3 0 0.4 0 0-0.2-0.3-0.1-0.4 0zm22-14.1s0.1 0 0 0zm-0.4-4.6c-0.1 0 0 0 0 0zm-20.2 27.9c-0.1 0-0.2 0-0.2 0.1 0.2 0.1 0.2 0.1 0.2-0.1v0zm0-11.2c-0.1 0.1-0.1 0.3-0.2 0.4l0.2 0.2c0.4 0 0.3-0.3 0.5-0.5-0.1-0.2-0.3-0.1-0.5-0.1zm20.3-16.9c-0.1 0.1 0.1 0.2 0.2 0.1-0.1 0-0.2-0.1-0.2-0.1-0.1 0 0 0.1 0 0zm0 0.1c0.1 0 0 0 0 0zm1.5 29.8c0-0.3-0.1-0.8-0.4-0.9 0 0.3 0.1 0.6 0.4 0.9zm-1.6-29.9c0-0.1-0.1-0.1 0-0.2h-0.2c-0.1 0-0.1 0.1-0.1 0.1v-0.1h0.1c-0.1 0-0.1-0.1-0.2-0.1 0 0.2 0.2 0.2 0.4 0.3zm-23.6 9.6c-0.1 0-0.1 0.2-0.2 0.1-0.1 0.3 0.4 0.3 0.4 0.1 0-0.1-0.1-0.2-0.2-0.2zm0.4-4.2c0 0.1 0.1 0.1 0.1 0.2 0.1-0.1 0.2-0.1 0.1-0.3-0.1 0-0.1 0-0.2 0.1zm23.6-0.7v0 0zm9.4 19.9c-0.1 0-0.1 0.1-0.2 0-1.1-0.7-2.3-1.2-3.3-2.2-0.5 0-1-0.5-1.6-0.4 0.4 0.7 1.4 0.6 1.8 1.3 1.2 0.2 2 1.1 2.9 1.4 0.2 0.3 0.4 0.7 0.8 0.5 0.1-0.4-0.3-0.4-0.4-0.6zm-24.9-15.5c0 0.1 0.1 0.1 0.1 0.1v-0.2c-0.1 0-0.1 0-0.1 0.1zm0.5 22v-0.2c0 0.1-0.1 0.1 0 0.2zm-0.3-2.2c0.3 0.1 0.4-0.1 0.5-0.4-0.3-0.4-0.8 0.1-0.5 0.4zm17.2-4.9c0.3-0.5-0.3-1-0.9-0.8-0.3 0.8 0.5 1.2 0.9 0.8zm0.3 1.1c-0.1 0.1 0.1 0.3 0.2 0.2-0.1-0.1 0-0.2-0.2-0.2zm-0.3 2.3c0.1 0.4 0 0.9 0.3 1.1 0-0.1 0.1-0.1 0.1-0.2-0.3-0.6-0.4-1.5-0.6-2.3-0.1 0.4 0.1 0.9 0.2 1.4zm-21.8-10.7c-0.1 0.1-0.2 0.1-0.1 0.2 0.1 0 0.1-0.1 0.1-0.1h0.2c-0.2 0-0.2 0-0.2-0.1zm20.1-5.3c-0.1 0.1 0 0.2 0 0zm-20.3 12.6c0.1 0.1 0.2-0.1 0.2-0.1-0.1-0.1-0.1 0-0.2 0.1zm20.6-23.3zm-15.5 30.7c0.1-0.1 0.1 0 0-0.1 0-0.3-0.2 0.4 0 0.1zm-4.6-12.3c-0.2 0-0.2 0.2-0.2 0.3 0.3 0 0.4-0.2 0.2-0.3zm0.3 9.4c0.3-0.1 0.4-0.4 0.5-0.7-0.2 0.1-0.4 0.4-0.5 0.7zm19.2-16.1c0.1 0 0-0.1 0 0zm-1.4-3.4c0 0.1 0.1 0 0 0zm0.1-1.9zm0.3-7.4c-0.1 0.1-0.1 0.1 0 0v0zm-0.3 13.4zm-16.4-17.8c-0.1 0-0.2-0.2-0.2 0h0.2c-0.1 0 0 0 0 0zm18.1 32c0 0.1-0.1 0.2 0.1 0.2-0.1 0 0-0.2-0.1-0.2zm-1.5-24.6zm0 10.3c0 0.1 0.1-0.1 0 0zm-11.7 10.4c-0.1 0.2-0.1 0.4 0 0.5 0.1-0.2 0.2-0.4 0-0.5zm5.2 5.4c0.1-0.1 0-0.4 0-0.5 0 0.2-0.1 0.3 0 0.5zm5.7-19.9c0-0.1 0-0.2-0.1-0.1s-0.1 0.3-0.2 0.3v0.1h0.1c0.1-0.2 0.1-0.3 0.2-0.3zm-0.1 0s-0.1 0 0 0zm0.9 20.5c0.1 0.3-0.2 1.2 0.3 1.1-0.1-0.4 0.1-0.9-0.3-1.1zm-13.9-34.6c-0.1-0.1-0.2-0.1-0.3 0 0 0.1 0.3 0.2 0.3 0zm2 28.7c-0.2-0.1-0.4-0.1-0.5 0 0.1 0.1 0.1 0.3 0.3 0.4 0-0.1 0.1-0.1 0.2-0.4zm-0.3 0.1s-0.1 0 0 0zm12.5-23.7s-0.1 0 0 0c0 0.1-0.1 0.1 0 0 0 0.1 0.4 0.4 0.5 0.4 0 0 0 0.1 0.1 0.1s-0.1 0 0-0.1h-0.1c-0.1-0.2-0.4-0.2-0.5-0.4 0 0 0-0.1-0.1 0 0 0 0 0.1 0.1 0zm0.4 0.3zm-0.1-0.1c0.1 0.1 0 0.1 0 0zm-0.1 0c-0.1-0.1 0.1 0 0 0zm-0.1-0.2c0 0.2-0.1 0 0 0zm-0.1 0c-0.1 0.1 0.1 0 0 0zm-13.8 29c0.2 0 0.3-0.3 0.2-0.4-0.1 0.2-0.2 0.2-0.2 0.4zm14.3-28.6c0.1 0.1 0.1 0 0 0zm-0.2 6.2v0zm-20.7-14.7s-0.1 0 0 0c-0.1-0.1-0.2-0.3-0.2-0.3-0.1 0-0.2 0.2 0 0.4 0.1 0.1 0.2 0 0.2-0.1zm20.1 10.9zm-19.8-7.9c0.1 0.1 0.4 0.1 0.4-0.1-0.1 0 0-0.1 0-0.2-0.1 0-0.2-0.1-0.4-0.1-0.2 0.2 0.1 0.2 0 0.4zm-0.3-3.1v0zm3.1 3.9c0.1 0 0.2 0.3 0.3 0.2-0.1-0.1 0.2-0.1 0 0 0.2 0.2 0.3-0.3 0.1-0.5 0 0.1 0 0.1-0.1 0.1 0.1-0.1 0-0.1 0-0.1h-0.1c-0.1-0.1 0-0.1-0.1-0.2 0 0.1-0.1 0.2-0.1 0.2 0 0.2 0.1 0.3 0 0.3zm20 26.6c-0.5-0.2-0.9-0.1-1.5 0.2 0 0 0 0.3 0.1 0.3 0.4 0 1.2 0.2 1.4-0.5zm-4.3-23.2s-0.1 0.1-0.1 0c0.1 0 0.1 0.1 0.3 0.1-0.1 0.1 0 0.1 0.1 0.1 0.2 0.1 0.5 0.2 0.8 0.3 0.1 0.2 0.4 0.1 0.4-0.1-0.5-0.2-1-0.6-1.5-0.6-0.1 0.1 0 0.2 0 0.2zm-0.1 0.1h0.1c-0.1 0-0.1 0.1-0.1 0zm0.1 0v0 0zm-11.2 29.3c0-0.1 0-0.2-0.1-0.3-0.3 0.1-0.3 0.4-0.5 0.7 0.2 0.1 0 0.2 0 0.4 0.1 0 0.1 0 0.2 0.1 0.3-0.3 0.4-0.6 0.4-0.9 0.1 0.1 0.2 0 0.3 0.1 0.1-0.8 0.7-1.1 0.6-1.9l-0.9 1.8zm12.9-15zm-0.3 0.6v0zm-12.7 11.1c-0.3 0.4-0.7 1.3-0.7 1.8 0.3-0.6 0.7-1.1 0.7-1.8zm13.1-27.3zm-7.2 19.4s-0.1 0 0 0zm1.6 0.6zm-4.1-1.2v0c0.1 0.1 0 0 0 0zm3.5 2.4v0zm-1.3-3s0.1 0 0 0c0.1-0.1 0 0 0 0zm-1.1 0.1c-0.2 0.1-0.6 0-0.8 0.2 0.2 0.1 0.5 0 0.6-0.1 0.1 0.1 0.2 0 0.3 0 0.1-0.1 0-0.1-0.1-0.1h0.2c0-0.1-0.1 0-0.2 0zm-0.5 0.2c0.1-0.1 0 0.1 0 0zm0.2-0.1s0.1 0 0 0v0zm0.5 0.7zm-0.9-2.4c0.1 0 0 0 0 0zm1.2 0.9zm1.1 1.1zm4.5 0.1v0zm-2.8-1.2c-0.1 0-0.1 0 0 0h-0.4c-0.3 0.1-0.4-0.1-0.7-0.2-0.1 0-0.3 0-0.4-0.1-0.1 0-0.1-0.1-0.2-0.2-0.2-0.1-0.5-0.1-0.7-0.2-0.5-0.2-0.9-0.4-1.3-0.7-0.1 0-0.2 0-0.3-0.1 0 0 0-0.1-0.1 0l-0.1-0.1c-0.1 0-0.2-0.1-0.2-0.2-0.2-0.1-0.3-0.3-0.4-0.5-0.1 0-0.1-0.1-0.1-0.2-0.3-0.4-0.9-0.5-1.2-0.9 0-0.2-0.2-0.3-0.2-0.4-0.1-0.2-0.4-0.5-0.5-0.7v-0.1c0-0.2-0.3-0.5-0.4-0.6 0-0.1 0-0.2-0.1-0.2h-0.1c0.1 0.4 0.3 0.8 0.4 1.2 0.2 0.1 0.3 0.4 0.4 0.5v0.1c0.2 0.1 0.2 0.4 0.3 0.6 0.2 0.1 0.2 0.5 0.3 0.6v0.1c0.3 0.3 0.4 0.6 0.8 0.7 0 0.1 0.3 0.1 0.3 0.3 0.2 0 0.5 0.1 0.6 0.3 0.3 0.1 0.5 0.2 0.6 0.3 0.1 0 0.1 0.1 0.2 0.1l-0.1 0.1s-0.1-0.1 0-0.1h-0.1c0 0.1 0.1 0.1 0.1 0.2 0.1 0 0.1-0.1 0.2-0.1 0.3 0.1 0.6 0.3 0.9 0.4v0.1c-0.1 0-0.2 0.1-0.3 0.2 0.1 0.4 0.9 0.6 1 0.1 0 0 0-0.1-0.1-0.1 0.2 0.1 0.4 0.1 0.6 0.2-0.1-0.1 0.2-0.1 0.3-0.1 0.1 0.1 0.2 0.2 0.3 0.2s0.2-0.1 0.3-0.1 0.3 0.1 0.5 0.1c0-0.1 0.1-0.1 0.2-0.2 0-0.3-0.1-0.3-0.3-0.3zm-7.1-5c0-0.1 0.1-0.1 0 0 0.1 0 0.1 0 0 0zm0.2 0.4s0.1 0.1 0 0zm5.8 4.6zm1.2 0.3v0 0zm3.2 0.2c-0.1 0 0.1 0.1 0 0zm0.2-0.1c0 0.1 0.1-0.1 0 0zm-2.6-12.4c0-0.1-0.2-0.1-0.2 0h-0.1-0.6 0.1v0.1s0.1 0 0.2 0.1l0.1-0.1h0.1c0.1 0 0.2 0.1 0.2 0 0.1 0 0.2 0 0.2-0.1v0 0 0zm-0.1 11.3c-0.1 0.1 0.1 0 0 0zm-0.3-3.5v0zm-0.1 0v0zm0.2 3.6c-0.1-0.1 0 0 0 0zm-7.2-1.5c0 0.1 0.2 0.2 0.3 0.1 0-0.1-0.2-0.1-0.3-0.1zm-1.4-7.2h-0.1c0 0.1 0.1 0.1 0.1 0.1v-0.1zm0.1 4c0 0.1 0 0.2 0.1 0.1v-0.1h-0.1zm-0.1 3.4c0 0.1 0.1 0.2 0.2 0.1v-0.1h-0.2zm2.6-12.1zm-1.8 7.8c0-0.2-0.1-0.5-0.1-0.8h0.1l0.1-0.1h0.1c0.1-0.5-0.3-1.3-0.2-1.8-0.1-0.2 0-0.9 0.1-1.3v-0.1c-0.1 0 0-0.2 0-0.2v-0.1c0.1-0.2 0.2-0.4 0.2-0.6 0.1 0.1 0-0.1 0.2-0.1 0.1-0.4 0.3-0.9 0.6-1.3 0.1-0.1 0.2-0.3 0.3-0.5 0.1 0 0.1-0.1 0.1-0.1 0-0.2 0.1-0.2 0.1-0.3 0.1 0 0.2-0.2 0.1-0.3 0.1 0.1 0.1-0.1 0-0.1 0 0.1 0 0-0.1 0 0.1-0.2 0.4-0.4 0.4-0.6-0.1 0-0.1-0.1-0.2-0.1-0.2 0.2-0.4 0.5-0.7 0.7-0.1 0.3-0.4 0.5-0.5 0.8s-0.3 0.4-0.3 0.6h-0.1c0.1 0.1-0.1 0.3-0.2 0.4 0 0.4-0.4 0.8-0.4 1.2l-0.1 0.1c0.1 0.2 0 0.5-0.1 0.8 0 0.1-0.1 0.2-0.1 0.2h0.1v0.1c-0.1 0.3-0.1 0.6-0.1 1 0 0.3-0.1 0.8 0.1 1.2-0.1 0.6 0.1 1.1 0.2 1.6 0.3 0.1 0.4-0.1 0.4-0.3zm1.9-8.2v0zm-0.2 0.5c0.1 0 0.1 0 0 0zm0 0.1c0.1-0.1 0 0.1 0 0zm-0.1 0.4v0zm-0.1-0.2zm-0.6 1.2c-0.1 0 0 0 0 0zm-1.1 6.1zm0-8.4s0.1 0 0 0l-0.1 0.1c0.1 0.1 0.3-0.1 0.1-0.1zm0 0.1s0.1-0.1 0 0c0.1 0 0 0.1 0 0zm-0.6 1.9c-0.1 0-0.1 0 0 0-0.1 0 0 0 0 0zm0.9-1.6c-0.1 0-0.1 0.2 0 0zm-0.8 0.8c0-0.2 0.1-0.3 0-0.6-0.2-0.1-0.3-0.6-0.9-0.6-0.3 0.6 0.2 0.9 0.3 1.2 0.1 0 0.3 0.1 0.5 0.1-0.1-0.1 0-0.1 0.1-0.1zm11.8 13.4zm-10.6-2.8c-0.2 0-0.1 0.3-0.1 0.4 0.2 0 0.4 0.2 0.6 0.4h0.2s0.1-0.1 0-0.2c-0.3 0-0.5-0.4-0.7-0.6zm0.1 0.3zm0.2 0.1c0.1 0.1-0.1 0 0 0zm0 0.1s-0.1 0 0 0zm0.6-1.6c0.3 0 0.1-0.4 0-0.4 0-0.1-0.1-0.2-0.3-0.2v0.1c0.1 0 0.1 0.1 0.2 0 0 0.1-0.1 0-0.1 0-0.2 0.1 0.1 0.4 0.2 0.5zm0-0.2c0 0.1-0.1-0.1 0 0zm-0.2-0.4c0.1 0 0 0.1 0 0zm0.1 0.2c0.1-0.1-0.1 0 0 0zm8.3-6.9c0.1 0 0-0.1 0 0v0zm-7.2 9.9zm-0.6 2.8c0.1 0.1 0.3 0.2 0.4 0 0-0.2-0.3-0.1-0.4 0zm-0.7-5.8c0-0.2-0.2-0.1-0.1-0.2-0.1-0.1-0.1 0-0.2 0.1 0.1 0.2 0.2 0 0.3 0.1zm-1 2.2c-0.1 0-0.2 0.1-0.3 0-0.2 0.2-0.2 0.6 0.3 0.6 0.2-0.4-0.1-0.5 0-0.6zm0.8-2.8c0.1 0 0.1-0.1 0.1-0.2-0.3-0.1-0.3-0.4-0.4-0.7-0.2 0-0.1 0.2-0.2 0.3 0.2 0.1 0.3 0.3 0.4 0.5 0 0.1 0.1 0.1 0.1 0.1zm-0.3-0.5zm0.1 0.2zm0-0.1c0 0.1-0.1-0.1 0 0zm17.4 1.9c0.2 0 0.3-0.1 0.3-0.3-0.1 0.1-0.3 0.2-0.3 0.3zm7.3 3.8c0 0.1 0 0.1 0.1 0.2h0.1c0-0.2-0.1-0.3-0.2-0.2zm-33.4-6.1c0.2 0 0.3-0.1 0.2-0.3h-0.2s-0.1 0.1 0 0.3zm32.2 0.2v0c0.1 0 0.2-0.1 0.2-0.2-0.2 0-0.3 0-0.1-0.1-0.1 0-0.2 0-0.2-0.1s0-0.1-0.1-0.2c0.1-0.1 0.2-0.1 0.1-0.3 0.1 0 0.2 0.1 0.2 0s-0.1-0.2-0.1-0.3c0.1 0 0.2 0 0.2-0.1-0.1-0.3 0.2-0.5 0.3-0.9-0.1-0.1-0.1-0.2-0.2-0.3 0.2 0 0.1 0 0.1-0.1 0.1 0 0.5-0.1 0.4-0.2v0.1c-0.1-0.2-0.5 0.1-0.6-0.1 0-0.1 0.1 0 0.1-0.1-0.1 0 0-0.1-0.1-0.1h0.1c-0.1-0.5-0.4-0.8-0.3-1.1-0.1 0.1-0.3-0.1-0.3-0.2-0.2 0-0.2-0.1-0.4-0.2 0-0.1 0.1 0 0.1-0.1h-0.3c-0.1-0.6-0.3-1.3-0.4-1.9l-0.1-0.1c-0.1-0.2-0.1-0.5-0.2-0.7 0-0.1 0.1-0.2 0.1-0.2 0-0.3-0.2-0.5 0-0.7-0.1-0.1-0.2-0.4-0.2-0.4-0.2 0.1-0.4 0-0.5-0.2 0 0 0 0.1-0.1 0.1-0.3-0.3-0.5-0.5-0.6-0.8l-0.1 0.1v-0.3c0-0.1-0.2 0-0.2-0.2 0-0.1 0.2-0.1 0.1-0.2 0-0.1-0.1-0.1-0.2-0.1 0.1-0.3 0.2-0.6 0.1-0.9l0.1-0.1c-0.1 0-0.2-0.1-0.3-0.2-0.1 0.2-0.1-0.1-0.2 0v-0.2c0-0.1-0.1 0-0.1-0.1-0.3 0.1-0.5 0-0.6-0.1l0.1-0.1c0-0.1-0.1-0.2-0.2-0.2-0.1 0.1-0.2 0.1-0.2 0.1v-0.2h-0.1v-0.1c0-0.1 0.1-0.1 0.2-0.2 0-0.1-0.1-0.1-0.1-0.2-0.1 0 0 0.1-0.1 0.1s0-0.1-0.1 0c0-0.1-0.1-0.3 0-0.3-0.1-0.1-0.2-0.1-0.2-0.3-0.2 0-0.3-0.2-0.4-0.4-0.1 0-0.2 0.1-0.2 0.1-0.1 0-0.1 0-0.2-0.1v-0.1c0.1 0 0.1 0.1 0.1 0-0.1 0-0.2 0-0.2-0.1v-0.2c0-0.1-0.2 0-0.2-0.2-0.1 0.1-0.4-0.1-0.4-0.2-0.2 0-0.3-0.1-0.4-0.2h-0.1c-0.2-0.3-0.3-0.6-0.3-0.9 0.3-0.1 0.3-0.6 0-0.6-0.1-0.2-0.1-0.5-0.2-0.6-0.3 0.1-0.7 0.5-1.1 0.4-0.3-0.1-0.6-0.4-0.9-0.4-0.2-0.3-0.7-0.2-0.9-0.3-0.1 0.1-0.2 0.1-0.2 0.1-0.1-0.1-0.2-0.1-0.2-0.3-0.1 0-0.1 0.1-0.2 0.1 0-0.1-0.1-0.1-0.1-0.1 0.1 0 0.1-0.1 0-0.1-0.2 0.2-0.3-0.1-0.5-0.2 0 0.1 0 0.1-0.1 0.1-0.3-0.2-0.7-0.1-1-0.2-0.2-0.2-0.6-0.3-0.8-0.5-0.1 0-0.2 0.1-0.2 0-0.1 0.1-0.3 0.1-0.3-0.1-0.2 0.2-0.5 0.1-0.6-0.1-0.1 0-0.3 0.1-0.4 0-0.1 0.1 0 0.1 0 0.1h-0.3c0-0.1 0-0.1-0.1-0.2 0 0.2-0.3 0.1-0.3 0-0.5 0.1-1.2 0.1-1.7-0.1-0.3 0.1-0.5 0.1-0.7 0-0.1 0.3-0.4 0.1-0.8 0.4 0-0.1 0-0.1-0.1-0.1s0 0.1 0 0.1c-0.2-0.1-0.2 0.1-0.4 0 0 0 0.1-0.1 0-0.1 0 0 0 0.1-0.1 0.1 0-0.1 0.1-0.2 0-0.1-0.2 0.4-0.7-0.1-1.1 0.3 0 0.2-0.2 0.2-0.3 0.3-0.1 0-0.3 0-0.4-0.1-0.2 0-0.3 0-0.4 0.1-0.1-0.1-0.2-0.1-0.2-0.2-0.2 0-0.3 0.1-0.3 0.3 0.1 0 0.1 0 0.1 0.1-0.1 0.1-0.3 0.2-0.5 0.2-0.1-0.1 0.1 0 0.1 0.1 0 0-0.1 0-0.1-0.1 0 0 0 0.1 0.1 0.1-0.1 0.1-0.2 0-0.3 0.2-0.1 0 0-0.1-0.1-0.1s-0.1 0.1 0 0.1c-0.4 0-0.6 0.3-0.9 0.1-0.1 0.2-0.3 0.3-0.6 0.4-0.3 0.4-0.9 0.8-1.3 1 0 0.1-0.2 0.3-0.3 0.2-0.1 0.1 0 0.1 0 0.2-0.1 0.1-0.2 0.1-0.2 0.2v-0.1c-0.1 0.1-0.3 0.1-0.4 0.2 0.1 0.2-0.1 0.4-0.4 0.4-0.1 0.4-0.2 0.5-0.3 0.5 0.1 0.1-0.1 0.1-0.1 0.1-0.1 0.3-0.3 0.5-0.4 0.9-0.1 0.2-0.5 0.4-0.7 0.7h-0.2c-0.1 0.1-0.1 0.5-0.3 0.4-0.1 0 0 0.1 0.1 0.1 0 0-0.1 0.1 0 0.1h-0.2c0 0.1 0 0.3-0.1 0.4-0.1 0-0.2 0.1-0.3 0.1-0.1 0.1-0.4 0.3-0.6 0.5h-0.2c-0.1 0.2-0.1 0.4 0 0.5l-0.3 0.6c-0.3 0.3-0.8 0.2-1.2 0.3 0 0.2 0.1 0.4 0.1 0.6-0.2 0.2 0 0.6 0.3 0.5 0.1 0.2 0.2 0.6 0.2 0.9l-0.1 0.1c0.1 0 0.1 0.2 0 0.3 0.1 0.1 0 0.4-0.2 0.4 0.1 0.2-0.1 0.1-0.1 0.2 0.1 0 0.1 0 0.1 0.1s-0.1 0.1-0.2 0.2c0 0.1 0 0 0.1 0v0.1c0 0.1 0 0.1-0.1 0.2-0.1 0-0.1-0.1-0.3 0 0 0.2 0 0.4-0.2 0.5 0.1 0.2 0 0.2 0 0.4 0.1 0 0.2 0.1 0.2 0.3-0.2 0 0 0.1-0.1 0.1-0.1 0.1-0.1-0.1-0.2 0v0.2c0.1 0 0.2 0 0.2 0.1l0.1 0.1s0 0.1-0.1 0.1l0.1 0.1c0 0.1-0.1 0.1-0.2 0.1 0 0.1-0.1 0.2 0 0.3h0.1c-0.1 0.2-0.2 0.4-0.4 0.5 0.1 0.1 0 0.1 0 0.2 0.1 0 0.1 0.1 0.1 0.1-0.2 0-0.1 0.2-0.2 0.1 0 0.1 0 0.2-0.1 0.3h0.1c0.1 0.3 0.3 0.5 0.6 0.7 0 0.1-0.2 0.1-0.1 0.2 0 0.1 0.1 0 0.2 0.1s-0.1 0.2 0 0.3 0.1 0.2 0.1 0.3h-0.1c0.1 0.3 0 0.6-0.1 1 0 0-0.1 0-0.1-0.1 0 0.2-0.1 0.3-0.3 0.4 0 0 0.1 0.3 0.1 0.5 0.3 0.1 0.2 0.3 0.4 0.6 0.1 0 0.2 0.1 0.2 0.1 0.1 0.2 0.2 0.5 0.2 0.7v0.1c0.2 0.6 0.4 1.3 0.7 1.8-0.1 0-0.2 0.1-0.2 0.1 0 0.1 0-0.1 0.1 0l-0.2 0.4c0.1 0.1 0 0.4-0.1 0.3 0.2 0.2 0.3 0.6 0.4 1.1h0.1c-0.1 0.1 0.1 0.1 0 0.2 0.1 0.1 0.1-0.1 0.2 0 0 0.2-0.4 0.2-0.4 0.4l-0.1-0.1c0 0.2 0.4 0.1 0.5 0 0.1 0 0 0.1 0.1 0v0.4c0.2 0.3 0.7 0.3 0.7 0.6 0 0.1 0.1 0.1 0.2 0 0 0.1 0.1 0.2 0.1 0.3 0.3-0.2 0.2-0.4 0.3-0.4 0.1 0.2 0.2 0.2 0.3 0.2v0.2c0 0.1-0.1 0.1-0.2 0.2 0.1 0 0.1 0.1-0.1 0.1 0.1 0.1 0.2 0 0.2-0.1 0 0 0.1 0 0.1 0.1-0.2 0.3-0.7 0.3-0.6 0.6 0.3-0.1 0.7-0.2 1-0.3l0.3-0.3s0.1 0 0.2-0.1 0.1-0.2 0.2-0.2c0.2 0.2 0.5 0.4 0.7 0.7 0.2 0 0.4 0.3 0.5 0.4 0.2 0.3 0.6 0.5 0.9 0.7 0.1 0.3 0.5 0.7 0.1 0.9 0.1-0.1 0.1 0.1 0 0.1 0.1 0 0.2-0.2 0.3-0.3 0.2 0.1 0.5 0.1 0.8 0 0.1 0.1 0.2 0.1 0.2 0.2 0.4-0.1 0.3 0.2 0.5 0.4 0.2-0.2 0.3 0.4 0.4 0.1 0.4 0.3 0.9 0.3 1.2 0.5 0.1 0.4 0.4 0.4 0.5 0.3 0.4-0.1 0.8 0.1 1.2 0.3 0.2 0 0.6 0.2 0.9 0.3 0 0 0 0.1 0.1 0.1v-0.1c0.1 0 0.3 0.1 0.4 0.1s0.1-0.1 0.2-0.1c0.2 0.1 0.6 0.1 0.7 0.1v0.1h0.4v0c0.2 0 0.3 0 0.4 0.1 0-0.1 0-0.1 0.1-0.1 0 0.1 0.1 0.1 0.2 0.2 0-0.2 0.3 0 0.4 0 0.1-0.1-0.1-0.1 0-0.1s0.2-0.1 0.2 0.1c0.1-0.1 0.3-0.2 0.3 0 0.2 0 0-0.2 0.2-0.2 0.1 0 0.2 0 0.1 0.1 0.1 0 0.2-0.1 0.2-0.1v0.1-0.1c0.1 0.1 0.1 0.1 0.1 0.2 0.2-0.2 0.3 0.2 0.3-0.1 0 0.1 0.2 0.1 0.1 0.2 0.1-0.1 0.1-0.2 0.2-0.3-0.1 0.1 0.1 0.2 0 0.2 0.2 0-0.1-0.2 0.1-0.2 0.2 0.1 0.1 0 0.3-0.1 0 0.1 0 0.2 0.1 0.2 0-0.1 0.1 0 0.1 0 0-0.1-0.2 0-0.2-0.2 0.1-0.1 0.3 0 0.4 0 0-0.1 0.1-0.1 0.1-0.2 0.1 0 0.1 0.2 0.2 0.1 0-0.1-0.2-0.1-0.1-0.1 0.3 0.1 0.3 0.1 0.6 0.1 0-0.2 0.1-0.1 0.3-0.3v0.1c0-0.1 0.2-0.1 0.2-0.3 0.1 0.1 0.2-0.1 0.3-0.1 0 0 0.1 0 0.1 0.1h0.1 0.1v-0.1c0.1 0 0.3 0.1 0.3 0 0.1 0.1 0.2 0 0.3 0.1 0.1 0 0 0 0-0.1 0.2 0 0.3-0.1 0.4 0 0.2-0.2 0.3-0.2 0.5-0.4 0.1 0-0.1 0.1 0 0.2 0.1 0 0-0.2 0.1-0.2s0.2 0 0.2 0.1c0-0.1 0.1-0.3 0.2-0.3v0.1s-0.1 0 0 0.1c0 0 0.1 0 0.1-0.1 0.7 0.4 1.7 0.7 2.5 1 0.3 0.2 0.8 1 1.3 0.5-0.3-0.5-0.9-0.5-1.4-0.7 0-0.4-0.6-0.2-0.6-0.6-0.4 0-0.8-0.3-1.3-0.4 0 0 0-0.1-0.1-0.1 0.2 0 0.2 0.1 0.3 0.1-0.1-0.1 0-0.1 0-0.2 0.1 0.2 0-0.1 0.3-0.1v-0.2s0.1 0 0.1 0.1v-0.1h0.3c-0.1 0 0-0.1 0-0.2 0.1-0.1 0.1 0.1 0.2 0.1-0.1-0.2 0.1-0.2 0.3-0.2-0.1-0.1 0.1-0.1 0.1-0.2 0.1 0 0 0.1 0.1 0.1s0.3-0.4 0.4-0.2c0-0.1 0.1-0.2 0-0.3h0.1c0-0.2 0.1-0.3 0.3-0.3 0 0 0.1 0 0 0 0.1-0.1 0.2-0.1 0.4-0.2l-0.1-0.1c0.1-0.1 0.4-0.2 0.6-0.5 0-0.1 0.2 0 0.2-0.1 0.1-0.1 0.2-0.3 0.3-0.3h0.1v0.1-0.1c0.2-0.2 0.4-0.6 0.6-0.7 0.3-0.3 0.5-0.8 0.8-0.9 0.2 0 0.4-0.2 0.3-0.5 0.1-0.3 0.5-0.6 0.7-1 0.2 0.2 0-0.3 0.2-0.3 0-0.3-0.1-0.5 0.2-0.6 0-0.1 0.1-0.2 0.1-0.3 0.3-0.1 0.5-0.2 0.6-0.4 0.1 0.1 0.3 0.2 0.4 0.1-0.1 0.1-0.1-0.1 0-0.1-0.5 0-0.4-0.5-0.4-0.8 0.1-0.4 0.3-0.7 0.3-1.1 0-0.2 0-0.5 0.2-0.6 0-0.3 0.1-0.6 0.2-0.9 0.1 0 0.2 0.1 0.3 0.1s0.1-0.1 0.2-0.1c0.2 0 0.3 0.1 0.4 0.1 0.4 0 0.7-0.2 1-0.3 0.3-0.6-0.1-0.3-0.4-0.5zm-9.4 11.5v0 0zm5.7-12.7c0 0.1-0.1 0-0.1 0 0.1 0.3 0.3 0.6 0.1 0.8 0.2 0.1 0 0.3 0.1 0.3-0.2 0.1-0.1 0.6-0.3 0.7 0.1 0.3-0.1 0.4 0 0.7 0 0.1-0.1 0.1-0.1 0.2v-0.1c-0.4 0.1-0.5 0.5-0.6 0.9 0.1 0.1 0.1 0.2 0.1 0.3-0.1 0.4-0.4 0.8-0.6 1.2-0.1-0.2-0.3-0.2-0.4-0.3-0.2 0.1-0.4 0.1-0.6 0.2v-0.1c-0.1 0-0.1 0.1-0.1 0.1 0.1 0 0.1 0.1 0.1 0.1-0.2 0.1-0.1 0.4-0.4 0.4 0.2 0.1 0 0.3 0 0.4s0.2 0.3-0.1 0.4c-0.1 0-0.1-0.1-0.1-0.1 0 0.1 0.1 0.1 0 0.2h-0.1s0.1-0.1 0-0.1c0 0 0 0.1-0.1 0.1s0-0.1-0.1-0.2c0.1-0.1 0.2-0.4 0-0.6-0.1 0-0.2 0.1-0.2 0 0 0.1-0.1 0.1-0.2 0.1-0.1 0.5 0.2 0.6 0.4 0.4 0 0.2-0.5 0.1-0.4 0-0.1 0.2-0.2 0-0.2 0.1-0.1 0 0-0.1-0.1-0.1-0.2 0.4-0.4 0.4-0.5 0.5 0 0.2 0.1 0.3 0 0.4 0 0-0.1-0.2-0.2-0.1 0.1 0 0.1 0.1 0.2 0.1 0 0.2-0.1 0.5-0.3 0.5 0 0.1 0.2 0 0.1 0.1-0.1 0 0 0.1-0.1 0.1h-0.2c-0.1 0-0.2 0.2-0.4 0.4-0.1-0.1-0.3 0.2-0.5 0.2 0 0.1 0 0.1-0.1 0.1h-0.1-0.1c-0.1 0.2-0.4 0.3-0.5 0.4l0.1 0.1h-0.1c0.2 0.1-0.1 0.2-0.2 0.1-0.1 0.1-0.2 0.2-0.4 0.1 0.1 0.1 0 0.1 0 0.2-0.1 0-0.3 0-0.3 0.2-0.1 0-0.2 0.1-0.3 0v0.2c-0.1 0.1-0.2 0-0.2 0.1-0.1 0 0-0.1 0-0.1-0.1 0.2-0.3 0.2-0.5 0.3-0.1 0-0.1 0.1 0 0.2-0.2-0.1-0.2 0.2-0.5 0.1 0 0.1 0 0.1-0.1 0.2h-0.1v0 0.1l-0.1 0.1c-0.1-0.1-0.2-0.1-0.2-0.2-0.2 0.2-0.3 0-0.5 0.1 0-0.1 0-0.1-0.1-0.1-0.2 0.1-0.4 0.2-0.6 0 0 0.1 0.1 0.1 0 0.1-0.1-0.1-0.1 0-0.2 0s-0.1-0.1-0.1-0.1c-0.1 0.1-0.1 0.1-0.2 0.1-0.1-0.1-0.2-0.1-0.3 0 0-0.1-0.1-0.1-0.1-0.2-0.1 0.1-0.2 0.2-0.4 0.1 0 0.1-0.3 0.2-0.2 0 0 0.1-0.1 0.1-0.1 0.1v-0.1c-0.1 0-0.5 0.1-0.7 0 0 0 0 0.1-0.1 0.1h-0.1c-0.1 0-0.1 0-0.1-0.1-0.1 0.1-0.4 0-0.5 0.1-0.2 0-0.4-0.1-0.5-0.1l-0.1 0.1c-0.1 0-0.1-0.1-0.1-0.1-0.1-0.1 0.1 0 0.1-0.1-0.2 0.2-0.4 0-0.5-0.1 0.1 0 0-0.2 0.1-0.2-0.1-0.1-0.1 0.1-0.1 0.1-0.1 0-0.1-0.2-0.2-0.3h-0.5c-0.1 0.1 0.1 0.1 0 0.2 0-0.1-0.1 0.1-0.2 0 0.1 0-0.2 0.3-0.3 0.2l-0.3-0.6c0 0.1-0.1 0.1-0.2 0.1-0.1 0.3 0.1 0.5 0.3 0.5 0 0.1 0.1 0.1 0 0.2s-0.1 0-0.2-0.1c-0.1 0 0.1 0 0.1 0.1v0.1c-0.1 0-0.1 0-0.1-0.1-0.1 0 0 0.1-0.1 0.1-0.3 0.1-0.2-0.2-0.3-0.3s-0.3-0.1-0.2-0.3c-0.2 0.2-0.3-0.2-0.5-0.1 0-0.1-0.1-0.1 0-0.1h-0.2s0.1 0 0.1 0.1c-0.2 0.1-0.4 0.1-0.6 0.2-0.1 0.2-0.2 0.3-0.2 0.5-0.4-0.2-0.8-0.4-1.2-0.7 0-0.1-0.1-0.2-0.1-0.3-0.3-0.2-0.6-0.5-1-0.4v0.1c-0.1 0-0.1-0.1-0.2-0.1-0.1-0.4-0.3-0.3-0.4-0.6-0.3 0-0.4-0.5-0.7-0.4 0.1-0.1-0.2-0.2-0.1-0.3-0.3 0-0.3-0.4-0.4-0.7l-0.1 0.1c0-0.3-0.5-0.4-0.4-0.7-0.2-0.1-0.3-0.3-0.5-0.5-0.2-0.6-0.6-1.4-0.9-2 0-0.1 0.2-0.1 0-0.2 0 0.1 0 0-0.1 0 0.2-0.5 0.2-0.7 0-0.9 0-0.4-0.2-0.7-0.1-1.1-0.3-0.5-0.3-1.3-0.6-1.8 0-0.1 0.1 0 0.1 0s-0.2-0.3-0.1-0.4c-0.1-0.3 0-0.6-0.1-1 0.1-0.1 0.1-0.3 0-0.4 0.1 0 0-0.2 0.2-0.3-0.3-0.4 0.2-0.7 0.3-1h-0.1c0-0.1 0.1-0.1 0.1 0-0.2-0.1 0-0.5 0.2-0.4-0.1-0.3-0.2-0.5-0.1-0.7 0-0.3-0.1-0.5 0.1-0.8-0.1-0.1 0-0.5 0.1-0.5-0.2-0.1 0-0.2 0.1-0.4s0.1-0.4 0.1-0.5 0.4-0.2 0.4-0.3c0 0-0.1 0-0.1-0.1 0.2 0 0-0.2 0.1-0.2h0.1c0 0.1 0 0.1 0.1 0.1 0-0.1 0.1-0.1 0.2-0.1-0.1-0.1 0-0.1 0-0.2l-0.2-0.2c0.1-0.2 0-0.5 0-0.6 0 0 0.1-0.1 0.1-0.2 0.1-0.2 0-0.2 0.1-0.3 0.2-0.1 0.3-0.2 0.4-0.3 0.1-0.2 0.2-0.3 0.3-0.5v-0.1c0.2-0.4 0.5-0.7 0.8-1-0.1-0.1 0.4-0.5 0.6-0.5 0.3-0.1 0.5-0.5 0.6-0.3 0.2-0.4 0.9-0.4 1.1-0.9 0.1 0.1 0.3 0.3 0.4 0.2-0.1 0 0.1-0.1 0.2-0.1v-0.5c0.1-0.1 0.1-0.2 0.2 0 0-0.1 0-0.1 0.1-0.2 0.1 0 0.2-0.1 0.3-0.1 0.1-0.1 0.4-0.2 0.7-0.3 0.2 0 0.3 0.1 0.5 0.1 0 0.1 0 0.2 0.1 0.2 0.3-0.1 0.3 0.1 0.4-0.1 0 0.1 0.1 0 0.2-0.1 0 0.2 0.3-0.1 0.5-0.1 0.1-0.1 0-0.1 0.1-0.2 0.1 0 0.1 0.1 0.2 0.1 0.1-0.1 0.5 0 0.4-0.2 0.1 0 0.3 0.1 0.2 0 0.2 0.1 0.1 0 0.4-0.1 0-0.1 0-0.2-0.1-0.2 0.2-0.1 0.2-0.2 0.4-0.3s0.6-0.1 0.7-0.1c0.1-0.1 0.2-0.1 0.3-0.1s0.1 0 0.2 0.1c0-0.2 0.3 0.1 0.3-0.1h0.1 0.2 0.1c0.1 0 0.1 0.1 0.1 0.1 0.1 0 0.1-0.1 0.2-0.1h0.1c0.4 0.3 1-0.1 1.4 0.2 0-0.1 0.4 0 0.7-0.1 0.2-0.1 0.8-0.1 0.8 0.1 0.5 0 0.9 0.2 1.2 0.3h0.1c0.2 0.1 0.4 0.2 0.5 0.3s0.3 0.1 0.4 0.1 0.1 0.1 0.2 0.2c0 0 0.2 0 0.2 0.1 0.1 0.1 0.1 0.4 0.3 0.5-0.1 0.1 0 0.1 0 0.3 0 0 0.1 0 0.1 0.1 0-0.1 0.1-0.2 0.2-0.1 0.1 0 0.1-0.1 0-0.2h0.1c0.1 0 0.1 0.2 0.2 0.1v0.1c0.1 0.1 0.4 0 0.6 0.1 0.1 0 0.2 0.2 0.4 0.3s0.3 0 0.3 0.3c0.1-0.1 0.4 0.2 0.3 0.4 0.3 0.1 0.3 0.4 0.5 0.6 0.2 0 0.2 0.3 0.3 0.6 0.1-0.1 0.5 0.1 0.4 0.3 0-0.1 0.1-0.1 0.1 0v0.1c0.2 0.2 0.7 0.2 0.7 0.7 0.2 0 0.2 0.2 0.3 0.2 0 0.2 0.1 0.3 0.2 0.3 0.1 0.4 0.4 0.6 0.4 0.9 0.2 0 0.2 0.3 0.1 0.3 0.1 0 0.1-0.1 0.1 0 0 0.6 0.5 1.2 0.5 1.8 0.3 0.3 0.3 0.7 0.5 1-0.1 0.2 0 0.4 0.1 0.7-0.1 0-0.1 0.1-0.1 0-0.2 0 0-0.1 0 0 0.1 0.7 0.2 1.6 0.4 2.2 0 0.2-0.1 0.4-0.1 0.7 0.2 0.1-0.2 0.5 0 0.7zm4.6-1.5v0.1c0.1 0 0.1 0 0.1-0.1 0 0 0 0.1 0.1 0.1 0-0.1-0.1-0.1-0.2-0.1zm-6.3 0.6v0.1c0.2 0 0.2-0.1 0.1-0.2 0 0-0.1 0-0.1 0.1zm-1.5-0.3c0 0.3 0 0.7-0.2 0.9 0 0.1 0.1 0.1 0.1 0.2l0.1-0.1c0-0.2 0.1-0.5 0.3-0.7-0.2-0.1-0.2-0.4-0.3-0.3zm-0.1 0.5c0.1-0.1 0 0.1 0 0zm0.1 0.1zm-0.3 1.1c-0.1 0-0.1 0.1-0.1 0 0.1 0 0.1-0.1 0.2-0.1 0-0.1-0.1-0.1-0.1-0.1-0.2 0.1-0.3 0.2-0.2 0.3-0.1 0.1-0.3 0.6 0.1 0.5 0.1-0.1 0.3-0.5 0.1-0.6zm-0.1-0.1c0 0.1-0.1 0 0 0zm0 0.5v0zm0-0.3c-0.1 0 0.1 0 0 0zm0.7-6.2c0 0.1 0 0.2 0.1 0.2 0 0 0.1-0.1 0.1-0.2-0.1 0-0.2-0.1-0.2 0zm0 0.1c0.1 0 0-0.1 0 0zm-17.6-2c0.1 0 0 0 0 0 0.3-0.1 0.6-0.6 0.6-0.7 0.1-0.1-0.1-0.1 0-0.1 0.1 0.1 0.1-0.1 0.1-0.1-0.1 0-0.1 0.1-0.2 0.1 0 0.3-0.3 0.4-0.3 0.6h-0.1c0 0.2-0.2 0.3-0.1 0.2zm0.5-0.6c-0.1-0.1 0.1 0 0 0zm-0.1 0c0.1 0 0.1 0.2 0 0zm-0.1 0.2c0 0.1 0.1-0.1 0 0zm-0.1 0.1c0.1 0.1 0 0.1 0 0zm0 0.2v0 0zm27.1 13c0.2 0 0.3-0.3 0.4-0.3-0.1-0.8-1.2 0-0.4 0.3zm-1.3-4.7c-0.1 0.2 0.1 0.3 0.3 0.2 0-0.1-0.1-0.3-0.3-0.2zm-9.3 3.8zm-5.4 2.2s0.1 0 0 0zm14.8-8.2c-0.2 0-0.3-0.1-0.4-0.2-0.1 0.1-0.3 0.2-0.3 0.4 0.3 0 0.3 0.3 0.7 0.1v-0.3zm1.5 0.9c0.2 0 0.4 0 0.4-0.2-0.1 0-0.4 0.1-0.4 0.2zm-11.8 3.3c0.1 0.1-0.1 0 0 0zm-1 2.1c0.2 0.1 0.3 0 0.3-0.1-0.1-0.1-0.3 0-0.3 0.1zm0.5 0.2zm0-0.8s0.1 0 0 0zm-0.5 2.6v0 0zm0-3c-0.1 0.1 0 0 0 0zm-2.3 2.2zm0.9-0.6zm1.1 1.4v0zm1.9-5.2v0.1c0.1 0 0.2 0 0.1-0.1s-0.1-0.1-0.1 0zm-1.5 0.2h0.1c0.1-0.2 0.2-0.4 0.4-0.5 0-0.1 0-0.3-0.2-0.3-0.1 0.2-0.2 0.6-0.4 0.7 0 0 0 0.1 0.1 0.1zm0.3-0.5v0zm-0.1 0.2zm0-0.1c0-0.1-0.1 0 0 0zm0.3-3.3c0-0.1 0.2 0 0.2-0.3-0.1 0-0.2-0.1-0.2 0.1 0.1-0.1-0.1 0 0 0.2zm0.9 0.2c0-0.4 0-0.7-0.1-1v-0.1-0.1-0.1h0.1c0-0.1-0.1-0.2-0.1-0.2 0-0.3-0.1-0.5-0.1-0.8-0.1 0-0.1-0.1-0.1-0.1 0-0.5-0.3-0.8-0.4-1.2-0.1-0.1-0.2-0.3-0.2-0.4h-0.1c-0.1-0.3-0.2-0.4-0.3-0.6-0.1-0.3-0.3-0.5-0.5-0.8-0.3-0.2-0.5-0.5-0.7-0.7-0.1 0-0.2 0-0.2 0.1 0 0.2 0.2 0.4 0.3 0.6v0.1c-0.1 0.1 0 0.3 0.1 0.3-0.1 0.1 0.1 0.1 0.1 0.3 0.1 0 0.1 0.1 0.1 0.1 0.1 0.2 0.2 0.4 0.3 0.5 0.2 0.4 0.5 0.9 0.6 1.3 0.1 0 0.1 0.2 0.2 0.1 0.1 0.2 0.2 0.5 0.2 0.7v0.1s0.1 0.2 0 0.2v0.1c0.1 0.4 0.2 1.1 0.1 1.3 0.2 0.4-0.2 1.2-0.2 1.8h0.1c0 0.1 0 0.1 0.1 0.1h0.1c0 0.3-0.1 0.6-0.1 0.8s0 0.4 0.2 0.5c0.1-0.5 0.4-1 0.2-1.6 0.4-0.5 0.3-1 0.3-1.3zm-2.5-5.8c0.1-0.1 0.1 0 0 0zm0.3 0.5c-0.1 0.1-0.1-0.1 0 0zm0.8 1.3zm1.1 6.2zm0.5-3v0.2l0.1-0.1c0-0.1 0-0.1-0.1-0.1zm0.1 0.1s-0.1 0 0 0zm-0.8 3.8c-0.1 0-0.1 0.1-0.1 0.2-0.1 0.1-0.4 0.4-0.4 0.6v0.1c-0.1 0.3-0.4 0.5-0.5 0.7 0 0.2-0.2 0.3-0.2 0.4-0.3 0.3-0.9 0.5-1.2 0.9 0 0.1 0 0.1-0.1 0.2-0.1 0.3-0.2 0.4-0.4 0.5 0 0.1-0.1 0.3-0.2 0.2-0.1 0.2-0.3 0.3-0.5 0.3-0.3 0.3-0.8 0.5-1.3 0.7-0.1 0.1-0.4 0.1-0.7 0.2-0.1 0-0.1 0.1-0.2 0.2-0.1 0-0.3 0-0.4 0.1-0.3 0.1-0.4 0.3-0.7 0.2-0.1 0-0.3 0-0.4-0.1v0.1c-0.2 0-0.3 0-0.5 0.1 0 0.1 0.1 0.1 0.2 0.2 0.2 0.1 0.4-0.1 0.5-0.1s0.2 0.1 0.3 0.1 0.2-0.1 0.3-0.2c0.1 0 0.3 0 0.3 0.1 0.2-0.1 0.4-0.1 0.6-0.2l0.8-0.3c0.4-0.1 0.8-0.4 1.2-0.5 0.1-0.1 0.3-0.2 0.6-0.3 0.1-0.2 0.3-0.4 0.6-0.3 0-0.2 0.3-0.1 0.3-0.3 0.4-0.1 0.6-0.4 0.8-0.7v-0.1c0.2-0.1 0.1-0.5 0.3-0.6l0.3-0.6v-0.1c0.2-0.2 0.2-0.4 0.4-0.6 0.1-0.3 0.3-0.8 0.3-1.1zm-7.4 5.7s0.1 0 0 0zm1.2-0.3s0.1 0 0 0zm5.8-4.5s0.1-0.1 0 0zm0.2-0.5zm0.3 3.7v0zm-1.5-3.2c-0.1 0.1-0.4 0.4 0 0.4 0.1-0.1 0.4-0.4 0.2-0.5 0-0.1-0.1 0-0.1 0 0.1 0 0.1-0.1 0.2 0v-0.1c-0.2 0-0.3 0.1-0.3 0.2zm0.1 0c0.1 0.1-0.1 0 0 0zm0.1-0.1s-0.1-0.1 0 0zm1.3 0.2c-0.1 0-0.1-0.1 0 0v0.1c-0.1-0.1-0.1 0-0.1-0.1-0.1 0.1-0.2 0.1-0.2 0.2h0.3v-0.2zm-0.3 0.1v0s0.1-0.1 0.1 0 0 0-0.1 0zm-12.8 5.5c-0.1 0 0 0.1 0 0v0zm2.9-12.5s-0.1 0 0 0zm0.4-5.4c0.1 0.1 0.1-0.1 0 0zm0.1-0.2c-0.1 0-0.2 0-0.3 0.1 0.2 0.1 0.3 0 0.3-0.1zm-0.5 11.9c-0.1-0.1 0 0 0 0zm0-6.5c0 0.1 0.1 0.1 0.2 0 0.1 0 0.2-0.1 0.3-0.1 0 0-0.1 0 0 0 0 0 0.2 0 0.1-0.1h0.1-0.1l0.1-0.1c-0.3 0-0.5 0.1-0.7 0.3zm0.7-0.2c0 0.1-0.1 0 0 0-0.1 0-0.1 0 0 0zm-1.2-4.6c0.2 0.1 0.5-0.2 0.8-0.2 0-0.1 0.1-0.1 0.1-0.2-0.1-0.1-0.2 0-0.3 0 0 0 0-0.1 0.1-0.1v-0.1s-0.1 0.1-0.1 0c-0.1 0.2-0.5 0-0.5 0.3 0-0.1 0.1 0.1 0.2 0l-0.1 0.1c-0.1 0.1-0.1 0.2-0.2 0.2zm0.7-0.4zm-0.3 5.4v0c-0.1 0.1-0.2 0.1-0.2 0.2 0 0 0.2-0.1 0.2-0.2v0s-0.1 0 0 0zm-0.2 0.2zm0-0.1v0zm0.1-0.1c0.1 0 0 0.1 0 0zs0.1 0.1 0 0zm0.4 2.6v0c-0.1 0.2 0 0.3-0.2 0.4 0.1 0 0.3 0.2 0.4 0-0.1-0.1 0-0.1 0.1 0 0-0.1-0.1-0.1 0-0.2-0.1 0-0.1-0.2-0.3-0.2zm-0.1 3.7zm-0.3-6.4c-0.1 0 0 0 0 0-0.1 0-0.1 0 0 0-0.1 0.1-0.2 0.1-0.2 0.1v0.1c0.1-0.1 0.2-0.1 0.2-0.2zm-0.3 0.2c0.1-0.1 0.1-0.1 0 0v0s0.1 0 0 0zs0.1 0 0 0c0.1 0 0 0 0 0zm0.1-0.1v0zm0 0.2zm-0.1 5.7s-0.1 0.1 0 0zm0.1-5.7v0zm0.2 6.3zm-0.1-3.4v0zm-0.2 2.7v0c-0.1 0.1-0.1 0 0 0-0.1 0-0.1 0 0 0-0.1 0.1-0.1 0.1 0 0v0zm0 0.1v0 0zm0 2.1c0.1 0 0 0 0 0 0.1 0 0-0.1 0 0zm0.8-0.6zm1.1 0c-0.1 0.1-0.2 0-0.3-0.1h-0.2l-0.1-0.1c-0.1 0-0.2 0-0.3-0.1l-0.6-0.3c-0.1 0-0.2-0.1-0.2-0.1-0.1 0-0.1 0-0.1-0.1-0.1-0.1-0.2-0.1-0.2-0.3-0.1 0 0 0-0.1-0.1-0.2-0.2-0.4-0.3-0.6-0.4 0-0.1-0.1-0.1-0.1-0.2s-0.2-0.2-0.2-0.4c0-0.1-0.1-0.3-0.2-0.3v-0.1c0 0.2 0.1 0.4 0.2 0.6l0.1 0.1c-0.1 0-0.1-0.1-0.2 0v0.3c0.1 0.1 0.2 0.2 0.3 0.2 0.1-0.1 0-0.2 0.2-0.1 0 0.1 0.1 0.1 0.1 0.2 0.1 0 0.1 0.2 0.2 0.3s0.2 0.3 0.4 0.3c0 0.1 0.1 0.1 0.1 0.1 0.1 0 0.2 0.1 0.3 0.2 0.1 0 0.2 0.1 0.3 0.2 0.2 0.1 0.4 0.2 0.6 0.2-0.1 0-0.1 0.1-0.1 0.1 0 0.2 0.4 0.3 0.5 0v-0.1c0.1 0 0.2 0.1 0.3 0.1h0.1s0.1 0.1 0.2 0.1h0.1c0.1 0 0.1 0.1 0.2 0l0.1-0.1c-0.1-0.1-0.1-0.1-0.2-0.1h-0.6zm-3.1-2.4zm0.1 0.2c-0.1 0 0 0 0 0zm2.7 2.2zm0.6 0.1zm0.9-8c0.1 0 0.1 0 0.1-0.1v0.1c0.1 0 0.3 0.1 0.4 0.1v-0.1c0-0.1-0.2 0-0.2-0.1h-0.1-0.1-0.1v0.1-0.1c-0.1 0 0 0 0 0.1v0zm-1.1 11.6s-0.1 0 0 0zm-0.3-16.7l0.1 0.1-0.1 0.1c0.1 0.1 0.2 0.1 0.4 0.1 0-0.1 0.1-0.1 0.2-0.1h0.3 0.1s0-0.1 0.1 0c0 0 0.1 0 0.1 0.1s0.1 0.1 0.1 0.2c0 0 0-0.1 0.1-0.1s0.2 0 0.2-0.1v0.1c0.1 0 0.3-0.1 0.4-0.1h0.1-0.1c-0.1-0.1-0.3-0.1-0.5-0.1h-0.2c-0.5-0.3-1-0.3-1.3-0.2zm2.7 11.8v0zm-0.1 1.2h-0.1c-0.1 0.2 0.2 0.3 0.1 0.2s0-0.2 0-0.2zm-0.2-0.1v0zm0.2-1zm-9.4-9.4zm6.7 13.3c0.4-0.5-0.2-0.9-0.6-0.7v0c0 0.5 0.1 0.7 0.6 0.7zm-2.9-1.1zm-0.2-0.2s0.1 0.1 0 0zm0-13.6c0 0.2 0.3 0.3 0.4 0.1 0.2-0.1 0.4-0.1 0.6-0.2h0.1v-0.1h0.1 0.1v0.1h-0.1c0.1-0.1 0.3 0 0.2-0.1 0.1 0.1 0.2 0 0.3-0.1 0 0-0.2-0.1-0.1 0h-0.1v-0.1c0.1-0.1 0.1-0.2 0.1-0.3-0.6 0.1-1.1 0.4-1.6 0.7zm1.2-0.2zm0 0.1zm0.3-0.2c0 0.1 0 0-0.1 0h0.1zm0 13zm0-9.4c0-0.1 0.2 0 0.1-0.2-0.3-0.1-0.9-0.3-1.3-0.3 0.4 0.2 0.9 0.2 1.2 0.5zm0.6 9.1c0.1 0 0 0 0 0-0.2 0-0.4 0-0.4 0.1 0.1 0.1 0.2 0 0.3-0.1 0 0.1 0.1 0.1 0.1 0zm-0.3 0.1c0.1 0 0 0 0 0zm0.1 0zm-1.4-1.4c0 0.1 0.1 0.1 0.2 0.1-0.1-0.1-0.2-0.1-0.2-0.1zm-0.2 1.3c0-0.1-0.1 0.1 0 0-0.1-0.1-0.2-0.1-0.2 0 0.1 0.1 0.1 0 0.2 0zm-0.5-2.8s0.1 0 0 0c0.1 0 0.1 0 0 0zm0.1 5zm-0.4-15.9v0zm0.1-0.1v-0.1c-0.1 0-0.3 0.1-0.3 0.2 0.1 0 0.2-0.1 0.3-0.1zm-0.3 2.2v0 0zm2 9.4s0.1 0 0 0zm-1.5-2.5v0zm-0.4-0.6zv0zm-0.1-6.1c-0.1-0.1-0.1 0.1 0 0zm-0.9 0.3s-0.1 0 0 0c-0.1 0 0 0 0 0zm1.3-1.1c-0.1 0-0.1 0.1-0.2 0.1 0 0 0.1 0 0.2-0.1-0.1 0.1-0.1 0.1-0.1 0.2-0.1 0 0-0.1-0.1-0.1 0 0.1-0.1 0.1-0.2 0 0.1 0.1 0 0.1 0 0.2 0.2 0 0.3 0 0.4-0.3zm-1 8.4v0zm-1.6-7.7v0c-0.1-0.1-0.1 0 0 0zm2-0.3s0.1 0 0 0c0.1 0 0.2 0 0 0 0.1-0.1 0.1-0.1 0 0 0.1-0.1 0.1-0.1 0 0 0 0-0.1 0-0.1 0.1 0.1 0 0.2-0.1 0.1-0.1zc0 0.1 0.1 0 0 0 0 0.1-0.1 0.1 0 0zm-0.4 11.4c0 0.1 0.1 0 0 0zm0.4 0.8c0-0.1-0.1-0.1-0.2-0.1 0.1 0.1 0 0 0 0.1 0 0-0.1-0.1 0-0.1h-0.1v0.2c0.2 0 0.2 0 0.3-0.1zc-0.1 0-0.1 0 0 0-0.1-0.1-0.1 0 0 0zm-0.2 0.2c0.1-0.1 0 0 0 0zm0.8 1.1zm0.8-4.8c-0.1 0-0.1 0.1-0.1 0.1 0.1 0 0.1 0.1 0.2 0.2h0.1v-0.1c-0.2 0.1-0.2-0.1-0.2-0.2zm0 0.3zm0-0.1c0.1 0 0 0 0 0zm2.2-5.2c0.1 0 0.3-0.1 0.4-0.1v-0.1h-0.2v-0.1c-0.1 0.1-0.2 0-0.2 0.1h0.1-0.1v0.2zm0.3-5.3c-0.1 0-0.3 0-0.3 0.2h0.1c0.1 0 0.1-0.1 0.1 0 0.1 0 0 0 0-0.1 0.1 0 0.1 0 0.1-0.1zm0.4 5s-0.1 0-0.1 0.1l0.1-0.1c-0.1 0.1-0.1 0.1 0 0v0 0.1-0.1 0zm-2.2 1.1zm1.9-1c0 0.1 0.1 0.1 0.2 0.1 0 0 0-0.1-0.1-0.1h-0.1zm-3.4-3.6c-0.1 0.2-0.4 0.2-0.4 0.4h-0.1s-0.1 0.1 0 0.1c0 0 0-0.1 0.1-0.1 0.2 0.1 0.5-0.3 0.6-0.3 0 0-0.2 0-0.2-0.1 0.1 0.1 0.2 0 0.2 0-0.1-0.1-0.1 0.1-0.2 0zm-0.3 0.3v0 0zc0.1 0-0.1 0.1 0 0zm0.1-0.1c0 0.1 0.2 0 0 0zm0.2-0.1c0.1 0 0 0.1 0 0zc0-0.1 0.1 0 0 0zm1.1 9.4v0c-0.1 0 0.1 0.2 0.1 0.2 0.1 0 0-0.2-0.1-0.2 0.1-0.1 0-0.1 0 0-0.1-0.1-0.1-0.1 0 0-0.1-0.1 0 0 0 0v0zm0 0.1c0.1 0 0-0.1 0 0zm0-0.2zm0 0.1v0zm-0.8-9.5v0 0zm1.1 4.9zm1.9-1.3h0.1-0.1zm-3.1-5.6c0.1 0 0.1-0.1 0.1 0 0.1 0 0-0.1 0-0.1v-0.2c-0.1 0.1-0.3 0.1-0.2 0.3h0.1zm1-1.6h-0.2c0.1 0 0.3-0.1 0.2 0-0.2-0.1-0.3-0.1-0.3 0 0.1 0.1 0.2 0.1 0.3 0zm-1 1.8c-0.1-0.1-0.1-0.2-0.2-0.2s-0.2 0.1-0.2 0.2c0.1 0.1 0.3 0.1 0.4 0zm0.5-0.5v0.1h0.5c0-0.1 0.1-0.1 0.1-0.2 0.1 0 0.2-0.1 0.3-0.2h0.1s0-0.1 0.1-0.1c0.2 0 0.5 0.1 0.6-0.1 0 0 0.1 0 0.1 0.1 0.1-0.1 0.3-0.2 0.4-0.3l0.1-0.1h-0.1c-0.1-0.1-0.4 0-0.6 0.1-0.1 0-0.2 0.1-0.3 0.1-0.4 0-1 0.2-1.4 0.5 0 0.1 0 0.1 0.1 0.1zm2.7-0.6v0.1c0.2 0 0.3-0.1 0.3-0.2h0.1c0 0.1 0.1 0.1 0.1 0.2 0.3-0.1 0.8 0.1 1-0.1-0.1 0-0.1-0.1-0.1-0.2-0.1-0.3-0.5 0-0.7-0.1 0 0.1 0 0-0.1 0.1h-0.2c-0.1-0.1-0.2 0-0.3 0h-0.2c0.1 0.1 0.1 0.1 0.1 0.2 0-0.1-0.1-0.1-0.2-0.1h-0.1c-0.1 0.1 0.1 0.2 0.3 0.1zm1.4 0zm-1.1-0.2zm-0.9 1.9c0.1 0.1 0.2 0.1 0.3 0.1 0-0.1-0.1-0.1-0.1-0.2-0.1 0-0.2 0-0.2 0.1zm0.6 4.8v0z" fill-rule="evenodd"/>
</svg>
