<?xml version="1.0" encoding="utf-8"?>
<!-- Generator: Adobe Illustrator 18.0.0, SVG Export Plug-In . SVG Version: 6.00 Build 0)  -->
<!DOCTYPE svg PUBLIC "-//W3C//DTD SVG 1.1//EN" "http://www.w3.org/Graphics/SVG/1.1/DTD/svg11.dtd">
<svg version="1.1" id="Warstwa_1" xmlns="http://www.w3.org/2000/svg" xmlns:xlink="http://www.w3.org/1999/xlink" x="0px" y="0px"
	 viewBox="0 0 211 82" enable-background="new 0 0 211 82" xml:space="preserve">
<g>
	<path d="M186,17.5c0.3,0,0.6,0.1,0.8,0.3c0.2,0.2,0.3,0.5,0.3,0.8v29.1c0,0.3-0.1,0.6-0.3,0.8c-0.2,0.2-0.5,0.3-0.8,0.3v0.3h9.5
		v-0.3c-0.3,0-0.6-0.1-0.8-0.3c-0.2-0.2-0.3-0.5-0.3-0.8V18.7c0-0.3,0.1-0.6,0.3-0.8c0.2-0.2,0.5-0.3,0.8-0.3v-0.3H186V17.5z
		 M170.4,27c0.3,0,0.6,0.1,0.8,0.3c0.2,0.2,0.3,0.5,0.3,0.8v19.7c0,0.3-0.1,0.6-0.3,0.8c-0.2,0.2-0.5,0.3-0.8,0.3v0.3h9.5v-0.3
		c-0.3,0-0.6-0.1-0.8-0.3c-0.2-0.2-0.3-0.5-0.3-0.8V28.1c0-0.3,0.1-0.6,0.3-0.8c0.2-0.2,0.5-0.3,0.8-0.3v-0.3h-9.5V27z M210.2,17.9
		c0.2-0.2,0.5-0.3,0.8-0.3v-0.3h-9.5v0.3c0.3,0,0.6,0.1,0.8,0.3c0.2,0.2,0.3,0.5,0.3,0.8v29.1c0,0.3-0.1,0.6-0.3,0.8
		c-0.2,0.2-0.5,0.3-0.8,0.3v0.3h9.5v-0.3c-0.3,0-0.6-0.1-0.8-0.3c-0.2-0.2-0.3-0.5-0.3-0.8V18.7C209.9,18.4,210,18.1,210.2,17.9z
		 M139.7,47.8V21.3c0-1.5-0.2-2.5-0.7-3.1c-0.5-0.6-1.3-0.9-2.6-0.9h-5.2v0.3c0.3,0,0.6,0.1,0.8,0.3c0.2,0.2,0.3,0.5,0.3,0.8v9.9
		c-0.6-0.3-1.3-0.7-2.2-1.2c-0.9-0.4-2-0.7-3.3-0.7c-1.2,0-2.3,0.3-3.3,0.8c-1,0.5-1.9,1.3-2.7,2.2c-0.8,1-1.4,2.1-1.8,3.5
		c-0.4,1.4-0.6,2.9-0.6,4.7c0,1.8,0.2,3.4,0.7,4.8c0.5,1.4,1.1,2.6,2,3.6c0.8,1,1.8,1.7,3,2.2c1.1,0.5,2.4,0.7,3.7,0.6
		c1-0.1,1.9-0.3,2.7-0.8c0.8-0.5,1.5-1,1.9-1.7c0.2,0.9,0.5,1.5,1,1.9c0.5,0.4,1.2,0.6,2.2,0.6h5.2v-0.3c-0.3,0-0.6-0.1-0.8-0.3
		C139.8,48.4,139.7,48.1,139.7,47.8z M131,47.5c-0.5,0.3-1,0.6-1.5,0.6c-1.2,0.2-2.2-0.6-2.9-2.3c-0.7-1.7-1-4.3-1-7.9
		c0-1.8,0.1-3.3,0.3-4.5c0.2-1.2,0.5-2.2,0.8-3c0.4-0.8,0.8-1.3,1.3-1.7c0.5-0.3,1-0.6,1.6-0.6c0.5,0,1,0,1.4,0.2
		c0.4,0.2,0.8,0.4,1.2,0.6v16.7c0,0.2,0,0.3,0,0.5C131.9,46.7,131.5,47.2,131,47.5z M175.3,24.4c1,0,1.9-0.3,2.6-1
		c0.7-0.7,1.1-1.6,1.1-2.6c0-1-0.4-1.8-1.1-2.5c-0.7-0.7-1.6-1.1-2.6-1.1c-1,0-1.8,0.4-2.5,1.1c-0.7,0.7-1.1,1.6-1.1,2.5
		c0,1,0.4,1.9,1.1,2.6C173.5,24,174.3,24.4,175.3,24.4z M163.1,27.2c-0.7-0.4-1.5-0.6-2.3-0.6c-0.8,0-1.6,0.1-2.3,0.3
		c-0.7,0.2-1.4,0.5-2.1,0.9c-0.6,0.3-1.1,0.7-1.5,0.9c-0.3-1.3-1.4-2-3.1-2h-5.1V27c0.3,0,0.6,0.1,0.8,0.3c0.2,0.2,0.3,0.5,0.3,0.8
		v19.7c0,0.3-0.1,0.6-0.3,0.8c-0.2,0.2-0.5,0.3-0.8,0.3v0.3h9.5v-0.3c-0.3,0-0.6-0.1-0.8-0.3c-0.2-0.2-0.3-0.5-0.3-0.8V30.7
		c0-0.8-0.1-1.3-0.2-1.7c0.2-0.2,0.4-0.3,0.7-0.5c0.3-0.2,0.5-0.3,0.8-0.4c0.2-0.1,0.5-0.2,0.7-0.2c0.2,0,0.4,0,0.5,0.1
		c0.2,0.1,0.2,0.3,0.2,0.5c0,0.2-0.1,0.4-0.1,0.7c-0.1,0.3-0.1,0.6-0.1,0.9c0,0.3,0,0.7,0.1,1.1c0.2,1,0.8,1.7,1.7,2.2
		c0.9,0.5,1.8,0.6,2.7,0.4c1-0.3,1.7-0.8,2.2-1.7c0.5-0.8,0.6-1.8,0.4-2.7C164.5,28.5,164,27.7,163.1,27.2z M47.2,35.7
		c0-1-0.2-2.1-0.7-3.1c-0.5-1.1-1.2-2-2-2.9c-0.9-0.8-1.9-1.5-3.1-2.1c-1.2-0.5-2.5-0.8-4-0.8c-1.6,0-3.1,0.3-4.3,0.9
		c-1.3,0.6-2.4,1.4-3.3,2.4c-0.9,1-1.6,2.2-2,3.6c-0.5,1.4-0.7,2.8-0.7,4.4c0,1.6,0.2,3,0.7,4.4c0.5,1.4,1.2,2.6,2,3.6
		c0.9,1,2,1.8,3.3,2.4c1.3,0.6,2.7,0.9,4.3,0.9c1.2,0,2.3-0.2,3.4-0.5c1.1-0.3,2-0.8,2.8-1.3c0.8-0.6,1.4-1.2,1.9-2
		c0.5-0.7,0.7-1.6,0.7-2.4c0-1-0.4-1.8-1.1-2.5c-0.7-0.7-1.6-1.1-2.5-1.1c-1,0-1.9,0.4-2.6,1.1c-0.7,0.7-1.1,1.6-1.1,2.5
		c0,1,0.4,1.9,1.1,2.6c0.2,0.2,0.5,0.5,0.8,0.8c0.3,0.3,0.3,0.6,0.2,1.1c-0.2,0.6-0.5,1-1.2,1.2c-0.6,0.2-1.2,0.3-1.7,0.3
		c-0.7,0-1.3-0.1-1.8-0.4c-0.5-0.3-0.9-0.7-1.3-1.3c-0.3-0.6-0.6-1.4-0.8-2.5c-0.2-1-0.3-2.3-0.3-3.9v-5.3H47.2z M34.1,35.1
		c0-2.4,0.2-4.2,0.5-5.3c0.4-1.2,0.9-2,1.7-2.4c0.1,0,0.2-0.1,0.3-0.1c0.2-0.1,0.4-0.1,0.6-0.1c0.2,0,0.4,0,0.6,0.1
		c0.2,0.1,0.3,0.1,0.3,0.1c0.5,0.3,1,0.8,1.3,1.4c0.3,0.6,0.6,1.2,0.7,2c0.2,0.7,0.2,1.5,0.3,2.3c0,0.8,0,1.6,0,2.4h-6.5V35.1z
		 M20.1,18.3c-1,0-2,0.3-2.9,0.8c-0.9,0.6-1.7,1.3-2.3,2.3c-0.7,1-1.2,2.1-1.6,3.4c-0.2,0.7-0.4,1.4-0.5,2.1c-0.6-0.1-1.3-0.2-2-0.2
		c-1.5,0-2.8,0.2-3.9,0.7c-1.1,0.4-2.1,1-2.9,1.6c-0.8,0.7-1.4,1.5-1.8,2.4c-0.4,0.9-0.6,1.8-0.6,2.8c0,2.1,0.8,3.9,2.5,5.2
		c-1.2,0.2-2.1,0.8-2.9,1.7c-0.8,0.9-1.2,2-1.2,3.2c0,1.1,0.3,2,0.9,2.9c0.6,0.8,1.3,1.5,2.3,1.8c0.7,0.3,1.6,0.5,2.5,0.7
		c1,0.2,2,0.3,3,0.4c1.1,0.1,2.1,0.2,3.2,0.3c1,0.1,2,0.3,2.9,0.5c0.9,0.2,1.7,0.7,2.3,1.5c0.6,0.7,0.9,1.6,0.9,2.6
		c0,0.7-0.1,1.5-0.4,2.2c-0.3,0.7-0.7,1.4-1.3,1.9c-0.6,0.6-1.3,1.1-2.3,1.4c-0.9,0.4-2.1,0.5-3.4,0.5c-0.5,0-1,0-1.7-0.1
		c-0.7-0.1-1.3-0.2-1.9-0.4c-0.6-0.2-1.1-0.4-1.5-0.8c-0.4-0.3-0.6-0.8-0.6-1.4c0-0.5,0.1-0.9,0.4-1.3c0.3-0.3,0.5-0.6,0.7-0.8
		C6.5,56.4,6.8,56,7,55.6c0.2-0.4,0.3-0.9,0.3-1.4c0-1-0.4-1.9-1.1-2.6c-0.7-0.7-1.6-1.1-2.6-1.1c-1,0-1.9,0.4-2.6,1.1
		C0.4,52.4,0,53.2,0,54.2c0,1,0.3,2,0.8,2.9c0.6,0.9,1.3,1.7,2.3,2.4c1,0.7,2.1,1.2,3.4,1.6c1.3,0.4,2.7,0.6,4.2,0.6h0
		c1.5,0,2.9-0.2,4.2-0.6c1.3-0.4,2.4-1,3.4-1.8c1-0.8,1.7-1.8,2.3-2.9c0.6-1.1,0.8-2.4,0.8-3.9c0-2.6-1-4.7-2.9-6.3
		c-1.9-1.7-4.5-2.6-7.8-2.9c-0.7-0.1-1.5-0.1-2.2-0.2c-0.7,0-1.4-0.1-2.1-0.2c-0.7-0.1-1.2-0.2-1.7-0.4c-0.5-0.2-0.8-0.4-1-0.6
		c-0.3-0.4-0.3-0.8-0.2-1.2c0.1-0.4,0.4-0.7,0.9-1c0.8,0.6,1.7,1.1,2.8,1.4c1.1,0.3,2.3,0.5,3.6,0.6c1.4,0,2.7-0.3,3.8-0.7
		c1.1-0.4,2.1-1,2.9-1.6c0.8-0.7,1.4-1.5,1.8-2.4c0.4-0.9,0.6-1.8,0.6-2.9c0-1-0.2-2-0.6-2.8c-0.4-0.9-1-1.7-1.8-2.4
		c-0.8-0.7-1.8-1.2-2.9-1.6c-0.5-0.2-1-0.3-1.5-0.4c0.1-0.5,0.2-1,0.3-1.5c0.2-0.6,0.4-1.1,0.8-1.5c0.3-0.4,0.8-0.6,1.4-0.6
		c0.5,0,0.9,0.1,1.3,0.4c0.3,0.3,0.6,0.5,0.8,0.7c0.3,0.3,0.7,0.6,1.1,0.8c0.4,0.2,0.9,0.3,1.4,0.3c1,0,1.9-0.4,2.6-1.1
		c0.7-0.7,1.1-1.6,1.1-2.6c0-1-0.4-1.9-1.1-2.6C21.9,18.7,21.1,18.3,20.1,18.3z M13.4,32.3v3.9c0,3.5-0.9,5.2-2.6,5.2
		c-1.8,0-2.6-1.7-2.6-5.2v-3.9c0-3.5,0.9-5.2,2.6-5.2C12.5,27.1,13.4,28.8,13.4,32.3z M90.8,44.2C90.7,44.3,90.9,44.5,90.8,44.2
		L90.8,44.2z M90.6,33.1C90.6,33.1,90.6,33.1,90.6,33.1C90.6,33.1,90.7,33.1,90.6,33.1C90.7,33.1,90.7,33.1,90.6,33.1z M91.5,26.3
		C91.4,26.3,91.4,26.3,91.5,26.3C91.4,26.3,91.5,26.3,91.5,26.3z M99.9,38c0,0.1,0,0.1,0.1,0.2c0.3,0,0.3-0.1,0.2-0.3
		C100.1,37.9,100,37.9,99.9,38z M106.3,66.3c-0.2-0.1-0.2,0.1-0.4,0.1c-1.8-1.3-3.9-2-5.5-3.7c-0.8,0-1.7-0.8-2.7-0.7
		c0.8,1.2,2.3,1.1,3.1,2.1c2,0.4,3.3,1.9,4.9,2.4c0.3,0.6,0.7,1.2,1.4,0.9C107.2,66.6,106.6,66.6,106.3,66.3z M109.1,41.5
		c0-0.1,0-0.1,0.1-0.2c0.1,0.1,0.3,0.1,0.3-0.1c-0.3,0-0.4-0.1-0.2-0.1c-0.1-0.1-0.3,0-0.4-0.1c0-0.2-0.1-0.2-0.2-0.3
		c0.1-0.1,0.3-0.2,0.2-0.5c0.2,0,0.3,0.2,0.4,0c0-0.1-0.1-0.3-0.1-0.4c0.2,0,0.3-0.1,0.3-0.2c-0.2-0.4,0.4-0.9,0.4-1.5
		c-0.1-0.1-0.2-0.3-0.3-0.5c0.3,0,0.1,0,0.2-0.1c0.2,0,0.9-0.2,0.7-0.4c0,0.1,0,0.1,0,0.1c-0.2-0.3-0.8,0.2-0.9-0.2
		c0-0.2,0.2,0.1,0.2-0.1c-0.2,0,0-0.1-0.2-0.2c0.1,0,0.1,0,0.2-0.1c-0.2-0.8-0.6-1.4-0.4-1.9c-0.2,0.2-0.5-0.2-0.5-0.3
		c-0.4-0.1-0.4-0.2-0.7-0.3c0-0.2,0.2,0,0.2-0.1c-0.1,0-0.3,0-0.4,0.1c-0.1-1-0.4-2.1-0.7-3.2c0,0,0,0,0.1,0c0,0-0.1-0.1-0.1-0.1
		c-0.1-0.4-0.2-0.8-0.3-1.2c0,0,0,0,0,0c0-0.1,0.1-0.3,0.2-0.4c0-0.5-0.3-0.8,0.1-1.2c-0.2-0.2-0.3-0.6-0.3-0.7
		c-0.3,0.1-0.7,0-0.8-0.3c0,0.1,0,0.1-0.1,0.2c-0.5-0.5-0.8-0.8-1-1.3c0,0-0.1,0.1-0.1,0.1c-0.1-0.2-0.1-0.4,0-0.5
		c-0.1-0.1-0.3-0.1-0.3-0.3c0-0.1,0.3-0.1,0.2-0.3c0-0.2-0.2-0.1-0.3-0.2c0.2-0.6,0.3-0.9,0.2-1.5c0-0.1,0.1-0.1,0.1-0.1
		c-0.2,0-0.4-0.1-0.4-0.3c-0.1,0.3-0.2-0.2-0.4,0c0.1-0.1-0.1-0.2,0-0.3c-0.1-0.1-0.2,0-0.2-0.2c-0.4,0.1-0.8,0-1-0.2
		c0-0.1,0.1-0.1,0.2-0.1c0-0.2-0.1-0.3-0.3-0.4c-0.1,0.2-0.3,0.2-0.4,0.1c0-0.1,0-0.2,0-0.3c-0.1,0.1-0.2,0-0.2,0c0-0.1,0-0.2,0-0.2
		c0-0.1,0.2-0.2,0.3-0.3c0-0.2-0.1-0.2-0.2-0.4c-0.1,0,0,0.2-0.2,0.2c-0.1,0,0-0.2-0.2-0.1c-0.1-0.2-0.2-0.5,0-0.6
		c-0.2-0.2-0.4-0.2-0.4-0.6c-0.3,0-0.5-0.3-0.7-0.6c-0.2,0-0.3,0.1-0.4,0.2c-0.1,0-0.2,0-0.3-0.1c0-0.1,0-0.2-0.1-0.2
		c0.1,0,0.2,0.1,0.2,0c-0.2,0-0.3,0-0.4-0.1c0-0.1,0-0.2,0.1-0.3c0-0.2-0.3,0.1-0.3-0.3c-0.2,0.2-0.7-0.1-0.6-0.4
		c-0.3,0-0.5-0.2-0.6-0.4c0,0,0.1,0,0.1-0.1c0,0-0.1,0-0.1,0c-0.3-0.4-0.4-1-0.5-1.5c0.5-0.1,0.4-1,0-1c-0.1-0.3-0.2-0.8-0.4-1
		c-0.5,0.2-1.2,0.9-1.9,0.6c-0.6-0.2-1-0.7-1.6-0.7c-0.3-0.5-1.1-0.4-1.5-0.4c-0.1,0.1-0.3,0.1-0.4,0.1c-0.2-0.1-0.3-0.2-0.4-0.4
		c-0.2,0-0.2,0.1-0.3,0.2c0-0.1-0.1-0.1-0.2-0.2c0.1,0,0.1-0.1,0-0.1c-0.3,0.3-0.6-0.2-0.8-0.3c0,0.1-0.1,0.2-0.2,0.2
		c-0.5-0.3-1.2-0.1-1.6-0.3c-0.4-0.4-0.9-0.5-1.3-0.8c-0.1,0-0.3,0.2-0.3,0c-0.2,0.2-0.4,0.1-0.6-0.1c-0.4,0.3-0.8,0.2-0.9-0.2
		c-0.2,0-0.5,0.1-0.7,0.1c-0.1,0.1,0,0.1,0,0.2c-0.2,0-0.3,0-0.5-0.1c-0.1-0.1,0-0.2-0.2-0.3c0,0.3-0.5,0.1-0.6,0
		c-0.8,0.2-2,0.2-2.8-0.2c-0.6,0.1-0.9,0.2-1.2,0c-0.2,0.6-0.7,0.2-1.3,0.6c0-0.1-0.1-0.2-0.2-0.2c-0.1,0.1,0.1,0.1,0,0.1
		c-0.4-0.1-0.4,0.1-0.6,0c0.1,0,0.1-0.1,0-0.1c0,0.1,0,0.1-0.1,0.2c-0.1-0.1,0.1-0.4,0-0.2c-0.7,0.7-1.5-0.2-2.2,0.5
		c-0.1,0.3-0.3,0.4-0.5,0.5c-0.2,0-0.5,0-0.7-0.2c-0.3,0-0.5,0-0.8,0.2c-0.2-0.1-0.4-0.1-0.3-0.3c-0.3,0.1-0.5,0.2-0.5,0.5
		c0.1,0,0.2,0.1,0.2,0.1c-0.2,0.2-0.5,0.3-0.9,0.3c-0.2-0.1,0.1,0,0.1,0.2c-0.1,0-0.1,0-0.2-0.1c-0.1,0,0,0.1,0.1,0.1
		c-0.1,0.2-0.3,0.1-0.5,0.4c-0.1,0,0-0.1-0.1-0.1c-0.1,0-0.1,0.1-0.1,0.2c-0.7,0-0.9,0.6-1.4,0.2c-0.1,0.4-0.5,0.5-1,0.7
		c-0.5,0.7-1.4,1.4-2.2,1.7c0,0.2-0.3,0.6-0.4,0.3c-0.1,0.2,0,0.2,0,0.4c-0.1,0.1-0.3,0.2-0.4,0.3c0,0,0.1-0.1-0.1-0.2
		c-0.1,0.2-0.5,0.2-0.7,0.3c0.1,0.4-0.2,0.7-0.7,0.7c0,0.2-0.2,0.4-0.4,0.4c0.1,0.2-0.1,0.2-0.2,0.2c-0.2,0.5-0.5,0.9-0.7,1.4
		c-0.2,0.4-0.9,0.6-1.2,1.2c-0.1,0.1-0.2,0.1-0.3,0c-0.2,0.2-0.2,0.8-0.5,0.7c-0.1,0.1,0,0.2,0.1,0.1c0,0.1-0.1,0.1-0.1,0.2
		c-0.1,0-0.2,0-0.3,0c0.1,0.2,0,0.4-0.1,0.6c-0.1,0.1-0.3,0.1-0.4,0.1c-0.2,0.2-0.7,0.5-0.9,0.9c-0.1,0-0.3,0-0.4,0
		c-0.2,0.4-0.1,0.6,0,0.8c-0.2,0.3-0.3,0.7-0.6,1c-0.5,0.6-1.4,0.4-2,0.5c0,0.3,0.1,0.7,0.2,1c-0.4,0.3,0,1.1,0.5,0.9
		c0.2,0.4,0.4,1,0.4,1.5c0,0-0.1,0.1-0.1,0.1c0,0,0,0,0.1,0c0,0.3-0.1,0.5-0.3,0.7c0.2,0.1,0,0.7-0.3,0.6c0.2,0.2-0.2,0.2-0.1,0.4
		c0.1,0,0.2,0.1,0.2,0.2c-0.1,0.1-0.2,0.2-0.3,0.3c0,0.1,0.1,0,0.2-0.1c0,0.1,0,0.1,0.1,0.2c0,0.1-0.1,0.2-0.2,0.3
		c-0.1,0-0.2-0.1-0.4,0c0,0.3,0,0.7-0.3,0.9c0.2,0.3,0,0.4,0,0.7c0.2,0,0.3,0.2,0.3,0.4c-0.3,0,0,0.1-0.2,0.2
		c-0.2,0.1-0.2-0.1-0.3,0c0,0.1-0.1,0.2,0.1,0.4c0.1,0.1,0.3,0,0.4,0.1c0.1,0,0.1,0.1,0.1,0.2c0,0.1-0.1,0.1-0.2,0.1
		c0.1,0,0.1,0.1,0.2,0.2c-0.1,0.1-0.2,0.2-0.4,0.1c-0.1,0.1-0.1,0.3,0,0.5c0.1,0,0.2-0.1,0.2,0c-0.1,0.3-0.3,0.6-0.7,0.8
		c0.1,0.2-0.1,0.2,0,0.3c0.1,0,0.1,0.2,0.2,0.2c-0.3,0-0.1,0.4-0.3,0.2c0,0.2,0,0.4-0.2,0.5c0.1,0,0.1,0,0.1,0
		c0.2,0.6,0.5,0.8,1,1.1c-0.1,0.1-0.3,0.1-0.2,0.3c0,0.2,0.3,0,0.3,0.1c0.1,0.2-0.1,0.3-0.1,0.4c0.1,0.1,0.2,0.3,0.2,0.5
		c-0.1,0-0.1,0-0.1,0c0.2,0.6,0,1-0.1,1.7c-0.1,0-0.1,0-0.2-0.1c0.1,0.3-0.1,0.6-0.5,0.6c0.1,0.1,0.2,0.5,0.2,0.8
		c0.5,0.1,0.4,0.6,0.7,1c0.1,0,0.3,0.1,0.4,0.2c0,0,0,0,0,0c0.1,0.4,0.3,0.8,0.4,1.2c0,0.1,0,0.1,0,0.1c0,0,0.1,0,0.1,0
		c0.3,1,0.7,2.1,1.1,3c-0.1,0.1-0.3,0.1-0.4,0.2c0.1,0.1,0.1-0.1,0.2,0c-0.2,0.3-0.1,0.4-0.4,0.7c0.1,0.1,0,0.6-0.2,0.6
		c0.4,0.3,0.4,1,0.7,1.8c0.1,0,0.1,0,0.2-0.1c-0.1,0.1,0.1,0.2,0,0.3c0.1,0.2,0.1-0.1,0.3,0c0.1,0.4-0.7,0.3-0.7,0.7
		c-0.1,0-0.1-0.1-0.1-0.1c0,0.3,0.6,0.1,0.8,0c0.1,0.1,0,0.2,0.2,0c0,0.2,0.1,0.4,0,0.6c0.4,0.5,1.1,0.5,1.2,1
		c0.1,0.1,0.2,0.1,0.4,0c0,0.1,0.1,0.3,0.1,0.4c0.2,0.1,0.1-0.1,0.3-0.2c0,0.3,0.3,0.3,0.4,0.3c0,0.1,0,0.2,0,0.3
		c0,0.1-0.2,0.2-0.3,0.3c0.2-0.1,0.1,0.1-0.1,0.2c0.1,0.1,0.3,0.1,0.3-0.1c0.1,0,0.1,0,0.2,0.1c-0.3,0.5-1.1,0.4-1.1,0.9
		c0.4-0.2,1.1-0.3,1.7-0.6c0.2-0.1,0.3-0.4,0.5-0.6c0.1-0.1,0.2,0,0.3-0.1c0.1-0.1,0.2-0.3,0.3-0.4c0.4,0.3,0.8,0.7,1.1,1.1
		c0.4,0.1,0.6,0.5,0.8,0.7c0.4,0.5,1,0.8,1.4,1.2c0.2,0.5,0.9,1.1,0.2,1.6c0,0.1,0.1,0,0.1,0c0.2-0.1,0.2,0.1,0,0.1
		c0.2,0.1,0.4-0.3,0.5-0.5c0.4,0.2,0.9,0.2,1.3,0c0.1,0.1,0.3,0.2,0.4,0.3c0.6-0.2,0.6,0.3,0.9,0.7c0.3-0.3,0.5,0.7,0.6,0.2
		c0.7,0.4,1.5,0.5,2,0.8c0.1,0.6,0.6,0.7,0.9,0.5c0,0,0,0,0,0.1c0.6-0.2,1.3,0.2,2,0.4c0.4-0.1,1,0.3,1.5,0.4c0,0.1,0,0.2,0.1,0.2
		c0-0.1,0-0.1,0-0.1c0,0,0,0,0,0c0.1,0,0.1-0.1,0.1-0.1c0.2-0.1,0.6,0.1,0.7,0.2c0.1,0,0.2-0.2,0.4-0.1c0.4,0.2,1,0.1,1.2,0.1
		c0,0,0,0.1,0,0.1c0.3,0,0.5,0,0.7,0c0,0,0,0,0,0c-0.1,0.1,0,0,0.1,0c0,0,0,0,0,0c0.3,0,0.5,0,0.7,0.2c0-0.1,0-0.2,0.2-0.2
		c0.1,0.1,0.2,0.2,0.3,0.3c-0.1-0.4,0.6,0,0.7-0.1c0.1-0.1-0.1-0.1,0-0.2c0.1,0.1,0.3-0.1,0.3,0.2c0.2-0.1,0.5-0.3,0.6,0
		c0.3,0,0-0.3,0.3-0.3c0.1,0,0.3,0.1,0.2,0.2c0.2,0,0.3-0.1,0.4-0.2c0,0.1-0.1,0.1,0,0.1c0-0.1,0-0.2,0.1-0.2
		c0.1,0.1,0.2,0.2,0.2,0.3c0.3-0.3,0.5,0.3,0.4-0.1c0.1,0.2,0.3,0.2,0.2,0.3c0.2-0.1,0.1-0.4,0.3-0.4c-0.1,0.2,0.1,0.3,0,0.4
		c0.3-0.1-0.2-0.3,0.1-0.4c0.3,0.2,0.2,0,0.5-0.1c0.1,0.1,0,0.3,0.2,0.3c0-0.2,0.2,0,0.3-0.1c0-0.2-0.3,0-0.3-0.3
		c0.2-0.2,0.5-0.1,0.7,0.1c0-0.1,0.1-0.2,0.2-0.3c0.2,0,0.2,0.3,0.4,0.2c0-0.2-0.3-0.1-0.1-0.2c0.4,0.1,0.6,0.2,1.1,0.2
		c0-0.3,0.2-0.2,0.5-0.4c0.1,0.1,0,0.2,0.1,0.2c0-0.2,0.3-0.2,0.3-0.4c0.2,0.2,0.3-0.1,0.4-0.2c0,0,0.1,0.1,0.1,0.1c0,0,0-0.1,0-0.1
		c0,0,0.1,0,0.1-0.1c0.1,0,0.1,0,0.2,0c0,0,0,0,0,0.1c0-0.1,0-0.1,0-0.2c0.2,0.1,0.4,0.2,0.5,0c0.1,0.1,0.4,0.1,0.5,0.2
		c0.1-0.1,0-0.1-0.1-0.2c0.3,0,0.4-0.1,0.6,0.1c0.4-0.3,0.5-0.4,0.8-0.7c0.2,0-0.1,0.1,0,0.3c0.2-0.1,0.1-0.3,0.2-0.4
		c0.1,0,0.3,0,0.3,0.1c0-0.2,0.2-0.4,0.4-0.4c0,0,0,0.1,0,0.2c0,0,0,0,0.1,0c-0.1,0-0.1,0.1-0.1,0.2c0.1,0,0.1-0.1,0.2-0.1
		c1.1,0.7,2.9,1.1,4.2,1.6c0.6,0.3,1.4,1.7,2.2,0.9c-0.5-0.9-1.6-0.9-2.4-1.2c0-0.7-1.1-0.3-1.1-1c-0.6-0.1-1.4-0.5-2.1-0.7
		c0-0.1,0-0.1-0.1-0.1c0.3-0.1,0.3,0.2,0.5,0.2c-0.2-0.1,0-0.2,0-0.4c0.2,0.4,0.1-0.2,0.4-0.1c0-0.2,0-0.3,0-0.4
		c0.1,0,0.1,0.1,0.2,0.2c0.1-0.1,0-0.1,0-0.1c0.2,0,0.3,0,0.5-0.1c-0.1-0.1,0-0.2,0-0.3c0.2-0.1,0.2,0.2,0.4,0.1
		c-0.1-0.3,0.2-0.3,0.4-0.3C95.6,59,95.9,59,96,58.9c0.2,0,0,0.1,0.1,0.2c0.1,0,0.4-0.7,0.6-0.3c0-0.1,0.1-0.3,0.1-0.4
		c0.1,0,0.2,0,0.2,0.1c0.1-0.3,0.2-0.4,0.5-0.6c0,0,0,0,0,0c0.1,0,0.2,0,0.1,0c0,0,0,0,0,0c0.2-0.1,0.4-0.2,0.6-0.4
		c0,0-0.1-0.1-0.1-0.1c0.2-0.1,0.7-0.4,0.9-0.8c0.1-0.1,0.3,0,0.4-0.1c0.1-0.1,0.4-0.5,0.5-0.6c0,0,0,0,0.1,0c0,0,0,0,0,0
		c0,0,0.1,0.1,0.1,0.1c0.1,0,0-0.1,0-0.2c0.3-0.4,0.6-1,1-1.2c0.5-0.5,0.8-1.3,1.4-1.5c0,0,0,0,0-0.1c0.4,0,0.7-0.3,0.5-0.9
		c0.2-0.5,0.9-1,1.2-1.7c0.4,0.3,0-0.6,0.4-0.5c0.1-0.5-0.2-0.9,0.4-1.1c0-0.2,0.1-0.3,0.2-0.5c0.4-0.1,0.8-0.4,1.1-0.7
		c0.2,0.1,0.5,0.3,0.7,0.1c-0.2,0.1-0.2-0.2,0-0.1c0,0,0.1,0.1,0.1,0c-0.8,0-0.6-0.9-0.7-1.4c0.1-0.6,0.4-1.2,0.5-1.8
		c0-0.3,0-0.8,0.3-1c0-0.6,0.1-1.1,0.3-1.6c0.1,0.1,0.3,0.1,0.4,0.2c0.1,0,0.2-0.1,0.3-0.1c0.3,0,0.5,0.2,0.7,0.2
		c0.6-0.1,1.2-0.4,1.7-0.4C110.2,41.3,109.6,41.8,109.1,41.5z M93.4,60.7c0,0-0.1,0-0.1,0c0,0,0,0,0,0
		C93.3,60.6,93.3,60.7,93.4,60.7z M102.9,39.5c0,0.1-0.2,0-0.2,0c0.1,0.4,0.6,1,0.1,1.3c0.3,0.1-0.1,0.5,0.2,0.6
		c-0.4,0.2-0.1,0.9-0.6,1.2c0.1,0.5-0.2,0.7,0,1.2c-0.1,0.1-0.1,0.2-0.2,0.4c0,0-0.1-0.1-0.1-0.1c-0.7,0.3-0.8,0.9-1,1.5
		c0.1,0.2,0.2,0.4,0.2,0.5c-0.2,0.7-0.6,1.4-1,2c-0.2-0.3-0.5-0.3-0.7-0.5c-0.4,0.1-0.6,0.2-1,0.3c0-0.1,0-0.1,0.1-0.2
		c-0.1,0-0.2,0.1-0.2,0.2c0.1,0,0.1,0.1,0.1,0.2c-0.4,0.1-0.2,0.7-0.7,0.6c0.3,0.2,0,0.4,0,0.7c0,0.1,0.4,0.5-0.1,0.6
		c-0.1,0-0.1-0.2-0.2-0.1c0.1,0.1,0.2,0.2,0,0.3c-0.1,0-0.1,0-0.1-0.1c0-0.1,0.2-0.2,0-0.2c-0.1,0.1,0,0.2-0.2,0.3
		c-0.1-0.1,0-0.2-0.1-0.3c0.2-0.2,0.3-0.6-0.1-1c-0.1,0-0.3,0.2-0.4,0c0,0.2-0.1,0.1-0.4,0.2c-0.1,0.9,0.4,1,0.7,0.7
		c0,0.3-0.8,0.2-0.6,0c-0.1,0.3-0.4,0-0.3,0.2c-0.2,0,0-0.2-0.2-0.2c-0.2,0.1-0.4,0.2-0.7,0.4c-0.1,0.3,0.2,0.5,0,0.7
		c0,0-0.2-0.3-0.3-0.1c0.1,0,0.2,0.2,0.3,0.2c-0.1,0.2-0.2,0.7-0.6,0.6c0,0.2,0.3-0.1,0.2,0.2c-0.1-0.1-0.1,0.1-0.1,0.2
		c-0.1,0-0.2,0-0.3,0c-0.1,0.1-0.4,0.4-0.6,0.6c-0.2-0.1-0.6,0.4-0.8,0.3c0.1,0.1,0,0.2-0.1,0.2c0,0,0,0,0,0c0,0-0.1,0-0.1,0
		c0-0.1,0-0.1-0.1,0c-0.1,0-0.2,0-0.2,0c-0.2,0.3-0.7,0.6-0.9,0.6c0.1,0.1,0.1,0.1,0.1,0.2c-0.1,0-0.1,0-0.3,0
		c0.3,0.1-0.2,0.3-0.3,0.2c-0.1,0.2-0.3,0.3-0.6,0.2c0.1,0.1,0,0.2,0,0.3c-0.2,0-0.5,0.1-0.5,0.3c-0.2,0-0.3,0.2-0.5,0
		c0,0.1,0,0.1,0,0.3c-0.2,0.1-0.3-0.1-0.3,0.2c-0.1,0,0-0.1-0.1-0.2c-0.1,0.3-0.5,0.4-0.9,0.5c-0.1,0-0.1,0.1,0,0.3
		c-0.3-0.1-0.4,0.3-0.8,0.2c0,0.2,0,0.2-0.1,0.4c0,0-0.1,0-0.2,0c0-0.1,0-0.1,0-0.1c0,0,0,0,0,0.1c0,0,0,0-0.1,0c0,0,0,0,0,0.1
		c0,0-0.1,0.1-0.1,0.1c-0.2-0.1-0.3-0.1-0.3-0.3c-0.3,0.3-0.5,0-0.8,0.2c0-0.1-0.1-0.2-0.2-0.2c-0.4,0.2-0.8,0.3-1,0.1
		c0,0.2,0.2,0.2,0.1,0.2c-0.1-0.2-0.1,0-0.4,0c-0.1-0.1-0.1-0.2-0.2-0.2c-0.1,0.2-0.2,0.1-0.4,0.2c-0.1-0.2-0.4-0.1-0.6,0
		c0-0.1-0.1-0.1-0.1-0.3c-0.2,0.2-0.4,0.3-0.6,0.1c0,0.2-0.5,0.3-0.4,0C82.2,57,82.1,57,82.1,57c0-0.1-0.1-0.1,0-0.2
		c-0.2,0.1-0.8,0.1-1.1,0c0,0-0.1,0.1-0.1,0.1c-0.1,0-0.1,0,0,0c0,0-0.1,0-0.1,0c0,0,0,0,0,0c-0.1,0-0.2,0-0.2-0.1
		c-0.1,0.3-0.7,0-0.8,0.2c-0.3-0.1-0.7-0.2-0.8-0.2c0,0-0.1,0.1-0.2,0.2c-0.1-0.1-0.2-0.2-0.2-0.1c-0.1-0.2,0.2-0.1,0.1-0.3
		c-0.3,0.3-0.6,0-0.8-0.2c0.1-0.1,0-0.3,0.1-0.3c-0.1-0.1-0.2,0.2-0.2,0.2c-0.2-0.1-0.1-0.4-0.4-0.6c-0.3,0-0.5,0-0.8,0.1
		c-0.1,0.1,0.2,0.2,0,0.3c-0.1-0.2-0.1,0.1-0.4,0c0.2,0.1-0.4,0.6-0.6,0.3l-0.2-1c0,0.1-0.2,0.1-0.3,0.2c-0.2,0.5,0.1,0.8,0.5,0.8
		c0,0.1,0.1,0.2,0,0.3c-0.2,0.1-0.2-0.1-0.3-0.1c-0.2,0.1,0.1,0.1,0.1,0.2c0,0.1,0,0.1-0.1,0.1c-0.2,0.1-0.2,0-0.2-0.2
		c-0.1,0,0,0.2-0.1,0.2c-0.5,0.2-0.4-0.4-0.4-0.5c-0.1-0.2-0.4-0.2-0.4-0.6c-0.3,0.3-0.5-0.3-0.9-0.2c0-0.1-0.1-0.2,0-0.2
		c-0.1-0.1-0.2-0.1-0.3,0c0.1,0,0.1,0,0.2,0.1c-0.3,0.2-0.6,0.2-1,0.3c-0.1,0.4-0.3,0.5-0.3,0.9c-0.7-0.3-1.4-0.6-1.9-1.1
		c-0.1-0.1-0.1-0.3-0.1-0.6c-0.5-0.4-0.9-0.9-1.7-0.7c0,0,0,0.1,0,0.1c-0.1-0.1-0.2-0.1-0.3-0.2c-0.1-0.6-0.5-0.5-0.7-1
		c-0.5,0-0.7-0.8-1.1-0.7c0.1-0.2-0.3-0.3-0.2-0.6c-0.5,0-0.4-0.7-0.6-1.2c0,0-0.1,0.2-0.2,0.1c0.1-0.5-0.9-0.7-0.7-1.1
		c-0.3-0.2-0.6-0.5-0.8-0.8c0,0,0-0.1,0-0.1c-0.3-1-1-2.3-1.4-3.4c0-0.1,0.3-0.2,0.1-0.3c-0.1,0,0,0.1,0,0.1c0,0.1-0.1,0-0.2,0
		c-0.2-0.4-0.1-0.8-0.5-1c0.1-0.6-0.4-1.2-0.2-1.8c-0.6-0.9-0.5-2.2-1-3c0-0.1,0.1,0,0.1-0.1c-0.1,0-0.3-0.4-0.1-0.6c0,0,0,0,0,0
		c0,0,0,0,0,0c-0.2-0.5,0-1-0.2-1.6c0.2-0.1,0.2-0.4,0.1-0.6c0.2,0,0.1-0.3,0.3-0.5c-0.4-0.7,0.3-1.1,0.4-1.6c-0.1,0-0.1,0-0.1-0.1
		c0.1-0.1,0.1-0.1,0.2-0.1c-0.3-0.2,0-0.8,0.3-0.8c-0.1-0.5-0.4-0.9-0.1-1.1c0-0.4-0.2-0.9,0.1-1.3c-0.2-0.2-0.1-0.8,0.1-0.8
		c-0.3-0.2,0-0.3,0.1-0.6c0.1-0.3,0.1-0.6,0.2-0.8c0.2-0.2,0.7-0.3,0.8-0.6c0,0-0.1-0.1-0.1-0.1c0.3,0,0-0.3,0.2-0.4
		c0,0.1,0.1,0,0.2,0c0,0.1,0.1,0.2,0.2,0.2c0-0.2,0.2-0.1,0.3-0.1c-0.1-0.2,0-0.2,0-0.3c-0.2-0.1-0.1-0.2-0.3-0.3c0.2-0.4,0-0.8,0-1
		c0-0.1,0.2-0.2,0.2-0.3c0.1-0.3,0-0.4,0.1-0.5c0.1-0.2,0.4-0.4,0.5-0.6c0.2-0.3,0.3-0.6,0.5-0.9c0,0,0,0,0,0c0,0,0-0.1,0-0.1
		c0.3-0.6,0.8-1.3,1.4-1.6c-0.1-0.2,0.7-0.8,1-0.9c0.5-0.2,0.9-0.8,1-0.5c0.3-0.7,1.6-0.7,1.8-1.5c0,0,0,0,0.1-0.1
		c0.1,0.2,0.4,0.4,0.7,0.3c-0.1,0,0.1-0.1,0.4-0.2c0-0.4,0-0.7-0.1-0.9c0.1-0.1,0.2-0.3,0.3-0.1c0-0.1,0.1-0.2,0.1-0.3
		c0.2-0.1,0.3-0.1,0.5-0.1c0.2-0.2,0.7-0.4,1.1-0.5c0.3,0,0.5,0.2,0.8,0.1c0,0.1,0.1,0.3,0.1,0.4c0.5-0.2,0.5,0.1,0.7-0.2
		c0,0.2,0.2-0.1,0.4-0.2c0.1,0.3,0.5-0.2,0.8-0.1c0.1-0.1,0-0.2,0.1-0.3c0.2,0,0.1,0.1,0.3,0.1c0.2-0.2,0.9-0.1,0.8-0.3
		c0.2,0,0.5,0.1,0.4-0.1c0.3,0.2,0.2-0.1,0.7-0.2c0-0.1-0.1-0.3-0.1-0.4c0.3-0.2,0.4-0.4,0.6-0.6c0.4-0.1,1-0.2,1.2-0.2
		c0.1-0.1,0.3-0.2,0.5-0.2c0.1,0,0.2,0.1,0.3,0.1c0-0.4,0.5,0.1,0.5-0.1c0,0,0.1,0,0.1,0c0.1,0,0.2,0,0.3,0c0,0,0.1,0,0.1,0
		c0.1,0,0.2,0.1,0.1,0.2c0.1,0.1,0.1-0.1,0.3-0.1c0,0,0.1,0,0.1,0c0.6,0.6,1.6-0.1,2.3,0.3c0-0.2,0.6,0,1.1-0.1
		c0.3-0.1,1.3-0.1,1.3,0.2c0.8,0,1.5,0.3,2.1,0.6c0,0,0.1,0,0.1,0.1c0,0,0,0,0,0c0.3,0.2,0.6,0.3,0.9,0.5c0.2,0.1,0.5,0.1,0.7,0.2
		c0.2,0.1,0.2,0.2,0.4,0.4c0.1,0,0.3,0,0.3,0.1c0.1,0.1,0.2,0.7,0.6,0.9c-0.1,0.2,0.1,0.2,0,0.4c0.1,0,0.1-0.1,0.2,0.2
		c0.1-0.1,0.2-0.3,0.3-0.1c0.1,0,0.1-0.1,0-0.3c0.1,0,0.2,0,0.2-0.1c0.2-0.1,0.1,0.4,0.4,0.2c0,0.1,0,0.2,0,0.2c0.2,0.2,0.7,0,1,0.1
		c0.2,0.1,0.4,0.4,0.6,0.5c0.3,0.2,0.6,0.1,0.4,0.4c0.2-0.1,0.6,0.3,0.6,0.6c0.5,0.2,0.6,0.7,0.8,1c0.4,0.1,0.4,0.6,0.5,1
		c0.2-0.2,0.8,0.2,0.6,0.5c0.1-0.1,0.1-0.1,0.2-0.1c0,0.1,0,0.1-0.1,0.1c0.4,0.3,1.3,0.3,1.2,1.1c0.3,0.1,0.3,0.4,0.5,0.3
		c0,0.3,0.2,0.5,0.4,0.5c0.1,0.7,0.6,1,0.7,1.5c0,0,0,0,0,0c0,0,0,0,0,0c0.3,0,0.3,0.5,0.2,0.6c0.1,0,0.1-0.1,0.2,0
		c0.1,1,0.8,2,0.9,3.1c0.5,0.4,0.5,1.2,0.9,1.6c-0.2,0.4,0,0.7,0.1,1.1c-0.1,0-0.1,0.1-0.2,0.1c0,0,0-0.1,0-0.1
		c-0.1,0.2,0.2,0.1,0.3,0.2c0.2,1.2,0.4,2.6,0.7,3.6c0,0,0.1,0,0.1,0c0,0.4-0.1,0.7-0.2,1.1C103.2,38.5,102.5,39.1,102.9,39.5z
		 M64.5,40.3c0.1,0.1,0.1,0.1,0.2,0.2c0.1-0.1,0-0.2,0-0.3C64.6,40.1,64.6,40.2,64.5,40.3z M97.4,37.5c-0.1,0.5,0,1.2-0.4,1.5
		c0,0.2,0.1,0.2,0.2,0.3c0-0.1,0.1-0.1,0.2-0.2c0.1-0.4,0.2-0.8,0.4-1.1C97.7,37.8,97.7,37.4,97.4,37.5z M97.4,38.3
		C97.5,38.2,97.3,38.5,97.4,38.3L97.4,38.3z M97.4,38.5C97.4,38.5,97.4,38.5,97.4,38.5c0-0.1,0-0.1,0.1-0.1
		C97.5,38.4,97.5,38.5,97.4,38.5C97.5,38.5,97.5,38.5,97.4,38.5z M94.3,67c-0.2,0.2,0.1,0.5,0.3,0.4C94.5,67.3,94.6,67.1,94.3,67z
		 M90.1,25.1C90.1,25.2,90.1,25.2,90.1,25.1c-0.1,0.1,0.1,0.3,0.3,0.2C90.2,25.2,90.2,25.1,90.1,25.1L90.1,25.1
		C90,25.1,90,25.1,90.1,25.1C89.9,25.2,90,25.2,90.1,25.1z M90.1,25.3C90.1,25.2,90.1,25.3,90.1,25.3C90.3,25.3,90.1,25.3,90.1,25.3
		z M89.5,21.4C89.4,21.4,89.4,21.4,89.5,21.4C89.4,21.4,89.5,21.4,89.5,21.4z M90.1,45.5c0.2,0,0.2,0.1,0.4,0.1
		c0-0.1,0.1-0.2,0.1-0.3c-0.1,0-0.1-0.1-0.1,0c0.1,0,0.1,0.1,0,0.1c-0.1-0.1-0.2,0-0.1-0.2C90.3,45.3,90.2,45.4,90.1,45.5z
		 M90.4,45.5c-0.1,0,0-0.1-0.1-0.1c0,0,0,0,0,0c0,0,0,0,0,0c-0.1,0-0.1,0,0,0v0h0C90.3,45.4,90.4,45.4,90.4,45.5z M97.9,30.1
		c0,0.1,0.1,0.3,0.2,0.3c0-0.1,0.1-0.2,0.1-0.3C98.1,30.1,98.1,30,97.9,30.1z M98.9,45.1c0.3,0,0.5-0.2,0.6-0.4
		C99.2,44.6,98.8,44.8,98.9,45.1z M90.5,45.8C90.6,45.9,90.4,45.7,90.5,45.8L90.5,45.8z M89.9,25.1c0-0.1-0.2-0.2-0.1-0.3
		c-0.1,0.1-0.3,0-0.3-0.1c-0.1,0-0.1,0.1-0.2,0.1c0,0,0-0.1,0-0.1c0.1,0,0.1,0,0.1,0c-0.1,0-0.1-0.1-0.3-0.1
		C89.3,25,89.5,25,89.9,25.1z M87.3,66.8c0.1,0.2-0.1,0.5,0.2,0.6C87.6,67.1,87.5,67,87.3,66.8z M87,67.3c0.2-0.3,0-0.9-0.2-1.2
		C86.7,66.6,87,66.8,87,67.3z M93.8,71c0.1,0.7,0.1,1.4,0.5,1.9c0-0.1,0.1-0.1,0.2-0.2c-0.5-1-0.7-2.6-1-3.8
		C93.3,69.3,93.6,70.2,93.8,71z M85.4,79c0,0.5-0.1,1,0.3,1.3C86,79.7,85.7,79,85.4,79z M78.4,68c0.1,0.1,0,0.4,0.2,0.5
		c0.3-1,0.8-1.6,0.8-2.5C78.8,66.7,78.9,67.5,78.4,68z M81.6,72.6c-0.2,0.4-0.4,1.2-0.2,1.6C81.8,73.8,81.6,73.1,81.6,72.6z
		 M83.8,78.3c0.1,0,0.2-0.2,0.1-0.2C83.8,78.2,83.6,78.2,83.8,78.3z M87.8,78.7c-0.2,1.1,0.1,2.4,0.7,3.3c0-0.1,0.2,0,0.2-0.2
		C88,80.9,88.9,79.5,87.8,78.7z M88.6,74.3c0.2,0.6-0.3,2,0.4,1.9C89,75.5,89.2,74.6,88.6,74.3z M91.9,73.6c0.1,0.6,0.2,1.1,0.6,1.5
		C92.5,74.5,92.3,73.7,91.9,73.6z M72.5,44.2C72.4,44.4,72.6,44.2,72.5,44.2L72.5,44.2z M92.3,76.5c0.2,0.4,0.1,0.9,0.3,1.2
		C92.7,77.4,92.5,76.6,92.3,76.5z M93.6,62.3c-0.9-0.4-1.5-0.2-2.5,0.3c0,0.1,0,0.4,0.1,0.4C92,63,93.3,63.5,93.6,62.3z M91,70.8
		c-0.1,0.2-0.1,0.4,0.1,0.4C91.1,71.1,91.2,70.9,91,70.8z M88.7,80.2c-0.1,0.2,0,0.3,0.1,0.4C89,80.5,88.9,80.2,88.7,80.2z
		 M94.9,43.5c0.1,0,0.1,0.1,0.1,0.2C94.8,43.5,94.7,43.7,94.9,43.5c-0.2,0.1-0.4,0.2-0.4,0.3c0.2,0,0.3,0,0.5,0c0-0.1,0-0.2,0-0.4
		C95,43.5,94.9,43.4,94.9,43.5z M94.6,43.7C94.6,43.8,94.6,43.8,94.6,43.7C94.6,43.8,94.6,43.8,94.6,43.7z M94.6,43.7
		c0-0.1,0.1-0.1,0.2,0C94.7,43.8,94.7,43.7,94.6,43.7z M87.1,39.7c-0.1,0.2-0.1,0.4-0.3,0.5c0,0.1,0,0.1,0.1,0.1c0,0,0.1,0,0.1,0
		c0.1-0.1,0.2-0.3,0.3-0.4C87.2,39.8,87.3,39.7,87.1,39.7z M87,40C87.1,39.9,87,40,87,40L87,40z M87,40.1L87,40.1L87,40.1L87,40.1
		L87,40.1z M94.9,41.8c-0.1,0-0.1,0.2-0.1,0.3c-0.2,0.1-0.7,0.7-0.7,1c0,0,0.1,0.1,0,0.1c-0.2,0.5-0.6,0.9-0.8,1.3
		c0,0.2-0.3,0.4-0.4,0.7c-0.5,0.6-1.5,0.9-2,1.5c-0.1,0.1,0,0.2-0.2,0.3c-0.1,0.4-0.4,0.6-0.7,0.9c0,0.2-0.1,0.4-0.3,0.4
		c-0.1,0.3-0.5,0.5-0.8,0.5c-0.5,0.5-1.4,0.8-2.1,1.1c0,0,0.1,0.1,0,0.1c-0.2,0.1-0.7,0.2-1.1,0.3c-0.1,0.1-0.2,0.2-0.4,0.3
		c-0.2,0.1-0.4,0-0.6,0.1c-0.5,0.2-0.6,0.5-1.1,0.4c0,0,0,0,0,0c-0.1,0-0.4,0-0.6-0.1c0.1,0.1,0,0,0,0.1c-0.3,0-0.5-0.1-0.8,0.2
		c0,0.2,0.2,0.2,0.3,0.4c0.4,0.1,0.6-0.1,0.9-0.1c0.2,0,0.3,0.1,0.4,0.1c0.2,0,0.4-0.2,0.5-0.3c0.2,0,0.5,0,0.4,0.1
		c0.3-0.1,0.6-0.2,1-0.3l1.3-0.5c0.7-0.2,1.4-0.6,2-0.9c0.1-0.2,0.5-0.4,1-0.6c0.2-0.4,0.6-0.6,1-0.6c0.1-0.3,0.4-0.2,0.5-0.4
		c0.7-0.1,1-0.8,1.4-1.2c0-0.1,0-0.1,0-0.1c0.3-0.2,0.2-0.9,0.6-1c0.2-0.3,0.3-0.7,0.5-1c0,0,0-0.1,0-0.1c0.3-0.3,0.4-0.7,0.7-0.9
		c0.1-0.6,0.5-1.4,0.6-2C95,41.8,94.9,41.8,94.9,41.8z M82.6,51.4C82.6,51.4,82.6,51.4,82.6,51.4C82.6,51.4,82.6,51.4,82.6,51.4z
		 M84.6,50.9C84.6,50.9,84.6,50.9,84.6,50.9C84.6,50.9,84.6,51,84.6,50.9z M94.3,43.3C94.2,43.4,94.4,43.2,94.3,43.3L94.3,43.3z
		 M94.6,42.4C94.6,42.4,94.6,42.4,94.6,42.4C94.6,42.5,94.6,42.5,94.6,42.4z M88.6,46.9C88.5,47,88.7,46.8,88.6,46.9L88.6,46.9z
		 M88.3,47.1C88.3,47.1,88.3,47.1,88.3,47.1C88.3,47.1,88.3,47.1,88.3,47.1C88.3,47.1,88.3,47.1,88.3,47.1z M88.2,37
		C88.2,37,88.3,37,88.2,37c0-0.1,0-0.1,0-0.1C88.2,37,88.2,37,88.2,37z M88.1,40.1c0,0-0.1,0-0.1,0v0.1
		C88.1,40.3,88.2,40.2,88.1,40.1z M86.8,42.7c0.1,0,0.2,0,0.3-0.1C87,42.6,86.8,42.6,86.8,42.7z M95,44C95.1,44.1,94.8,43.9,95,44
		L95,44z M93.3,47.6c0.3,0.1,0.5,0,0.5-0.2C93.7,47.3,93.3,47.3,93.3,47.6z M87.4,20.5c0,0,0.1,0,0.1,0.1c-0.2,0.1,0.1,0.2,0.3,0.1
		C87.7,20.6,87.6,20.5,87.4,20.5C87.4,20.5,87.4,20.5,87.4,20.5c0,0-0.1,0-0.1,0C87.3,20.7,87.5,20.6,87.4,20.5z M87.6,20.7
		C87.8,20.7,87.6,20.7,87.6,20.7C87.5,20.6,87.6,20.7,87.6,20.7z M87.5,21.2C87.7,21.3,87.6,21.1,87.5,21.2L87.5,21.2z M94.1,46.6
		C94.2,46.5,94.2,46.5,94.1,46.6C94.2,46.5,94.1,46.5,94.1,46.6z M86.7,40.6c-0.1,0-0.2,0.1-0.2,0.2c-0.1,0-0.3,0.3,0,0.3
		c0.1-0.1,0.3-0.3,0.2-0.4c0,0,0,0,0,0c0,0-0.1,0-0.1,0C86.6,40.7,86.6,40.7,86.7,40.6C86.7,40.6,86.7,40.6,86.7,40.6z M86.5,40.9
		C86.5,40.9,86.5,41,86.5,40.9L86.5,40.9z M86.6,40.6C86.6,40.7,86.5,40.6,86.6,40.6L86.6,40.6z M89,24.9c0.1,0-0.1,0.1,0,0.1
		c0,0,0,0-0.1,0c0.1,0.1,0.7,0.6,1,0.5c0.1,0,0,0.1,0.1,0.1c0.1,0-0.1-0.1-0.1-0.1c-0.1,0-0.1,0-0.1,0c-0.1-0.3-0.6-0.4-0.7-0.7
		c-0.2,0.1-0.2-0.1-0.4,0C88.8,24.9,89,25,89,24.9z M89.7,25.4C89.7,25.5,89.7,25.5,89.7,25.4C89.7,25.5,89.7,25.4,89.7,25.4z
		 M89.6,25.3C89.8,25.5,89.5,25.4,89.6,25.3L89.6,25.3z M89.4,25.3C89.2,25.2,89.5,25.3,89.4,25.3L89.4,25.3z M89.2,25
		C89.2,25.2,89,25,89.2,25L89.2,25z M89.1,25C89,25.1,89.2,24.9,89.1,25L89.1,25z M89.9,25.7C90.1,25.8,90,25.6,89.9,25.7L89.9,25.7
		z M89.9,25.5C89.9,25.4,89.9,25.5,89.9,25.5C89.8,25.5,89.9,25.5,89.9,25.5z M95.8,36.6c-0.1-0.6,0-1.2-0.2-1.7c0,0,0-0.1,0-0.1
		c0,0,0-0.1,0.1-0.1c0,0,0,0,0,0c0-0.1,0-0.1-0.1-0.1c0,0,0-0.1,0.1-0.1c-0.1-0.1-0.1-0.3-0.2-0.4c0-0.4-0.2-0.9-0.1-1.3
		c-0.1,0-0.2-0.1-0.2-0.2c0-0.8-0.6-1.3-0.7-2.1c-0.1-0.2-0.4-0.5-0.3-0.6c-0.1,0-0.1,0-0.1-0.1c-0.1-0.5-0.4-0.6-0.5-1.1
		c0,0,0.1-0.1,0-0.1c0,0,0,0,0,0c-0.1-0.5-0.6-0.8-0.8-1.3c0,0,0.1,0,0.1,0c-0.5-0.3-0.8-0.8-1.1-1.2c-0.2,0-0.3,0.1-0.4,0.1
		c0,0.4,0.3,0.7,0.5,0.9c0,0,0,0,0,0c0,0,0,0,0,0c0,0,0,0.1,0.1,0.1c0,0,0,0-0.1,0c0,0,0,0.3,0.1,0.2c-0.1,0.2,0,0.5,0.2,0.5
		c-0.1,0.2,0.2,0.2,0.1,0.5c0.1,0,0.1,0.1,0.2,0.1c0.1,0.3,0.3,0.6,0.5,0.8c0.4,0.7,0.8,1.5,0.9,2.1c0.2,0,0.2,0.3,0.3,0.2
		c0.1,0.4,0.3,0.8,0.4,1.1c0,0.1,0,0.2,0,0.2c0,0,0.2,0.3,0,0.3c0,0.1,0,0.1,0.1,0.2c0,0,0,0,0,0.1c0,0,0,0,0,0
		c0.2,0.7,0.4,1.9,0.2,2.2c0.3,0.7-0.4,2.1-0.3,3c0.1,0,0.1,0,0.2,0c0,0.1,0.1,0.1,0.1,0.2c0.1,0,0.2,0,0.2,0
		c-0.1,0.5-0.2,0.9-0.2,1.4c0,0.3,0,0.7,0.3,0.8c0.2-0.9,0.6-1.6,0.4-2.7C95.9,38.1,95.8,37.1,95.8,36.6z M91.7,26.9
		C91.7,26.7,91.7,27,91.7,26.9L91.7,26.9z M92,27.8C92,27.9,91.9,27.6,92,27.8L92,27.8z M94.3,36.2c0.1-0.2,0.4,0,0.3-0.5
		c-0.2,0.1-0.4-0.2-0.4,0.1C94.5,35.8,94.1,36,94.3,36.2z M95.9,42.1v0.2c0.2,0.1,0.3,0,0.2-0.2C96,42.1,95.9,42.1,95.9,42.1z
		 M97,40.4C97,40.4,97,40.4,97,40.4c-0.1-0.1-0.1,0.2-0.2,0c0.2,0,0.2-0.2,0.3-0.2c0-0.1-0.1-0.1-0.1-0.2c-0.3,0.1-0.4,0.4-0.4,0.6
		c-0.2,0.2-0.4,1,0.2,0.8C96.9,41.2,97.3,40.5,97,40.4z M96.9,40.2C96.9,40.3,96.6,40.2,96.9,40.2L96.9,40.2z M96.8,41
		C96.7,40.8,96.8,41.3,96.8,41L96.8,41z M96.8,40.5C96.8,40.5,96.8,40.5,96.8,40.5C96.8,40.5,96.8,40.5,96.8,40.5
		C96.8,40.5,96.8,40.5,96.8,40.5z M96.2,35.6c0.1-0.1,0.1-0.1,0.1-0.2c-0.1,0-0.1-0.1-0.2-0.1C96.1,35.4,96.1,35.6,96.2,35.6z
		 M86.4,23.4c0,0-0.2,0.1-0.2,0c0,0,0,0.1-0.1,0.1c0.2,0.1,0.2,0.2,0.4,0.1c-0.1,0.1,0,0.1,0.2,0.1c0.3,0.2,0.8,0.3,1.3,0.5
		c0.2,0.3,0.6,0.2,0.7-0.1c-0.8-0.4-1.7-1-2.4-1C86.3,23.3,86.3,23.4,86.4,23.4z M86.2,23.6c0.1,0,0.2-0.1,0.2,0
		C86.2,23.6,86.2,23.7,86.2,23.6z M86.4,23.5C86.4,23.5,86.4,23.5,86.4,23.5C86.4,23.5,86.4,23.5,86.4,23.5
		C86.4,23.5,86.4,23.5,86.4,23.5z M88.6,29.6C88.6,29.7,88.6,29.6,88.6,29.6L88.6,29.6z M88.7,24.8c0.1,0,0-0.1,0-0.1
		C88.6,24.7,88.7,24.7,88.7,24.8z M93,43.2c0-0.1-0.1-0.1,0-0.2c-0.3,0-0.4,0.2-0.4,0.4c-0.2,0.1-0.6,0.7,0,0.7
		c0.2-0.1,0.6-0.6,0.4-0.8c0,0,0,0,0,0c0-0.1-0.1,0.1-0.1-0.1C92.9,43.3,92.9,43.2,93,43.2z M92.7,43.4
		C92.9,43.5,92.6,43.3,92.7,43.4L92.7,43.4z M92.9,43.1C92.9,43.2,92.7,43.1,92.9,43.1L92.9,43.1z M89.6,35.9
		C89.6,35.9,89.6,35.9,89.6,35.9C89.6,36.1,89.6,35.9,89.6,35.9z M93.6,42.4c0.2-0.3,0.3-0.6,0.6-0.8c-0.1-0.2,0-0.5-0.3-0.5
		c-0.2,0.4-0.3,0.9-0.7,1.1c0,0.1,0,0.2,0.1,0.3C93.4,42.4,93.5,42.4,93.6,42.4z M93.8,42L93.8,42L93.8,42L93.8,42L93.8,42z
		 M93.7,41.8C93.8,41.7,93.6,41.9,93.7,41.8L93.7,41.8z M89.2,47.6C89.2,47.6,89.2,47.6,89.2,47.6C89.2,47.6,89.2,47.6,89.2,47.6z
		 M87.3,21C87.3,21,87.4,21,87.3,21C87.4,20.9,87.3,21,87.3,21z M67.1,14.9c-0.1-0.1,0.1-0.2,0-0.3c-0.1,0-0.1-0.1-0.3,0
		C66.9,14.8,67,15,67.1,14.9z M69.2,3c0.2-0.2,0.4-0.2,0.6-0.3c0.3-1.2-1.3-1.1-1.2-0.6C68.5,2.1,68.7,2.8,69.2,3z M67.1,0.7
		C67.3,1,67.6,0.6,67.8,1c0-0.2,0.3,0,0.4-0.2c0.1-0.9-0.5-1-1.1-0.7C67,0.4,67.2,0.5,67.1,0.7z M67.3,4.3c0.2,0.3,0.6,0.8,1.1,0.6
		C68.3,4.3,67.6,4.1,67.3,4.3z M70.9,10.3C70.9,10.3,70.9,10.3,70.9,10.3c0.1,0,0.3,0,0.5-0.1c0-0.4-0.3-0.3-0.2-0.6
		c-0.3,0.2-0.4-0.2-0.7,0.1C70.7,10,70.6,10.2,70.9,10.3z M75,7.1c0-0.3-0.1-0.3-0.3-0.2C74.6,7,74.8,7.1,75,7.1z M74,3.1
		C73.9,3.1,73.9,3.1,74,3.1c0.2,0.1,0.1-0.3,0.5-0.2c0-0.3-0.4-0.3-0.6-0.5C73.8,2.6,73.8,2.9,74,3.1C73.9,3.1,74,3,74,3.1z
		 M55.3,16.3c0.2,0.2,0.7,0.1,0.7-0.2c-0.2-0.1,0-0.1-0.1-0.3c-0.2-0.1-0.4-0.2-0.6-0.2C55,16.1,55.5,16,55.3,16.3z M60.7,17.2
		c-0.2,0-0.3-0.3-0.4,0c0.1,0,0.2,0,0.2,0.1C60.6,17.2,60.7,17.3,60.7,17.2z M114.2,48.6c0.3-0.1,0.5-0.5,0.7-0.5
		C114.7,46.6,112.8,48,114.2,48.6z M66.8,13.1c-0.1-0.4-0.8-0.4-0.9,0C66.2,13.2,66.5,13,66.8,13.1z M60.6,18
		C60.4,17.9,60.9,17.8,60.6,18c0.4,0.3,0.5-0.6,0.2-0.8c0,0.1-0.1,0.2-0.2,0.2c0.2-0.2,0-0.1-0.1-0.2c-0.1,0-0.1,0.1-0.2,0.1
		c-0.2-0.1-0.1-0.2-0.2-0.3c-0.1,0.1-0.1,0.3-0.2,0.4c0,0.1,0.2,0.3,0,0.3C60.2,17.8,60.3,18.3,60.6,18z M66.1,15.6
		c0,0.2,0.2,0.2,0.3,0.1C66.3,15.6,66.2,15.6,66.1,15.6z M65.3,16.4c-0.1-0.1-0.4-0.2-0.5,0C64.8,16.6,65.3,16.7,65.3,16.4z
		 M74.6,9.5c0.2,0,0.3-0.2,0.3-0.4c-0.1-0.3-0.4-0.3-0.5,0C74.5,9.3,74.5,9.5,74.6,9.5z M107.7,27.3c-0.1-0.3-0.2-0.4-0.3-0.5
		c-0.2,0-0.3,0.3-0.4,0.1c0,0,0.1-0.1,0-0.1C106.6,27.5,107.5,28.1,107.7,27.3z M105.7,25.8c-0.1-0.3-0.3-0.3-0.4-0.5
		c-0.1,0.1-0.1,0.1-0.2,0.2C105.2,25.9,105.5,26,105.7,25.8z M107.4,24.9c-0.1-0.1-0.1-0.3-0.3-0.3c-0.1,0.2-0.2,0.4,0,0.6
		C107.3,25.2,107.2,25,107.4,24.9z M105.3,18.1c-0.1-0.1,0.1-0.2,0-0.3c-0.2,0-0.2-0.1-0.4,0C104.9,18.1,105.1,18.1,105.3,18.1z
		 M114.8,38.5c0.3-0.1,0.6,0,0.7-0.3C115.2,38.1,114.7,38.2,114.8,38.5z M81.2,10.7c0.2-0.1,0.1-0.2,0.1-0.4c-0.1,0-0.2,0.1-0.2,0.1
		C81,10.6,81.2,10.6,81.2,10.7z M108.7,26.9c0.1-0.5,0-0.7-0.2-1c0,0.2-0.3-0.4-0.3-0.2c0.1,0.2-0.3,0.2-0.6,0.2
		C107.1,26.6,107.9,27.5,108.7,26.9z M109.1,32c0.3-0.1,0.2-0.4,0.2-0.7c-0.3,0-0.4,0.2-0.6,0.4C108.9,31.7,108.9,32,109.1,32z
		 M84,10.6c-0.2-0.1-0.4,0.1-0.5,0.3C83.7,11.1,84.1,10.8,84,10.6z M83.2,9.1c0.1,0,0.1-0.1,0.2,0V8.9c-0.1,0-0.2,0.1-0.3,0.1v0.4
		h0.2C83.4,9.2,83.3,9.2,83.2,9.1z M93.8,12.3C93.9,12.4,93.8,12.1,93.8,12.3L93.8,12.3z M82.5,10.7c-0.2,0-0.3,0.1-0.2,0.3
		C82.4,11,82.6,10.9,82.5,10.7z M93.8,12.1C93.7,12.1,93.7,12.2,93.8,12.1C93.7,12.2,93.8,12.2,93.8,12.1z M85.6,3.9
		c-0.1-0.3-0.4-0.2-0.6-0.1C85.2,3.8,85.5,4,85.6,3.9z M53.7,56.8c0.2,0.2,0.4,0,0.7-0.1C54.3,56.5,53.8,56.6,53.7,56.8z M66,73.5
		c0.4,0.1,0.5-0.5,0.3-0.7C66.1,73.1,66,73.1,66,73.5z M67.4,67.1c-0.6,0.7-1.2,2.2-1.1,3.1C66.8,69.1,67.5,68.3,67.4,67.1z
		 M67.4,72.1c-0.5,0.2-0.5,0.6-0.8,1.2c0.3,0.2,0,0.4,0,0.8c0.1,0,0.2,0.1,0.3,0.1c0.4-0.5,0.7-1,0.7-1.5c0.2,0.1,0.4,0,0.5,0.2
		c0.2-1.3,1.2-1.9,1.1-3.1c-0.6,1-1.1,1.9-1.5,3C67.6,72.4,67.5,72.3,67.4,72.1z M65.4,77.6c0.1-0.2,0.1-0.1,0.1-0.2
		C65.4,77,65.1,78.2,65.4,77.6z M55.3,40.5c-0.1,0-0.2,0-0.3,0c0,0.2-0.1,0.4,0,0.6C55.3,41.2,55.5,40.9,55.3,40.5z M65.4,77.1
		c0-0.1,0.1-0.2,0-0.3C65.4,76.9,65.3,77,65.4,77.1z M64.8,73.5c0.4,0.1,0.6-0.2,0.8-0.6C65.3,72.1,64.5,72.9,64.8,73.5z M72.9,68.1
		c0.1-0.1,0.4-0.4,0.2-0.5C73,67.7,72.8,67.9,72.9,68.1z M76.7,72.8c0,0,0.1,0,0.1,0c0.2-0.1,0-0.2,0.1-0.4
		C76.7,72.3,76.7,72.6,76.7,72.8z M58.2,72.8c0.4-0.1,0.6-0.7,0.8-1.3C58.7,71.8,58.4,72.3,58.2,72.8z M68.5,64.4
		c-0.4-0.1-0.7-0.2-0.9,0c0.1,0.2,0.2,0.5,0.4,0.7C68.2,64.9,68.5,64.9,68.5,64.4z M68.1,64.5C68,64.6,68.1,64.5,68.1,64.5
		L68.1,64.5z M76.9,64.8c-0.4,0.1-0.4,0.7-0.7,0.8c0,1.5-0.2,3.4-0.7,4.9c-0.3,0.8-0.1,2.2-0.4,2.4c-0.1,0.5-0.6,1.2-0.1,1.7
		c0.5,0,0.3-0.2,0.7-0.6c-0.1-0.3-0.1-0.7-0.3-1c0.6-1.6,0.4-3.8,1.3-5.6c-0.2-0.3,0.1-1,0.2-1.2C76.8,65.7,77.1,65.3,76.9,64.8z
		 M54.8,11.3L54.8,11.3C54.9,11.3,54.9,11.3,54.8,11.3z M72.2,73.2c0.2-0.1,0.3-0.7,0.1-0.8C72.1,72.5,71.9,73.1,72.2,73.2z
		 M68.9,65.1c0.1-0.3,0.3-0.7,0.1-0.9C68.9,64.6,68.8,64.9,68.9,65.1z M110.5,37c0,0.1,0,0.1,0,0.2c0.1,0,0.2-0.1,0.2-0.1
		c0,0.1,0.1,0.1,0.2,0.1C110.9,37,110.7,37,110.5,37z M111.1,51.3c0,0.1,0.1,0.2,0.1,0.3c0.1,0,0.2,0,0.2-0.1
		C111.4,51.3,111.2,51.3,111.1,51.3z M50.3,41.1c-0.2,0-0.2,0.4-0.3,0.2c-0.2,0.5,0.6,0.6,0.7,0.1C50.6,41.3,50.5,41.2,50.3,41.1z
		 M112.2,40.7c-0.1,0.3,0.2,0.5,0.6,0.3C112.6,40.8,112.5,40.5,112.2,40.7z M54.9,11.4c-0.1,0-0.2-0.1-0.1-0.2
		c-0.1-0.1-0.4-0.4-0.4-0.3c-0.1,0.1-0.4,0.4-0.1,0.7C54.7,11.7,54.8,11.5,54.9,11.4z M57.5,57.6c0.4,0,0.6-0.4,0.3-0.6
		C57.4,57.1,57.5,57.4,57.5,57.6z M112.3,36.9c-0.3,0-0.5-0.2-0.7-0.3c-0.1,0.2-0.5,0.3-0.6,0.6c0.4,0,0.6,0.6,1.2,0.2
		C112.2,37.2,112.3,37.1,112.3,36.9z M51,34.1c0,0.2,0.1,0.1,0.2,0.3c0.1-0.1,0.3-0.2,0.2-0.5C51.1,33.9,51.1,34,51,34.1z
		 M56.8,65.2c0.2,0.2,0.3-0.1,0.4-0.2C57,64.9,56.9,65.1,56.8,65.2z M77.7,73.3c0.2-0.2,0-0.6,0-0.9C77.7,72.8,77.5,73,77.7,73.3z
		 M57.1,53.1c-0.1,0.1-0.3,0.1-0.2,0.3c0.1,0,0.1-0.1,0.1-0.2c0.1,0,0.2,0,0.3,0C57.2,53.3,57.2,53.2,57.1,53.1z M56,53.3
		c-0.1,0.2-0.2,0.5-0.4,0.7c0.1,0.2,0.2,0.2,0.3,0.4c0.7,0,0.6-0.6,0.9-0.8C56.6,53.2,56.3,53.4,56,53.3z M54.5,42.6
		C54.5,42.7,54.5,42.7,54.5,42.6c0,0.2-0.2,0-0.4,0.2c0,0.2-0.1,0.4,0,0.6C54.7,44,55.2,43,54.5,42.6z M56.1,72.2
		c-0.2-0.1-0.3,0-0.3,0.2C56,72.5,56.1,72.5,56.1,72.2C56.1,72.3,56,72.3,56.1,72.2z M92.3,64c-0.5,1.3,0.9,2,1.5,1.3
		C94.2,64.4,93.3,63.5,92.3,64z M77.4,32.3C77.4,32.3,77.4,32.3,77.4,32.3C77.4,32.3,77.4,32.3,77.4,32.3
		C77.4,32.3,77.4,32.3,77.4,32.3z M68.4,40.5c0-0.4-0.2-0.9-0.2-1.3c0.1,0,0.1,0,0.2,0c0.1,0,0.1-0.1,0.1-0.2c0.1-0.1,0.1,0,0.2,0
		c0.1-0.9-0.6-2.2-0.3-3c-0.2-0.3,0-1.5,0.2-2.2c0,0,0,0,0,0c0,0,0,0,0-0.1c0-0.1,0.1-0.2,0.1-0.2c-0.1-0.1,0.1-0.3,0-0.3
		c0,0,0-0.1,0-0.2c0.1-0.3,0.3-0.7,0.4-1.1c0.1,0.1,0-0.2,0.3-0.2c0.2-0.6,0.6-1.5,0.9-2.1c0.2-0.1,0.4-0.4,0.5-0.8
		c0.1,0,0.1-0.1,0.2-0.1c0-0.3,0.2-0.3,0.1-0.5c0.2,0,0.3-0.3,0.2-0.5c0.1,0.1,0.1-0.2,0.1-0.2c-0.1,0.1-0.1,0-0.1,0
		c0.2-0.3,0.7-0.6,0.7-1.1c-0.1-0.1-0.2-0.1-0.4-0.1c-0.4,0.4-0.6,0.9-1.1,1.2c0,0,0,0,0.1,0c-0.2,0.5-0.7,0.8-0.8,1.3c0,0,0,0,0,0
		c-0.1,0,0,0,0,0.1c-0.2,0.4-0.4,0.6-0.5,1.1c0,0.1-0.1,0.1-0.1,0.1c0.1,0.2-0.1,0.5-0.3,0.6c-0.1,0.7-0.7,1.3-0.7,2.1
		c-0.1,0.1-0.1,0.2-0.2,0.2c0.2,0.4-0.1,0.9-0.1,1.3c-0.1,0.1-0.1,0.3-0.2,0.4c0.1,0,0.1,0,0.1,0.1c-0.1,0-0.1,0-0.1,0.1
		c0,0,0,0,0,0c0,0,0,0,0,0.1c0,0.1,0,0.1,0,0.2c-0.2,0.5-0.2,1.1-0.2,1.7c-0.1,0.5-0.2,1.4,0.1,2.1c-0.2,1,0.2,1.8,0.4,2.6
		C68.3,41.2,68.4,40.8,68.4,40.5z M71.7,26.8C71.6,27,71.6,26.7,71.7,26.8L71.7,26.8z M71.3,27.5C71.4,27.6,71.4,27.6,71.3,27.5
		C71.3,27.6,71.3,27.6,71.3,27.5C71.3,27.6,71.3,27.5,71.3,27.5z M71.3,27.8C71.4,27.7,71.3,27.9,71.3,27.8L71.3,27.8z M67.4,42.3
		v-0.2c0,0-0.1,0-0.2,0C67.1,42.2,67.2,42.3,67.4,42.3z M76.9,41.1C76.9,41.2,77,41.1,76.9,41.1L76.9,41.1z M76.4,33.2
		C76.4,33.2,76.4,33.2,76.4,33.2C76.4,33.2,76.4,33.2,76.4,33.2z M77.7,31.8c-0.1,0-0.1,0.1-0.1,0.1C77.6,31.8,77.6,31.8,77.7,31.8
		c-0.1,0.1-0.1,0.1-0.1,0.1c0,0,0-0.1-0.1-0.1c0,0-0.1,0.1-0.2,0c0.1,0.1,0,0.1,0,0.1C77.5,32,77.6,31.9,77.7,31.8z M75.9,40.8
		C75.9,40.8,75.9,40.7,75.9,40.8c-0.1,0.1,0.1,0.3,0.2,0.3c0.3,0,0.1-0.3,0-0.3c0-0.1-0.1-0.2-0.2-0.2
		C75.9,40.6,75.8,40.6,75.9,40.8C75.9,40.7,75.9,40.8,75.9,40.8C76,40.8,75.9,40.7,75.9,40.8z M75.9,40.6
		C76,40.6,75.9,40.7,75.9,40.6L75.9,40.6z M76.1,41C76,40.9,76.1,41.1,76.1,41L76.1,41z M76,40.8C76.1,40.7,75.9,40.8,76,40.8
		L76,40.8z M77.1,29.6c0-0.2,0.3-0.1,0.2-0.3c-0.5-0.2-1.6-0.5-2.2-0.5C75.9,29,76.6,29.1,77.1,29.6z M80,30.9L80,30.9
		c-0.1-0.1-0.2-0.1-0.2,0C79.8,31,79.9,30.9,80,30.9z M79.9,31c0.1,0.1,0.1,0.1,0.3,0.1c0,0,0,0,0,0c0-0.1-0.1-0.1-0.1-0.2
		C80,30.9,79.9,31,79.9,31z M79.6,22.8C79.6,22.8,79.6,22.8,79.6,22.8c0.1,0.1,0,0,0-0.1c0,0,0,0,0,0c0.1-0.1,0.1-0.1,0.1-0.2
		c-0.2,0.1-0.4,0-0.4,0.3c0.1,0,0.1,0.1,0.2,0c0,0,0,0,0,0C79.6,22.9,79.6,22.7,79.6,22.8z M80.1,30.9C80.2,31,80.2,31,80.1,30.9
		C80.2,31,80.2,31,80.1,30.9c0.1,0.1,0.2,0,0.2,0c0,0,0,0,0,0c0.1,0,0,0,0-0.1h0c0,0,0-0.1,0-0.1C80.3,30.8,80.1,30.8,80.1,30.9z
		 M67.2,35.3c-0.1,0-0.2,0-0.2,0.1c0,0.1,0.1,0.1,0.1,0.2C67.2,35.5,67.2,35.4,67.2,35.3z M75.3,39.9c0.1,0.1,0.2,0.2,0.3,0.4
		c0,0,0.1,0,0.1,0c0,0,0.1-0.1,0.1-0.1c-0.2-0.1-0.2-0.3-0.3-0.5C75.3,39.7,75.3,39.8,75.3,39.9z M75.5,40
		C75.6,40.1,75.5,40,75.5,40L75.5,40z M75.5,40.1L75.5,40.1L75.5,40.1L75.5,40.1L75.5,40.1z M79.8,31.2c0,0,0.1-0.1,0.1-0.1
		c-0.1,0-0.2,0-0.3,0c0,0,0.1-0.1,0.1-0.1c0,0-0.1,0.1-0.1,0c-0.1,0.1-0.4,0-0.4,0.2c0,0,0.1,0.1,0.1,0c0,0,0,0,0,0
		c0,0,0,0.1-0.1,0.1c0,0.1,0,0.1-0.1,0.2C79.3,31.4,79.6,31.1,79.8,31.2z M67.1,47.8c0,0.2,0.1,0.3,0.3,0.2c0-0.1,0-0.1-0.1-0.2
		C67.3,47.7,67.2,47.7,67.1,47.8z M77.1,41.9C77.1,41.9,77,42,77.1,41.9L77.1,41.9z M77.9,32c-0.1-0.1-0.1,0.1-0.2,0
		c-0.1,0.2-0.3,0.2-0.3,0.3C77.5,32.3,77.8,32.1,77.9,32c-0.1,0.1-0.1,0.1-0.1,0.1c0.1,0,0-0.1,0-0.1C77.8,32.1,77.8,32,77.9,32z
		 M77.5,32.2C77.5,32.2,77.4,32.3,77.5,32.2L77.5,32.2z M77.7,32C77.7,32,77.7,32.1,77.7,32L77.7,32z M77.7,32
		C77.7,32,77.8,32.1,77.7,32L77.7,32z M77.5,37.2C77.5,37.2,77.5,37.3,77.5,37.2C77.5,37.2,77.5,37.2,77.5,37.2z M77.3,32.4
		C77.3,32.3,77.3,32.4,77.3,32.4L77.3,32.4z M77.3,32.4C77.3,32.4,77.3,32.3,77.3,32.4C77.3,32.3,77.3,32.3,77.3,32.4
		C77.3,32.3,77.3,32.3,77.3,32.4C77.3,32.3,77.2,32.3,77.3,32.4z M69.4,47.4c0.1,0.2,0.3,0.3,0.5,0.2C70,47.4,69.6,47.3,69.4,47.4z
		 M69.2,46c-0.3,0.1-0.1,0.4-0.1,0.7c0.4,0.1,0.7,0.4,1,0.7c0.1,0,0.2-0.1,0.3,0c0.1-0.1,0.1-0.2,0-0.3C69.9,47,69.6,46.4,69.2,46z
		 M69.7,46.7C69.9,46.8,69.6,46.6,69.7,46.7L69.7,46.7z M69.7,46.9C69.7,46.9,69.7,46.9,69.7,46.9c0-0.1,0-0.1,0.1-0.1
		C69.8,46.8,69.8,46.9,69.7,46.9C69.8,46.9,69.7,46.9,69.7,46.9z M68.6,47.1c-0.2,0-0.3,0.2-0.5,0c-0.3,0.4-0.3,1.1,0.5,0.9
		C69,47.5,68.5,47.4,68.6,47.1z M70.4,43.4C70.4,43.4,70.4,43.4,70.4,43.4c-0.3,0.1,0.2,0.6,0.4,0.7c0.6,0,0.2-0.6,0-0.7
		c0-0.1-0.2-0.4-0.4-0.4c0,0.1-0.1,0.1,0,0.2c0.1,0,0.2,0.1,0.3,0.1C70.5,43.5,70.4,43.3,70.4,43.4z M70.4,43.2
		C70.6,43.1,70.5,43.3,70.4,43.2L70.4,43.2z M70.7,43.8C70.7,43.7,70.7,44.1,70.7,43.8L70.7,43.8z M70.6,43.4
		C70.7,43.4,70.4,43.5,70.6,43.4L70.6,43.4z M77.1,41.7C77.1,41.8,77.1,41.7,77.1,41.7C77,41.8,77,41.7,77.1,41.7
		C77,41.7,77,41.7,77.1,41.7C77,41.8,77,41.8,77,41.8c0.1,0,0.1,0,0.2-0.1C77.2,41.7,77.1,41.7,77.1,41.7z M77.2,41.8
		C77.1,41.7,77.1,41.8,77.2,41.8C77.1,41.7,77.2,41.7,77.2,41.8z M77.2,41.8C77.2,41.8,77.2,41.8,77.2,41.8
		C77.2,41.8,77.2,41.8,77.2,41.8z M70,42.3c-0.4-0.2-0.5-0.7-0.7-1.1c-0.3,0-0.2,0.3-0.3,0.5c0.3,0.2,0.5,0.5,0.6,0.8
		c0.1,0,0.2,0,0.2,0.1C70,42.5,70.1,42.4,70,42.3z M69.6,42L69.6,42L69.6,42L69.6,42L69.6,42z M69.6,41.8
		C69.7,41.9,69.5,41.7,69.6,41.8L69.6,41.8z M70.2,43.5c0-0.3-0.4-0.2-0.2-0.4c-0.2-0.2-0.2,0.1-0.4,0.1
		C69.9,43.7,70.1,43.4,70.2,43.5z M77.1,32.1C77.2,32.2,77.3,32.1,77.1,32.1c0.1-0.1,0.1-0.1,0.1-0.1C77.2,32,77.2,32.1,77.1,32.1z
		 M77.3,32.1C77.2,32.1,77.2,32.1,77.3,32.1C77.2,32.1,77.3,32.1,77.3,32.1z M77.3,32C77.3,32,77.3,32,77.3,32
		C77.3,32.1,77.3,32.1,77.3,32z M71.5,27.5C71.5,27.4,71.4,27.4,71.5,27.5C71.5,27.5,71.5,27.5,71.5,27.5z M73.8,21.5
		c-0.2,0.1-0.4,0.2-0.4,0.4c0.2,0.1,0.4-0.2,0.5-0.2C73.9,21.6,73.9,21.6,73.8,21.5z M73.7,22C73.8,22.1,73.7,21.8,73.7,22L73.7,22z
		 M68.6,26.7C68.6,26.7,68.5,26.7,68.6,26.7C68.6,26.7,68.6,26.7,68.6,26.7z M74.1,47.7C74.1,47.6,74.1,47.6,74.1,47.7
		C74.1,47.7,74.1,47.7,74.1,47.7z M73.7,35.9C73.7,36,73.7,36,73.7,35.9C73.7,36,73.7,36,73.7,35.9C73.7,36,73.7,35.9,73.7,35.9z
		 M73.5,25.5C73.4,25.5,73.4,25.5,73.5,25.5C73.4,25.5,73.5,25.6,73.5,25.5z M73.4,25.7C73.3,25.7,73.2,25.9,73.4,25.7L73.4,25.7z
		 M74.1,24.5c-0.1,0-0.1,0.1-0.3,0.1c0,0,0.1,0,0.1,0c0,0,0,0.1,0,0.1c-0.1,0-0.1-0.1-0.2-0.1c-0.1,0.1-0.2,0.1-0.3,0.1
		c0.1,0.1-0.1,0.2-0.1,0.3C73.8,24.9,74,24.9,74.1,24.5z M73.2,45.6c-0.1-0.1-0.2-0.2-0.3-0.2c0.1,0.2,0,0.1-0.1,0.2
		c-0.1,0-0.1-0.1,0-0.1c0-0.1,0,0-0.1,0c0,0.1,0,0.2,0.1,0.3C73,45.7,73,45.6,73.2,45.6z M73.1,45.5L73.1,45.5L73.1,45.5
		C73.1,45.5,73.1,45.6,73.1,45.5C73.1,45.5,73.1,45.5,73.1,45.5L73.1,45.5c-0.1,0-0.1,0.1-0.1,0.1C72.9,45.4,73,45.5,73.1,45.5z
		 M72.4,38.6C72.4,38.6,72.4,38.6,72.4,38.6C72.5,38.7,72.4,38.6,72.4,38.6z M73.2,25.1C73.2,25.1,73.2,25.1,73.2,25.1
		c0.1,0,0.2,0,0.1-0.1c0,0,0,0-0.1,0c0,0,0,0,0,0c-0.1,0.1-0.2,0.2-0.3,0.3C73.1,25.3,73.4,25.1,73.2,25.1z M73.2,25.2
		C73.2,25.2,73.3,25.1,73.2,25.2C73.2,25.2,73,25.3,73.2,25.2z M72.9,45.8C73,45.7,72.7,45.9,72.9,45.8L72.9,45.8z M71.9,26.3
		C71.9,26.2,71.9,26.2,71.9,26.3C71.8,26.3,71.9,26.2,71.9,26.3z M69.7,25.4c0,0.1,0,0.1,0,0.1C69.7,25.5,69.8,25.4,69.7,25.4z
		 M74.3,37c0,0,0-0.1,0-0.1C74.3,36.9,74.3,36.9,74.3,37C74.3,37,74.3,37,74.3,37z M75.2,21.4c0.2,0.1,0.5,0,0.8,0
		c0-0.2,0.1-0.2,0.2-0.3c0.2,0,0.4-0.1,0.5-0.3c0.1,0,0.1,0,0.2,0c0,0,0-0.1,0.2-0.1c0.3,0.1,0.8,0.2,1-0.2c0.1,0,0.1,0.1,0.1,0.1
		c0.2-0.1,0.5-0.3,0.6-0.5c0,0,0,0,0,0c0,0,0.1-0.1,0.1-0.1c-0.1,0-0.1,0-0.2,0c-0.2-0.2-0.7,0-1,0.2c-0.2,0-0.3,0.1-0.5,0.1
		c-0.7,0-1.7,0.3-2.3,0.8c0.1,0,0.2,0.1,0.3,0C75.2,21.2,75.2,21.3,75.2,21.4z M74.5,21.5C74.5,21.5,74.5,21.5,74.5,21.5
		c0.1,0,0.2-0.1,0.2,0c0,0,0,0,0,0.1c0.1,0,0-0.1,0-0.2c0,0,0,0,0,0c0-0.1,0.1-0.2,0-0.3c-0.2,0.1-0.5,0.2-0.4,0.4
		C74.4,21.6,74.5,21.5,74.5,21.5z M74.5,22C74.5,22,74.5,21.9,74.5,22c-0.1-0.2-0.2-0.3-0.3-0.4c-0.2,0.1-0.3,0.2-0.4,0.3
		C74,22.1,74.2,22.1,74.5,22z M79.8,20c0,0.1,0,0.1-0.1,0.2c0,0,0,0,0.1,0.1c0.3-0.1,0.5-0.2,0.5-0.4c0,0,0.1,0,0.2,0
		c0,0.2,0.2,0.1,0.2,0.3c0.5-0.3,1.3,0.2,1.7-0.1c-0.1,0-0.2-0.1-0.2-0.3c0,0,0,0,0.1,0c-0.2-0.6-0.8,0-1.1-0.2
		c0.1,0.2-0.1,0-0.2,0.1c0,0,0,0,0,0c-0.1,0-0.2,0-0.3,0.1c-0.1-0.1-0.3-0.1-0.5,0c0,0,0,0,0,0c-0.1,0-0.2,0-0.3,0
		C79.8,19.8,79.8,19.9,79.8,20c0-0.2-0.2-0.2-0.3-0.2c-0.1,0-0.1,0-0.2,0c0,0,0,0-0.1,0C79.2,20.1,79.6,20.2,79.8,20z M67,29.6
		C67,29.6,66.9,29.6,67,29.6C67,29.6,67,29.7,67,29.6z M79.9,31C79.9,31.1,79.9,31,79.9,31L79.9,31z M76.1,18.9
		c-0.1,0-0.3,0-0.3-0.1c0.1,0,0.5,0,0.2-0.1c-0.2,0-0.5,0-0.5,0.2C75.8,19,76,19.1,76.1,18.9z M78.8,23c0.1,0.2,0.3,0.2,0.5,0.2
		c0,0,0-0.1,0-0.1c-0.1-0.1-0.1-0.2-0.2-0.3C79,22.8,78.9,22.8,78.8,23z M68.4,27c0.1,0,0-0.1,0.1-0.2c0.3,0,0.9-0.8,1-0.9
		c0,0,0,0-0.1,0.1c0.1-0.1-0.2-0.1-0.1-0.2c0.1,0.1,0.2-0.1,0.2-0.2c-0.2-0.1-0.2,0.2-0.4,0.1c0,0.4-0.6,0.7-0.6,1c0,0-0.1,0-0.1,0
		C68.5,26.9,68.3,27,68.4,27z M69.3,25.9C69.1,25.9,69.5,26,69.3,25.9L69.3,25.9z M69.2,26C69.4,25.9,69.2,26.2,69.2,26L69.2,26z
		 M69,26.4C68.9,26.5,69.2,26.2,69,26.4L69,26.4z M68.8,26.5C69,26.6,68.7,26.7,68.8,26.5L68.8,26.5z M68.8,26.7
		C68.8,26.7,68.7,26.7,68.8,26.7C68.8,26.6,68.8,26.7,68.8,26.7z M74.1,24.9c-0.1,0.3-0.6,0.4-0.7,0.7c0,0-0.1,0-0.1,0
		c0,0.1-0.2,0.1-0.1,0.1c0.1,0,0-0.1,0.1-0.1c0.3,0.1,0.9-0.4,1-0.5c0,0,0,0-0.1,0c0.1-0.1-0.1-0.1,0-0.1c0.1,0.1,0.2,0,0.2-0.1
		C74.3,24.8,74.3,25,74.1,24.9z M73.6,25.5C73.6,25.5,73.6,25.6,73.6,25.5C73.6,25.6,73.6,25.5,73.6,25.5z M73.7,25.4
		C73.8,25.5,73.5,25.5,73.7,25.4L73.7,25.4z M73.9,25.3C73.9,25.3,73.9,25.3,73.9,25.3C73.9,25.3,73.8,25.4,73.9,25.3z M74.1,25.1
		C74.3,25.1,74.1,25.3,74.1,25.1L74.1,25.1z M74.2,25.1C74.1,25,74.3,25.2,74.2,25.1L74.2,25.1z M67.2,28.2c-0.1-0.3,0.2-0.5-0.1-1
		c-0.3-0.1-0.6-1-1.5-0.9c-0.5,1,0.3,1.5,0.5,2c0.2-0.1,0.5,0.1,0.9,0.2C66.9,28.3,67.2,28.3,67.2,28.2z M74.5,40.2L74.5,40.2
		c0-0.1-0.1-0.1-0.1-0.1C74.3,40.2,74.4,40.2,74.5,40.2z M68.6,27C68.4,26.9,68.5,27.2,68.6,27L68.6,27z M68.1,26.3
		c0-0.1,0.1-0.1,0-0.2c-0.1,0.1-0.2,0.2-0.2,0.4C68.2,26.6,68.3,26.3,68.1,26.3z M68.2,26.4C68.1,26.4,68.2,26.3,68.2,26.4
		C68.2,26.5,68,26.5,68.2,26.4z M85.6,41.2C85.6,41.2,85.7,41.3,85.6,41.2L85.6,41.2z M80.4,50.9c0-0.1-0.1,0,0-0.1
		c-0.2,0.1-0.5,0.1-0.6,0.1c0,0,0,0,0,0c-0.5,0.2-0.7-0.2-1.1-0.4c-0.2-0.1-0.4,0-0.6-0.1c-0.1-0.1-0.2-0.2-0.4-0.3
		c-0.4-0.1-0.8-0.2-1.1-0.3c0,0,0-0.1,0-0.1c-0.8-0.3-1.6-0.6-2.1-1.1c-0.2,0-0.4-0.1-0.6-0.2c0,0,0-0.1-0.1-0.1
		c-0.1-0.1-0.1-0.2-0.2-0.2c-0.2,0-0.3-0.2-0.3-0.4c-0.3-0.2-0.6-0.5-0.7-0.9c-0.2,0-0.1-0.2-0.2-0.3c-0.6-0.6-1.5-0.9-2-1.5
		c-0.1-0.3-0.4-0.5-0.4-0.7c-0.2-0.4-0.6-0.8-0.8-1.2c0-0.1,0-0.1,0-0.1c-0.1-0.3-0.5-0.9-0.7-1c0-0.1,0-0.2-0.1-0.3
		c0,0.1-0.1,0-0.1,0c0.1,0.6,0.5,1.4,0.6,1.9c0.3,0.2,0.4,0.6,0.7,0.9c0,0,0,0.1,0,0.1c0.3,0.2,0.4,0.6,0.5,1c0.4,0.2,0.3,0.8,0.6,1
		c0,0.1,0,0.1,0,0.1c0.4,0.4,0.7,1,1.4,1.2c0.1,0.2,0.4,0.2,0.5,0.4c0.4-0.1,0.8,0.2,1,0.5c0.5,0.2,0.9,0.3,1,0.6
		c0.1,0,0.2,0.1,0.3,0.1c0,0-0.1,0-0.1,0.1c-0.1,0-0.2-0.1-0.1-0.2c0-0.1,0,0-0.1,0c0,0.2,0.1,0.2,0.2,0.3c0.2-0.1,0.2-0.1,0.3-0.2
		c0.5,0.2,1,0.5,1.4,0.6c0,0.1,0,0.1,0.1,0.2c-0.2,0.1-0.4,0.2-0.5,0.4c0.1,0.7,1.5,0.9,1.7,0.1c0-0.1-0.1-0.1-0.1-0.2
		c0.4,0.1,0.8,0.2,1.1,0.4c-0.1-0.1,0.3-0.1,0.4-0.1c0.2,0.1,0.3,0.3,0.5,0.3c0.1,0,0.3-0.1,0.4-0.1c0.2,0,0.5,0.3,0.9,0.1
		c0-0.2,0.2-0.2,0.3-0.4C81,50.9,80.8,50.9,80.4,50.9z M68.7,42.4C68.7,42.4,68.7,42.4,68.7,42.4C68.7,42.4,68.7,42.4,68.7,42.4z
		 M69,43.2C68.9,43.1,69.1,43.3,69,43.2L69,43.2z M78.7,50.9C78.7,50.8,78.7,50.8,78.7,50.9C78.7,50.9,78.7,50.9,78.7,50.9z
		 M80.7,51.3C80.7,51.3,80.7,51.3,80.7,51.3C80.7,51.3,80.7,51.3,80.7,51.3z M80,54.9C80,54.9,80,54.9,80,54.9
		C80,54.9,80,54.9,80,54.9z M81.2,43.8C81.1,43.8,81.2,43.9,81.2,43.8L81.2,43.8z M85.2,32.3C85.2,32.3,85.2,32.3,85.2,32.3
		C85.2,32.3,85.2,32.3,85.2,32.3C85.2,32.3,85.2,32.3,85.2,32.3z M85.4,32.2c0,0-0.1-0.1-0.1-0.1C85.3,32.1,85.3,32.1,85.4,32.2
		C85.2,32.1,85.3,32.2,85.4,32.2z M85.3,32.1C85.4,32.2,85.3,32.1,85.3,32.1C85.3,32.1,85.3,32.1,85.3,32.1z M81.4,43.8
		C81.3,43.8,81.4,43.7,81.4,43.8L81.4,43.8z M84.8,31.9c-0.1,0.1-0.1-0.1-0.2,0C84.7,32,84.7,32,84.8,31.9c0,0.1-0.1,0.1-0.1,0.1
		c0,0,0,0,0,0c0,0,0.3,0.2,0.4,0.2C85.1,32.1,84.9,32.1,84.8,31.9z M84.8,32C84.8,32,84.9,31.9,84.8,32L84.8,32z M84.9,32
		C84.9,32.1,84.8,32,84.9,32L84.9,32z M85,32.1C85,32.2,84.9,32.1,85,32.1L85,32.1z M85.1,32.2C85.1,32.2,85,32.2,85.1,32.2
		L85.1,32.2z M85.2,32.2C85.2,32.2,85.2,32.3,85.2,32.2C85.2,32.3,85.2,32.3,85.2,32.2C85.2,32.3,85.2,32.3,85.2,32.2
		C85.3,32.3,85.2,32.3,85.2,32.2z M78.9,56.9C79,56.9,79,57,78.9,56.9C79,56.9,78.9,56.9,78.9,56.9z M76.9,51.8
		C76.9,51.9,76.9,51.8,76.9,51.8C76.9,51.8,76.9,51.8,76.9,51.8z M84.9,31.8c0,0.2,0.2,0.2,0.3,0.2c0-0.1-0.1-0.1,0-0.1
		c-0.1,0-0.1,0-0.2,0c-0.1,0,0,0-0.1,0.1C84.9,31.9,84.9,31.9,84.9,31.8c0.1,0.1,0.1,0.1,0.1,0.1C84.9,31.8,84.9,31.8,84.9,31.8z
		 M85,37.2C85,37.2,85,37.2,85,37.2C85.1,37.3,85.1,37.2,85,37.2z M85.2,32.3C85.3,32.4,85.3,32.3,85.2,32.3L85.2,32.3z M81.5,49.8
		C81.4,49.7,81.6,49.9,81.5,49.8L81.5,49.8z M86.1,51.7C85.9,51.7,86.2,51.8,86.1,51.7L86.1,51.7z M83.6,31.4
		C83.5,31.4,83.6,31.4,83.6,31.4c0.2,0.2,0.5,0.2,0.7,0.3c0.1,0.1,0.3,0.1,0.3-0.1c-0.4-0.2-0.8-0.5-1.2-0.5c0,0.1,0,0.1,0,0.1
		c0,0-0.1,0-0.1,0c0,0,0,0,0,0C83.4,31.3,83.5,31.4,83.6,31.4z M83.5,31.3C83.5,31.3,83.5,31.3,83.5,31.3
		C83.5,31.3,83.5,31.3,83.5,31.3C83.5,31.3,83.5,31.3,83.5,31.3z M83.5,31.3C83.5,31.3,83.4,31.4,83.5,31.3
		C83.5,31.3,83.5,31.3,83.5,31.3z M86.2,20.7c0.1,0-0.1,0.1,0,0.2c0,0-0.1,0-0.1,0c0.1,0,1,0.5,1.3,0.3c0.1,0,0.1,0.1,0.2,0.1
		c0.1-0.1-0.1,0-0.1-0.1c-0.1,0-0.1,0-0.1,0.1c-0.2-0.3-0.8-0.2-1-0.6c-0.2,0.2-0.3-0.1-0.4,0.1C86,20.7,86.2,20.8,86.2,20.7z
		 M87.2,21C87.2,21,87.2,21.1,87.2,21C87.2,21.1,87.1,21,87.2,21z M87,20.9C87.2,21,86.9,21.1,87,20.9L87,20.9z M86.8,20.9
		C86.5,20.8,86.9,20.9,86.8,20.9L86.8,20.9z M86.4,20.7C86.6,20.9,86.3,20.8,86.4,20.7L86.4,20.7z M86.3,20.7
		C86.2,20.9,86.4,20.6,86.3,20.7L86.3,20.7z M85.7,20.5c-0.1,0.1,0,0.1,0,0.1C85.8,20.6,85.7,20.5,85.7,20.5z M86.5,51.5
		C86.4,51.7,86.6,51.4,86.5,51.5L86.5,51.5z M93.2,45.9C93.1,46.1,93.3,45.8,93.2,45.9L93.2,45.9z M85.3,32C85.3,32,85.2,32,85.3,32
		C85.2,32.1,85.3,32.1,85.3,32z M87.4,50.8C87.5,50.8,87.5,50.8,87.4,50.8C87.5,50.8,87.4,50.8,87.4,50.8z M93.2,50.8
		C93.3,50.8,93.3,50.8,93.2,50.8C93.3,50.8,93.2,50.8,93.2,50.8z M85.5,41.7C85.5,41.7,85.5,41.6,85.5,41.7
		C85.5,41.7,85.5,41.7,85.5,41.7C85.5,41.7,85.4,41.7,85.5,41.7c-0.1,0-0.2,0-0.2,0.1c0.1,0,0.1,0,0.2,0.1
		C85.5,41.8,85.5,41.7,85.5,41.7z M85.3,41.7C85.3,41.7,85.4,41.7,85.3,41.7C85.3,41.8,85.3,41.7,85.3,41.7z M85.3,41.7
		C85.4,41.7,85.4,41.7,85.3,41.7C85.4,41.8,85.4,41.7,85.3,41.7z M85.5,41.9C85.5,41.9,85.4,41.8,85.5,41.9L85.5,41.9z M84,22.8
		c0,0.1-0.1,0.1-0.1,0.2c0,0,0,0,0,0.1c0.3,0,0.4,0,0.5-0.2c0,0,0.1,0,0.1,0c0,0.1,0.1,0.2,0.1,0.3c0.5-0.1,1,0.4,1.4,0.3
		c-0.1-0.1-0.1-0.2-0.1-0.3c0,0,0,0,0.1,0c0-0.5-0.6-0.2-0.8-0.4c0,0.2-0.1,0-0.1,0c0,0,0,0,0,0c-0.1,0-0.1,0-0.2,0
		c-0.1-0.1-0.2-0.1-0.4-0.1v0c-0.1,0-0.1-0.1-0.3-0.1C84.1,22.7,84.1,22.8,84,22.8c0-0.1-0.1-0.2-0.2-0.2c0,0-0.1,0-0.2,0
		c0,0,0,0-0.1,0C83.5,22.8,83.8,23,84,22.8z M81.8,49.7C81.7,49.8,81.9,49.6,81.8,49.7L81.8,49.7z M87.3,20.5c0-0.1-0.3-0.1-0.2-0.3
		c-0.1,0.1-0.3,0.1-0.4,0c-0.1,0-0.1,0.1-0.2,0.2c0-0.1,0-0.1-0.1-0.1c0.1,0,0.2,0,0.2-0.1c-0.1,0-0.2-0.1-0.3,0
		C86.5,20.6,86.8,20.5,87.3,20.5z M82,30.9c-0.1-0.1-0.3-0.1-0.4,0c-0.1,0-0.1,0-0.2,0c-0.3-0.1-0.7-0.1-1,0c0,0,0.1,0,0.1,0
		c0,0,0,0,0,0.1c0.1,0.1,0.2,0.1,0.3,0.1c0-0.1,0.1-0.1,0.1-0.1c0.1,0,0.2,0,0.2,0c0,0,0,0,0.1,0c0,0,0,0,0.1,0
		c0.1,0.1,0.3,0.2,0.4,0c0,0,0,0,0,0.1C81.8,31,82,31,82,30.9C82,30.9,82,30.9,82,30.9C82,30.9,82.1,30.9,82,30.9
		C82.1,30.9,82,30.9,82,30.9z M84.2,44.2c-0.2,0.3,0.4,0.5,0.2,0.4c-0.2,0,0.1-0.2,0-0.3C84.3,44.3,84.2,44.3,84.2,44.2z M74.7,46.9
		C74.6,46.8,74.8,47,74.7,46.9L74.7,46.9z M74.6,24.9c0,0,0.1-0.1,0-0.1C74.6,24.8,74.6,24.8,74.6,24.9z M78.6,23.3
		c0-0.1,0.1-0.1,0.1-0.3c-0.2-0.1-0.4-0.1-0.5,0c0,0,0.1-0.1,0.1-0.1c0,0,0-0.1,0-0.1c-0.1,0-0.2,0.1-0.1,0
		c-0.2,0.3-0.8-0.1-0.8,0.4c0.1-0.1,0.2,0.1,0.3,0c0,0,0,0,0,0c0,0.1-0.1,0.2-0.2,0.1c0.1,0.2,0,0.3-0.1,0.4
		C77.6,23.7,78.1,23.2,78.6,23.3z M75,47.1C75,47.1,75,47.1,75,47.1C75,47.1,75,47.1,75,47.1C75,47.1,75,47.1,75,47.1z M71.5,53.2
		c0.1,0.2,0.4,0.3,0.7,0.1C72.1,52.9,71.7,53,71.5,53.2z M75.3,24.2c0.3-0.1,0.7-0.2,0.9-0.3c0,0,0.1,0.1,0.1,0.1
		c0-0.1,0-0.1-0.1-0.1c0,0,0.1,0,0.1-0.1c0,0,0,0,0,0c0,0,0.1,0,0.1-0.1c0,0,0,0,0,0.1c0,0-0.2,0.1-0.1,0.1c0.1-0.1,0.5-0.1,0.4-0.2
		c0.2,0.1,0.3-0.1,0.4-0.1c0,0,0-0.1-0.1-0.1c-0.1,0.1-0.3-0.2-0.2,0c-0.1,0-0.1,0-0.1,0c0,0,0-0.1,0-0.1c0.1-0.1,0.2-0.3,0.2-0.5
		c-0.7,0-1.6,0.6-2.4,1C74.7,24.4,75.1,24.5,75.3,24.2z M77.1,23.6c0,0.1-0.1,0-0.2,0C77,23.6,77,23.6,77.1,23.6z M73.1,52.9
		C73,53,73.1,53.1,73.1,52.9C73.1,53,73.1,52.9,73.1,52.9z M78.3,36.3c0,0.1-0.1,0.1-0.2,0.1c-0.1,0.2,0.2,0.5-0.2,0.5
		c0.2,0,0.5,0.3,0.7,0.1c-0.2-0.1,0-0.1,0.2-0.1c0-0.2-0.1-0.2,0-0.3C78.6,36.6,78.6,36.3,78.3,36.3z M77.9,31.9
		C77.9,31.9,78,31.9,77.9,31.9C77.9,31.9,77.9,31.9,77.9,31.9z M78,42.4C77.9,42.4,78,42.5,78,42.4L78,42.4z M78.7,23
		C78.8,23.1,78.8,22.8,78.7,23L78.7,23z M75.1,44.9c0-0.2-0.2,0.1-0.1-0.2c-0.2,0-0.2,0.1-0.2,0.2c0.2,0.1,0.2-0.1,0.3,0.1V44.9z
		 M78.1,42.5C78.1,42.5,78.1,42.5,78.1,42.5C78.1,42.5,78.1,42.5,78.1,42.5C78.1,42.5,78.1,42.5,78.1,42.5z M77.9,31.6
		c0,0.2,0.2,0.2,0.3,0.1c0.2,0,0.3-0.1,0.4-0.1c0,0,0,0,0,0c0,0,0,0,0,0c0,0,0,0,0.1,0c0,0,0,0,0,0c0,0,0,0,0,0c0,0,0,0,0,0.1
		c0,0-0.1,0-0.1,0c0.1-0.1,0.3,0,0.2-0.1c0.1,0,0.1,0,0.2-0.1c0,0,0,0,0,0c0,0-0.2-0.1-0.1,0c0,0,0,0-0.1,0c0,0,0,0,0,0
		c0-0.1,0.1-0.1,0.1-0.2C78.7,31.1,78.3,31.4,77.9,31.6z M79.1,31.4C79.1,31.4,79.1,31.4,79.1,31.4C79,31.3,79.1,31.4,79.1,31.4z
		 M84.6,42.4C84.5,42.5,84.6,42.4,84.6,42.4L84.6,42.4z M82.4,31.1c0.1,0,0.2,0,0.2-0.1c0,0,0,0,0.1,0c0,0.1,0,0.1,0.1,0.1
		c0.2,0,0.5,0.2,0.6,0.2c-0.1,0-0.1-0.1-0.1-0.1c0,0,0,0,0,0c0-0.2-0.3-0.1-0.4-0.2c0,0.1,0,0-0.1,0c0,0,0,0,0,0c0,0-0.1,0-0.1,0
		c0-0.1-0.1-0.1-0.2-0.1v0c0,0-0.1,0-0.1,0c0,0,0,0.1-0.1,0.1c0-0.1,0-0.1-0.1-0.1c0,0,0,0-0.1,0c0,0,0,0,0,0c0,0.1,0.1,0.2,0.2,0.1
		C82.4,31,82.4,31,82.4,31.1C82.4,31.1,82.4,31.1,82.4,31.1z M79.9,22.6c0.1,0.1,0.1,0.1,0.2,0.1c-0.1,0-0.1,0.1-0.1,0.2
		c0.2,0.1,0.4,0.2,0.6,0.2c0-0.1,0.1-0.2,0.3-0.2c0.2,0.1,0.3,0,0.5-0.1c0,0,0.1,0,0.1,0c0,0,0-0.1,0.1,0c0.1,0,0.1,0.1,0.2,0.1
		c0.1,0.1,0.1,0.2,0.2,0.3c0-0.1,0.1-0.1,0.1-0.2c0.1,0,0.3,0,0.4-0.1c0,0,0.1,0.1,0.1,0.1c0.2-0.1,0.5-0.1,0.6-0.2c0,0,0,0,0,0
		c0,0,0.1,0,0.1-0.1c-0.1,0-0.1,0-0.2-0.1c-0.2-0.2-0.5-0.2-0.8-0.1c-0.1,0-0.3,0-0.4,0C81.4,22.4,80.6,22.3,79.9,22.6z M75.8,50.8
		C75.8,50.9,75.9,50.9,75.8,50.8C75.9,50.8,75.8,50.9,75.8,50.8z M78.9,22.6c-0.2,0-0.4,0-0.4,0.2c0.2,0.1,0.4,0,0.4,0V22.6z
		 M75.4,42.7c0,0.1,0.1,0.2,0.3,0.1C75.7,42.6,75.5,42.6,75.4,42.7z M84.6,31.9C84.6,31.9,84.6,31.9,84.6,31.9
		C84.6,31.9,84.6,31.9,84.6,31.9z M80.4,44.3C80.4,44.3,80.4,44.3,80.4,44.3c-0.2,0.1-0.3-0.1-0.5-0.2c-0.1,0-0.2,0-0.3-0.1
		c-0.1,0-0.1-0.1-0.2-0.1c-0.2-0.1-0.4-0.1-0.5-0.1c0,0,0,0,0,0c-0.4-0.2-0.8-0.3-1-0.5c-0.1,0-0.3-0.1-0.4-0.2
		c-0.1,0-0.2-0.1-0.2-0.2c-0.1-0.1-0.3-0.2-0.3-0.4c-0.1,0-0.1-0.1-0.1-0.1c-0.3-0.3-0.7-0.4-1-0.7c0-0.1-0.2-0.2-0.2-0.3
		c-0.1-0.2-0.3-0.4-0.4-0.6c0,0,0-0.1,0-0.1c0-0.1-0.2-0.4-0.3-0.5c0-0.1,0-0.1-0.1-0.1c0,0,0,0-0.1,0c0,0.3,0.2,0.7,0.3,0.9
		c0.1,0,0.1,0.1,0.1,0.1c-0.1,0-0.2-0.1-0.4-0.1c0.1,0.2-0.1,0.3-0.1,0.5c0.2,0.1,0.3,0.3,0.5,0.3c0.2-0.1-0.1-0.3,0.3-0.2
		c0,0,0,0,0,0c0,0.1,0.1,0.2,0.1,0.3c0.2,0.1,0.1,0.4,0.3,0.5c0,0,0,0,0,0.1c0.2,0.2,0.3,0.5,0.7,0.6c0,0.1,0.2,0.1,0.2,0.2
		c0.2,0,0.4,0.1,0.5,0.3c0.2,0.1,0.4,0.2,0.5,0.3c0.3,0.1,0.6,0.3,0.9,0.4c0,0,0,0.1,0,0.1c-0.1,0-0.2,0.1-0.2,0.2
		c0.1,0.3,0.7,0.4,0.8,0.1c0,0,0-0.1-0.1-0.1c0.2,0,0.4,0.1,0.5,0.2c0-0.1,0.1-0.1,0.2-0.1c0.1,0,0.2,0.1,0.3,0.1
		c0.1,0,0.1-0.1,0.2-0.1c0.1,0,0.2,0.1,0.4,0.1c0-0.1,0.1-0.1,0.1-0.2c-0.1-0.1-0.2-0.1-0.4-0.1c0,0-0.1,0,0-0.1
		C80.6,44.3,80.4,44.3,80.4,44.3z M75.2,40.7C75.2,40.6,75.3,40.7,75.2,40.7L75.2,40.7z M84.4,42.5C84.4,42.5,84.4,42.5,84.4,42.5
		C84.4,42.5,84.4,42.5,84.4,42.5C84.4,42.5,84.4,42.5,84.4,42.5z M77.2,45.3C77.2,45.3,77.2,45.3,77.2,45.3
		C77.3,45.3,77.2,45.2,77.2,45.3z M77.2,45.3C77.2,45.3,77.2,45.3,77.2,45.3C77.1,45.3,77.2,45.4,77.2,45.3z M78.8,47.9
		c0,0.8,0.2,1.2,1,1.2C80.5,48.3,79.5,47.5,78.8,47.9C79,47.8,78.9,48,78.8,47.9z M78.2,44.9c0-0.1-0.1-0.1-0.1,0
		c-0.2,0.1-0.5,0-0.6,0.2c0.1,0.1,0.4,0,0.5-0.1C78,45,78.1,44.9,78.2,44.9C78.2,44.9,78.2,44.9,78.2,44.9
		C78.2,44.8,78.2,44.9,78.2,44.9z M77.7,45C77.8,45,77.7,45.1,77.7,45L77.7,45z M77.9,45C77.9,44.9,77.9,44.9,77.9,45
		C77.9,45,77.9,45,77.9,45z M75.3,52.1c0-0.2-0.2-0.1-0.3,0c-0.4,0.1-1.1,0-1.3,0.3c0.3,0.2,0.8,0,1.1-0.2
		C74.9,52.3,75.1,52.2,75.3,52.1c0,0-0.1,0-0.1-0.1C75.3,52,75.2,52.1,75.3,52.1z M74.2,52.4C74.3,52.3,74.1,52.5,74.2,52.4
		L74.2,52.4z M74.5,52.3C74.5,52.2,74.6,52.2,74.5,52.3C74.6,52.3,74.5,52.2,74.5,52.3z M73.1,52.9c0.1,0,0,0.1,0.1,0.1
		C73.3,53,73.2,52.8,73.1,52.9z"/>
</g>
</svg>
