<?xml version="1.0" encoding="utf-8"?>
<!-- Generator: Adobe Illustrator 18.0.0, SVG Export Plug-In . SVG Version: 6.00 Build 0)  -->
<!DOCTYPE svg PUBLIC "-//W3C//DTD SVG 1.1//EN" "http://www.w3.org/Graphics/SVG/1.1/DTD/svg11.dtd">
<svg version="1.1" id="Warstwa_1" xmlns="http://www.w3.org/2000/svg" xmlns:xlink="http://www.w3.org/1999/xlink" x="0px" y="0px"
	 viewBox="0 0 35 40" enable-background="new 0 0 35 40" xml:space="preserve">
<g>
	<path d="M7,3.3C7,3.2,7,3.1,7,3c0,0,0-0.1-0.1-0.1C6.7,1.3,5.2,0,3.5,0C1.7,0,0.3,1.3,0.1,3C0,3,0,3,0,3c0,0.1,0,0.2,0,0.3
		c0,0.1,0,0.1,0,0.2c0,1.4,0.8,2.6,2,3.2V38c0,0.9,0.7,2,1.5,2C4.4,40,5,38.9,5,38V6.6c1.2-0.6,2-1.8,2-3.2C7,3.4,7,3.3,7,3.3z
		 M33,8H6v18h27c1.1,0,2-0.8,2-2V10C35,8.8,34.1,8,33,8z M15.3,17.2c-0.5,0.4-1.2,0.6-2.2,0.6h-1.5V20c0,0.3-0.1,0.6-0.2,0.7
		C11.2,20.9,11,21,10.8,21c-0.2,0-0.4-0.1-0.6-0.2C10.1,20.6,10,20.4,10,20V14c0-0.4,0.1-0.6,0.2-0.8c0.2-0.1,0.4-0.2,0.8-0.2h2.1
		c0.6,0,1.1,0,1.4,0.1c0.3,0.1,0.6,0.2,0.8,0.4c0.2,0.2,0.4,0.5,0.5,0.8c0.1,0.3,0.2,0.6,0.2,1C16,16.2,15.8,16.8,15.3,17.2z
		 M23.9,18.3c-0.1,0.4-0.2,0.8-0.4,1.1c-0.2,0.3-0.4,0.6-0.7,0.9c-0.2,0.2-0.5,0.3-0.7,0.5c-0.3,0.1-0.5,0.2-0.8,0.2
		c-0.3,0-0.6,0.1-1,0.1h-2.2c-0.3,0-0.5,0-0.7-0.1c-0.2-0.1-0.3-0.2-0.3-0.4c0-0.2-0.1-0.4-0.1-0.6V14c0-0.3,0.1-0.6,0.2-0.8
		c0.2-0.2,0.4-0.2,0.8-0.2h2.2c0.6,0,1,0.1,1.4,0.2c0.4,0.1,0.8,0.3,1.1,0.6c0.9,0.7,1.3,1.8,1.3,3.3C24,17.5,24,17.9,23.9,18.3z
		 M30.8,14.1c-0.1,0.1-0.3,0.2-0.6,0.2h-3.5v2h2.9c0.3,0,0.5,0.1,0.6,0.2c0.1,0.1,0.2,0.3,0.2,0.4c0,0.2-0.1,0.3-0.2,0.4
		c-0.1,0.1-0.3,0.2-0.6,0.2h-2.9V20c0,0.3-0.1,0.6-0.2,0.7C26.2,20.9,26,21,25.8,21c-0.3,0-0.5-0.1-0.6-0.2
		c-0.2-0.2-0.2-0.4-0.2-0.7V14c0-0.2,0-0.4,0.1-0.6c0.1-0.1,0.2-0.3,0.4-0.3C25.5,13,25.7,13,26,13h4.2c0.3,0,0.5,0.1,0.6,0.2
		c0.1,0.1,0.2,0.3,0.2,0.4C31,13.8,30.9,13.9,30.8,14.1z M21,14.1c-0.3-0.1-0.8-0.2-1.2-0.2h-1v6.2h1.2c0.3,0,0.5,0,0.6,0
		c0.1,0,0.3-0.1,0.5-0.1c0.2-0.1,0.3-0.2,0.4-0.3c0.5-0.5,0.8-1.4,0.8-2.7c0-0.9-0.1-1.6-0.3-2C21.7,14.5,21.4,14.2,21,14.1z
		 M12.8,13.9h-1v2.7h1c0.4,0,0.6,0,0.9-0.1c0.2-0.1,0.4-0.2,0.5-0.4c0.1-0.2,0.2-0.5,0.2-0.8c0-0.4-0.1-0.7-0.3-0.9
		C13.9,14,13.4,13.9,12.8,13.9z"/>
</g>
</svg>
