<?xml version="1.0" encoding="utf-8"?>
<!-- Generator: Adobe Illustrator 18.0.0, SVG Export Plug-In . SVG Version: 6.00 Build 0)  -->
<!DOCTYPE svg PUBLIC "-//W3C//DTD SVG 1.1//EN" "http://www.w3.org/Graphics/SVG/1.1/DTD/svg11.dtd">
<svg version="1.1" id="Warstwa_1" xmlns="http://www.w3.org/2000/svg" xmlns:xlink="http://www.w3.org/1999/xlink" x="0px" y="0px"
	 viewBox="0 0 344 101" enable-background="new 0 0 344 101" xml:space="preserve">
<g>
	<path fill="#CF2529" d="M44.5,84.3l-2.2,0.2L41.1,85c-1.5-0.1-2.7,0-3.8,0.2l-4.2,0.9c-0.3,0.2-0.9,0.5-1.7,0.6l-3.8,1.6l-3.2,0.4
		c-1.3,0.6-2.5,1-3.6,1L19,90.4c-3.1,1.2-5.7,1.9-7.8,2.1l-1.9,0.1l0.1-0.9l2.1-3.2l0.5-0.3l0.7-1.6c1.5-1.7,2.4-3.3,2.9-4.7l2-2.3
		c0.9-2,2-3.6,3.4-4.8l0.1-0.9l1.5-2.2c1.5-1.6,2.6-3.3,3.4-5.1l1.6-1.4c0.4-1.5,0.9-2.8,1.7-3.6c0.3-0.2,0.8-0.8,1.3-1.6l0.6-1.2
		l1.2-2.2c0.5-0.6,0.9-1.1,1.3-1.4c0.4-0.4,0.7-0.9,0.9-1.7c0.7-0.7,1.3-1.5,1.7-2.3c0.9-1.1,1.5-2,1.9-2.8l1-1.6l1.3-1.9l2-2.3
		l0.1-0.8c1.5-2.3,2.5-4.5,2.8-6.6c-1.1-1.8-2.6-2.8-4.5-3.2l-0.5,0.1c-0.6,0.7-1,1.2-1.3,1.6l-0.6-0.1c-1.3,0.6-3.1,1.3-5.3,1.9
		l-1.6,0.3c-2.1,0.8-3.9,1.3-5.5,1.4c-1,0.6-1.9,0.9-2.8,1.1l-4.4,1.1l-1.2,0.8l-0.6-0.1l-5.2,1.3l-4.2-0.2
		c-1.8,1.8-1.6,3.5,0.5,5.1l2,0.2l1.6-0.3l2.2-1l1.9-0.1l1.7-0.9c1.4-0.1,2.8-0.4,4-0.8l1.1-0.2l0.6-0.7l0.6,0.2
		c0.8-0.5,1.6-0.8,2.4-0.8l2.8-0.8l0.7-0.4l3.9-1.1l0.9,0.1l0.4-0.6c1.3,0.1,2.4,0,3.4-0.4l-0.5,1.5l-1.5,2.2
		c-0.4,1.4-1.1,2.7-2,3.7l-5.1,7.3c-0.6,1.4-1.5,3.1-2.8,5l-0.5,0.3c-0.5,1.2-1.1,2.3-1.8,3.2l-2.3,3.7l-0.5,0.4l-0.6,1
		c-0.8,1.4-1.5,2.6-2.3,3.5l-0.6,0.7l-1,1.8c-1,1.3-1.7,2.5-2.3,3.5c-0.2,0.6-0.6,1-1,1.3c-0.4,0.3-0.6,0.6-0.5,0.9L10.7,82l-0.9,1
		l-0.6,1.2l-1,1.5l-5,7.6c-1.3,0.8-2.3,1.7-3,2.5c0,0.5-0.1,1.3-0.1,2.2l0.6,0.2c0.6,1.3,1.5,2.2,2.5,2.7l0.7-0.4
		c1.9-0.4,3.5-1,4.8-1.8l0.7-0.2l1.3-0.5l3.3-0.9l0.7-0.4l2.8-0.9l7-2c1.3-0.5,2.4-1,3.2-1.5l0.6,0.2l2.1-0.7l1.8-0.6
		c1.6-0.3,2.8-0.8,3.8-1.4c0.8,0.2,1.5,0.2,2.2-0.1c2-0.8,4-1.1,5.8-0.9c1.6-1.2,3.2-1.9,4.8-2.1l0.9-1l-1.8-2.1L44.5,84.3z
		 M67,63.8l-0.3,0.1c-5.9,2.8-9.5,7.1-10.9,12.8c0.7,0.3,1.3,0.3,1.8,0.2l0.4-1l0.8-0.2l0.2-0.6l1.2-1.2l3.8-4.6l2.1,0.1
		c-0.9,4.1-3.1,6.9-6.5,8.4c-1.8,2.9-3.8,3.4-6.2,1.5c0.4-1.9,0.5-3.5,0.2-5c-1.3-0.7-2.6-0.8-3.9-0.4c-2.6,4.5-2.2,7.9,1.2,10.4
		c4.2,1.1,7.8,0.4,11-2.3c4.5-2.7,7.4-6.2,8.7-10.6C72.8,67.6,71.6,65,67,63.8z M104.3,51.8c-9-3.5-15.7,0.7-20,12.6
		c-0.2,2.8,0,5.4,0.9,7.6l0.3,1.7l1.3,0.5l0.6-0.6c-0.9-3.9-0.6-7.5,1-10.7c1.5-5.4,5-8.6,10.3-9.5l0.5,0.4c1.4,0.4,2.6,0.8,3.5,1.5
		C102.5,62.4,100,68,95,72.1c-3.4,4.4-6.8,5-10.2,1.8l-0.5-0.3L83.6,72c-0.2-0.9-0.4-1.7-0.7-2.3l0.1-0.5l-0.3-1.4l0.2-0.5
		c0.7-7.6,2.3-14.5,5-20.8c0.7-4.1,0-5.5-2.1-4l-0.6,1.2c-0.5,1.5-0.9,2.5-1.1,3l-1.2,3.6c-0.5,1-0.7,1.7-0.8,2.2
		c-0.5,2.4-1,4.3-1.5,5.7c-0.1,1-0.3,1.6-0.4,1.8c0,1.3-0.2,2.3-0.4,3c0.3,1.3,0.2,2.4-0.3,3.5l0.6,0.4l-0.4,1.5
		c1.7,10.1,6.2,12.9,13.5,8.5c8.1-5.1,12.4-12.4,12.9-22l-0.6-0.3C105.5,53.4,105.1,52.5,104.3,51.8z M132.3,50.4l-0.3,0.1
		c-5.9,2.8-9.5,7.1-10.9,12.8c0.7,0.3,1.3,0.3,1.8,0.2l0.4-1l0.8-0.2l0.2-0.6l1.2-1.2l3.8-4.6l2.1,0.1c-0.9,4.1-3.1,6.9-6.5,8.4
		c-1.8,2.9-3.8,3.4-6.2,1.5c0.4-1.9,0.5-3.5,0.2-5c-1.3-0.7-2.6-0.8-3.9-0.4c-2.6,4.5-2.2,7.9,1.2,10.4c4.2,1.1,7.8,0.4,11-2.3
		c4.5-2.7,7.4-6.2,8.7-10.6C138.1,54.3,136.9,51.7,132.3,50.4z M174.4,41.9c5.1-1,6.3-2.2,3.6-3.6l-0.6,0.4l-5.6,0.9l-2.8,1.3
		l-0.5-0.1c-1,0.7-1.9,1.1-2.8,1.3c-2.4,1.4-4.1,2.6-5.1,3.4c-0.5,0.1-0.9,0.3-1.3,0.7l-0.2,0.5l-1.2,2.4c-1.1-0.1-2,0.4-2.6,1.3
		l-0.1,0.5c-0.2,0.7-0.2,1.3-0.1,1.9l-0.2,2.7l-0.9,1.4l-0.1,0.7c-0.5,0.6-0.9,1.1-1.1,1.6c-1.1,2.8-2.3,5-3.7,6.5
		c-0.8-3-0.6-5.8,0.7-8.3c-0.5-1.7-1.5-2.7-3-3c-0.7,0.6-1.2,1.1-1.7,1.3l-0.2,2.7c0,1.4-0.2,2.7-0.4,3.9l0.6,1.6
		c-0.4,1.9-0.4,3.5,0.1,5c0.6,0.7,1.1,1.2,1.3,1.7c4-0.5,6.5-2.5,7.4-6c1-1.2,1.5-2.4,1.6-3.7c0.6-0.1,1-0.5,1.2-1.2l0.4,0.4
		l0.5,1.1c1.2,1.8,2,3.5,2.4,5c1.9,0.7,3.6,0.6,5.1-0.5l0.1-0.8l-0.2-1.9c-1.3-2.3-1.7-4.4-1.3-6.4l-0.5-0.2c0-0.8-0.2-1.4-0.6-1.8
		l0.4-1.7c-0.4-1.3-0.5-2.8-0.1-4.3C166.3,45,170.1,42.8,174.4,41.9z M184.1,48.7c-0.7-0.8-1.5-1.2-2.5-1.2l-0.5,0.1
		c-0.7,1.1-1.3,2.2-1.6,3.2l0.6,1.3l-0.5,0.6c0.1,2.1-0.1,3.9-0.6,5.5c1,3.8,3.1,4.3,6.5,1.5c-0.5-1.6-1.2-3-2-4.1
		C184.1,52.9,184.3,50.6,184.1,48.7z M190.6,25.1c-2.6,1.9-2,4.5,1.9,8.1l0.9,0.1l0.2-1.7c1-1.7,1.3-3.2,1.1-4.4
		C193.4,25.7,192,25,190.6,25.1z M210.2,32.4l-0.5,0.1c-6.9,2.4-11.7,6.5-14.6,12.2c0.4,5.8,2.7,10.1,6.9,12.9
		c1.3,1.6,2.6,2.7,3.7,3.5c1.1,1.3,1.9,2.5,2.5,3.6c-0.2,0.9-0.2,1.5-0.1,2l-0.9,1.4c-0.1,1-0.4,1.9-1,2.7c-1.3,1.6-2.3,3.1-2.8,4.6
		c0.9,0.2,1.7,0.1,2.5-0.2c8.1-7.3,7.7-13.8-1.2-19.3l-1-1.5C220.3,40.7,222.4,33.4,210.2,32.4z M208.9,44.7l-1.4,1.6l-4.1,3.3
		c-1.1,0.2-2,0.6-2.8,1.1c-3.1-5.6-0.1-10.5,9-14.7c4-0.3,4.8,1.4,2.6,5.2l-2.7,3.1L208.9,44.7z M251.5,44.6l-3,0.1l-1.5,0.6
		l-6.1,1.8l-0.6-0.2c-1.9,0.4-3.5,0.4-4.9-0.1l0.3-2.4l0.6,0.1c0-1.1,0.3-1.9,1.1-2.4l0.2-0.5l0.6-0.7l0.1-0.8
		c0.9-0.9,1.5-1.8,1.9-2.8l2.6-4.3c-0.3-2.4-1.6-3.6-3.7-3.5l-1.5,0.6l-2,0.7l-1.7,0.6l-1.9,1.2l-0.5,0.4c-1.3,0.6-2.3,1.4-3.1,2.3
		c-1.9,0.9-3.5,2.1-4.6,3.6l-0.8,0.2l-0.8,2.6c0.8,1.3,1.5,2.2,2.2,2.8l3.6-0.7c-0.3-0.8-0.5-1.5-0.6-2l0.6-0.9l4.8-4.2
		c1.5-0.7,2.6-1.4,3.6-2.1c0.4,0.3,0.6,0.7,0.5,1.3c-0.8,0.7-1.4,1.5-1.8,2.4c-0.4,0.9-1.2,1.8-2.2,2.8c-0.5,1.7-1.4,3.2-2.5,4.5
		l-0.4,3.6c1.1,1.2,2.3,2,3.5,2.5c1-0.2,1.9-0.2,2.6,0l4.9-1l1.5-0.6c1.6-0.3,2.6-0.6,3.1-0.9l1.6-0.1l1-0.7c1.2-0.2,2.2-0.6,3-1.2
		l1.5-0.3l2.8-0.8c0-0.7-0.1-1.3-0.4-1.8L251.5,44.6z M291.8,31c-0.2-1.1-0.8-1.5-1.7-1.1c-5.8,4.8-9.6,3.7-11.4-3.2
		c0.5-1.4,0.7-2.8,0.6-4c-1-0.9-2-1.4-3.2-1.3c-0.7,0.6-1.2,1.1-1.4,1.5c-0.1,4.5-1.3,8.2-3.9,10.9c-1.3,4.5-3.3,5.5-5.9,3l0.6-2.8
		c0.2-1.3,0.3-2.4,0.3-3.2c0.3-1,0.4-1.9,0.4-2.7c-1-0.8-2-1.3-3-1.6c-1.1,0.4-1.9,0.9-2.4,1.5c-0.1,0.3,0,0.6,0.2,0.9
		c-0.7,1.3-1.1,2.5-1.2,3.6l0.2,2.2l0.1,1.7c0.3,0.9,0.4,1.8,0.3,2.6c-3.3,7.5-3.1,10.7,0.8,9.8c0.1-0.5,0-0.9-0.3-1.4l0.4-0.6
		l0.6-1.6l0.4-0.3c0.2-1.3,0.6-2.5,1.2-3.4c5.5,1.8,9.7-1.3,12.4-9.3l0.7,0.1l-0.1,0.5l0.3,0.4c1.3,1.5,2.5,2.6,3.6,3.4l0.9,0.8
		C286,36.2,289.4,34.1,291.8,31z M303,0.1l3.6,2.4C306.3,0.6,305.1-0.2,303,0.1z M302.9,0.1c-0.9,0.9-1.3,1.8-1.2,2.8
		c0.4,1.1,1,1.9,1.8,2.2c0.6,3.3,1.7,4.7,3.4,4.2l0.1-0.8l-0.1-1.2c0-1.6,0-2.9,0.2-4L302.9,0.1z M300.9,20.5l-1,1l0.2,1.1l-0.4,1
		l0.1,3.4c-0.3,1-0.5,1.8-0.5,2.5l-0.4,6.9l0.2,1.1l-0.1,1.4c0.1,0.4,0.1,1,0,1.8c0.2,1,0.3,1.9,0.4,2.7c0,0.4-0.1,0.8-0.1,1.2
		c0,0.4,0,0.8,0,1.1c0,0.3,0,0.9,0.1,1.7l0,1.2c0.2,0.9,0.2,1.7,0.2,2.5l0.2,3.2l0,0.8l-0.3,0.7l0.2,0.8l0,1.2
		c-0.2,2-0.3,3.7-0.1,5.2l-0.3,0.5c-0.2,3.1-0.9,5.7-2.2,8c-1.4-0.8-2.4-1.7-3.1-2.8l-0.2-0.7c-1.1-2.2-1.9-4-2.3-5.5
		c0.1-0.8,0.1-1.5-0.1-2.2l0.1-0.6l-0.1-1.4c0.2-1,0.2-1.9,0.1-2.6l0.3-0.7l0.1-2.2l0.5-0.7c0.1-0.9,0.3-1.8,0.5-2.5
		c0.1-1.5,0.4-2.8,1-4l-0.1-0.6c0.3-1.5,0.4-2.9,0.1-4l-2,0.6l-1.1,2.6l-0.7,1.3l-1.6,9.7l-0.4,1.1c0,1.5-0.1,2.7-0.2,3.8
		c0.4,1.9,0.6,3.5,0.6,4.8c5,11.7,9.5,13.5,13.4,5.4l0-1.6c0.5-1,0.7-2,0.6-3.1l0.2-0.6l-0.2-0.7l0.2-0.8c-0.1-0.6-0.1-1.3,0-1.8
		l-0.1-1.5l-0.1-1.4l0.2-3c-0.2-1.4-0.2-2.6-0.1-3.4l0-2.8l-0.1-1.2l0-1l-0.2-2.8l0-1l-0.2-0.7l-0.1-3.4l0-1.4l-0.1-1.2
		c0.1-1.4,0.1-2.6,0-3.6c0.3-1.1,0.4-2.2,0.2-3.2l0.5-0.7L303,29c0-1.5,0.1-2.7,0.3-3.7c0.9-1.6,1.3-3.1,1.3-4.4l-0.8-1L300.9,20.5z
		 M342.1,15.6c-0.8,0.7-1.6,1.5-2.3,2.5c-1.1,1.3-2.2,2.3-3.1,3l-2.1,2.5l-0.6,0.7l-1.4,1.1l-0.7,0.7l-3.6,2.8l-0.6-0.2
		c-1.7,1.2-3.5,1.7-5.3,1.4c-1.5-0.6-2.6-1.5-3.2-2.8c7.6-6,12.9-13,15.9-21c-0.5-1.5-1-2.7-1.5-3.5l-1.7-0.4
		c-1.5,0.3-2.9,0.4-4.2,0.3l-1.2,0.8l-0.8-0.1c-0.6,1.2-1.6,1.9-2.8,2.2c-10.8,13.7-11.5,23.2-2.2,28.3l1.4,0.2l4.6-0.9
		c1.2-0.9,2.4-1.5,3.6-1.8c1.2-1.3,2.2-2.2,3.2-2.5c0.3-0.4,0.8-0.9,1.5-1.6c0.5-0.3,0.8-0.5,0.9-0.7l2.6-2.9
		c1.1-0.8,2.4-2.3,3.9-4.5l1.6-3C344.1,14.7,343.5,14.5,342.1,15.6z M328.4,6.6l1.6,0.2c-0.6,4-2.3,7.3-5.2,9.8
		c-1.7,2.8-3.8,4.8-6.2,6.1C319.3,15.3,322.6,10,328.4,6.6z"/>
</g>
</svg>
